<svg id="Layer_1" data-name="Layer 1" xmlns="http://www.w3.org/2000/svg" viewBox="0 0 500 500"><defs><style>.cls-1{fill:#e44461;}.cls-2{fill:#bc395b;}.cls-3,.cls-6{fill:none;stroke-linecap:round;stroke-linejoin:round;stroke-width:20px;}.cls-3{stroke:#000;}.cls-4{fill:#3bb777;}.cls-5{fill:#239957;}.cls-6{stroke:#fff;}.cls-7{fill:#fff;}</style></defs><title>strawberry</title><path class="cls-1" d="M380.7,380.44c-71.51,71.5-268.73,152.8-340.24,81.3S50.26,193,121.76,121.5,286,73.23,357.47,144.73,452.2,308.94,380.7,380.44Z"/><path class="cls-2" d="M392.33,187c17.28,50.43,9.38,102.78-34.86,147C286,405.49,88.74,486.78,17.23,415.28c-.36-.36-.65-.77-1-1.14,4,18.78,11.77,35.13,24.24,47.6,71.51,71.5,268.73-9.8,340.24-81.3C438.77,322.36,434.35,250.3,392.33,187Z"/><path class="cls-3" d="M380.7,380.44c-71.51,71.5-268.73,152.8-340.24,81.3S50.26,193,121.76,121.5,286,73.23,357.47,144.73,452.2,308.94,380.7,380.44Z"/><path d="M192.16,286.89A16.37,16.37,0,0,1,215.31,310c-6.39,6.39-30,19.62-36.38,13.23S185.77,293.28,192.16,286.89Z"/><path d="M172.74,177.06a16.37,16.37,0,1,1,23.15,23.15c-6.39,6.4-30,19.63-36.38,13.23S166.35,183.45,172.74,177.06Z"/><path d="M108.54,285.12a16.37,16.37,0,1,1,23.15,23.16c-6.39,6.39-30,19.62-36.38,13.23S102.14,291.52,108.54,285.12Z"/><path d="M312,339.58a16.37,16.37,0,0,0-23.15-23.15c-6.39,6.39-19.62,30-13.23,36.38S305.64,346,312,339.58Z"/><path d="M204,403.78a16.37,16.37,0,0,0-23.16-23.15c-6.39,6.39-19.62,30-13.23,36.38S197.57,410.18,204,403.78Z"/><path class="cls-4" d="M359.13,226.48s-59.53,26.69-102.45,19c0,0-2.52-49.55,41-80.53,0,0-66.25-27.06-87.8-111.32,0,0,45.06-5.88,93.07,38.21,0,0,34.3-44.09,20.58-81.32,0,0,72.13,32.94,56.64,111.51,0,0,67.07,3.84,107.11,44.14,0,0-13.21,21-53.72,32.76,0,0,29.79,44.09,34.34,86.56C467.86,285.53,420.62,288,359.13,226.48Z"/><path class="cls-5" d="M359.13,226.48s-59.53,26.69-102.45,19c0,0-2.52-49.55,41-80.53,0,0-66.25-27.06-87.8-111.32,0,0,45.06-5.88,93.07,38.21,0,0,34.3-44.09,20.58-81.32,0,0,72.13,32.94,56.64,111.51,0,0,67.07,3.84,107.11,44.14,0,0-13.21,21-53.72,32.76,0,0,29.79,44.09,34.34,86.56C467.86,285.53,420.62,288,359.13,226.48Z"/><path class="cls-4" d="M458.67,248.82A264.12,264.12,0,0,0,433.52,199c40.51-11.71,53.72-32.76,53.72-32.76-40-40.3-107.11-44.14-107.11-44.14C395.62,43.5,323.49,10.56,323.49,10.56c13.72,37.23-20.58,81.32-20.58,81.32-36.78-33.78-71.65-38.2-86-38.43a82.11,82.11,0,0,1-2.79,14.42C239,141,297.64,165,297.64,165a95.6,95.6,0,0,0-34.84,46c44.71,7.34,105.82-20,105.82-20C406,228.32,438.18,243,458.67,248.82Z"/><path class="cls-3" d="M359.13,226.48s-59.53,26.69-102.45,19c0,0-2.52-49.55,41-80.53,0,0-66.25-27.06-87.8-111.32,0,0,45.06-5.88,93.07,38.21,0,0,12.07-57.07,20.58-81.32,0,0,72.13,32.94,56.64,111.51,0,0,67.07,3.84,107.11,44.14,0,0-13.21,21-53.72,32.76,0,0,29.79,44.09,34.34,86.56C467.86,285.53,420.62,288,359.13,226.48Z"/><path class="cls-3" d="M357.4,144.8s52.32-66.35,89-69.94"/><path class="cls-6" d="M93.61,233.2s14-39.5,38.11-60.4"/><circle class="cls-7" cx="155.13" cy="148.05" r="14.18"/></svg>