<svg id="svg" version="1.1" xmlns="http://www.w3.org/2000/svg" xmlns:xlink="http://www.w3.org/1999/xlink" width="400" height="400" viewBox="0, 0, 400,400"><g id="svgg"><path id="path0" d="M186.719 12.734 C 185.967 12.818,183.418 13.069,181.055 13.292 C 69.217 23.868,-8.133 132.183,17.198 242.743 C 40.996 346.609,149.214 410.100,251.890 380.435 C 332.875 357.037,387.301 284.513,387.301 200.000 C 387.301 103.588,317.620 25.377,221.094 13.446 C 216.127 12.833,190.598 12.304,186.719 12.734 M249.666 141.602 L 299.063 188.867 265.547 188.967 L 232.031 189.067 232.031 247.658 L 232.031 306.250 200.000 306.250 L 167.969 306.250 167.969 247.658 L 167.969 189.067 134.454 188.967 L 100.939 188.867 150.372 141.531 C 177.560 115.495,199.909 94.226,200.037 94.265 C 200.165 94.304,222.498 115.605,249.666 141.602 " stroke="none" fill="#44a444" fill-rule="evenodd"></path><path id="path1" d="" stroke="none" fill="#48a444" fill-rule="evenodd"></path><path id="path2" d="" stroke="none" fill="#48a444" fill-rule="evenodd"></path><path id="path3" d="" stroke="none" fill="#48a444" fill-rule="evenodd"></path><path id="path4" d="" stroke="none" fill="#48a444" fill-rule="evenodd"></path></g></svg>