<svg id="svg" version="1.1" xmlns="http://www.w3.org/2000/svg" xmlns:xlink="http://www.w3.org/1999/xlink" width="400" height="400" viewBox="0, 0, 400,400"><g id="svgg"><path id="path0" d="M188.167 12.689 C 184.191 12.953,175.997 13.802,174.000 14.158 C 173.542 14.240,171.517 14.548,169.500 14.844 C 167.483 15.140,164.783 15.608,163.500 15.886 C 162.217 16.163,159.817 16.677,158.167 17.027 C 156.517 17.378,154.342 17.899,153.333 18.186 C 152.325 18.473,150.675 18.914,149.667 19.166 C 146.177 20.039,134.595 23.878,132.167 24.967 C 131.800 25.131,130.975 25.455,130.333 25.686 C 129.692 25.917,128.342 26.468,127.333 26.912 C 126.325 27.355,124.907 27.969,124.183 28.275 C 121.078 29.591,107.903 36.346,105.000 38.112 C 103.258 39.171,101.533 40.217,101.167 40.435 C 100.800 40.654,99.573 41.471,98.440 42.250 C 97.307 43.029,96.248 43.667,96.086 43.667 C 95.925 43.667,95.502 43.930,95.146 44.253 C 94.791 44.575,93.326 45.630,91.892 46.596 C 90.457 47.563,89.107 48.498,88.892 48.675 C 88.676 48.852,87.000 50.148,85.167 51.556 C 75.213 59.200,62.500 71.438,56.167 79.473 C 55.617 80.171,54.926 80.987,54.632 81.288 C 54.338 81.588,52.950 83.333,51.547 85.167 C 50.144 87.000,48.879 88.650,48.735 88.833 C 47.364 90.580,43.667 96.036,43.667 96.312 C 43.667 96.507,43.517 96.667,43.333 96.667 C 43.150 96.667,43.000 96.790,43.000 96.941 C 43.000 97.093,42.125 98.555,41.055 100.191 C 39.985 101.828,38.752 103.842,38.315 104.667 C 37.878 105.492,37.340 106.392,37.118 106.667 C 36.897 106.942,35.136 110.258,33.205 114.036 C 30.232 119.853,28.891 122.697,27.013 127.167 C 26.859 127.533,26.435 128.508,26.071 129.333 C 20.939 140.965,16.127 159.396,13.814 176.277 C 12.146 188.449,12.005 209.298,13.511 221.000 C 13.593 221.642,13.746 222.917,13.850 223.833 C 14.471 229.323,16.421 239.749,18.017 246.117 C 19.837 253.376,23.888 265.658,26.222 270.995 C 26.504 271.639,26.859 272.467,27.011 272.833 C 28.538 276.521,29.618 278.813,32.667 284.833 C 34.618 288.683,37.075 293.258,38.127 295.000 C 39.180 296.742,40.220 298.466,40.437 298.831 C 41.382 300.417,45.439 306.551,46.833 308.503 C 47.888 309.980,51.535 314.882,51.949 315.381 C 52.156 315.630,53.115 316.809,54.079 318.003 C 60.810 326.327,69.479 335.306,77.022 341.766 C 77.835 342.463,78.800 343.303,79.167 343.635 C 79.753 344.164,86.041 349.161,87.833 350.522 C 91.743 353.490,99.664 358.720,104.667 361.636 C 106.958 362.972,109.058 364.202,109.333 364.369 C 110.114 364.842,122.761 371.100,124.207 371.729 C 124.918 372.038,126.025 372.508,126.667 372.773 C 127.308 373.039,128.544 373.573,129.413 373.961 C 130.282 374.349,131.194 374.667,131.441 374.667 C 131.687 374.667,131.992 374.769,132.117 374.895 C 132.653 375.431,144.109 379.314,149.333 380.731 C 152.078 381.475,158.180 382.963,161.833 383.778 C 163.844 384.227,167.822 384.915,172.000 385.536 C 172.642 385.631,173.528 385.769,173.969 385.842 C 185.819 387.804,210.475 388.149,220.667 386.497 C 221.125 386.422,222.475 386.268,223.667 386.154 C 237.903 384.791,260.918 378.494,275.000 372.110 C 279.229 370.192,290.984 364.286,292.833 363.150 C 293.933 362.474,295.508 361.542,296.333 361.079 C 298.657 359.777,304.154 356.209,304.278 355.923 C 304.339 355.782,304.526 355.667,304.694 355.667 C 304.940 355.667,307.088 354.243,308.833 352.923 C 309.017 352.784,310.817 351.448,312.833 349.954 C 314.850 348.460,316.575 347.138,316.667 347.016 C 316.758 346.894,317.146 346.578,317.528 346.314 C 318.709 345.497,322.775 342.016,326.809 338.367 C 329.877 335.592,336.623 328.780,339.167 325.888 C 340.267 324.638,341.542 323.203,342.000 322.700 C 343.297 321.276,345.782 318.298,346.314 317.528 C 346.578 317.146,346.882 316.758,346.989 316.667 C 347.096 316.575,347.816 315.675,348.589 314.667 C 349.362 313.658,350.120 312.679,350.274 312.491 C 350.428 312.303,350.838 311.703,351.186 311.158 C 351.533 310.613,351.911 310.092,352.025 310.000 C 352.466 309.645,355.667 304.981,355.667 304.693 C 355.667 304.526,355.780 304.339,355.918 304.278 C 356.138 304.181,358.570 300.569,359.500 298.959 C 359.683 298.641,360.578 297.133,361.489 295.607 C 364.279 290.930,364.580 290.372,367.924 283.639 C 371.335 276.773,371.619 276.173,372.724 273.500 C 373.103 272.583,373.646 271.308,373.930 270.667 C 375.340 267.482,379.428 255.579,380.512 251.500 C 380.804 250.400,381.407 248.130,381.852 246.455 C 383.684 239.563,385.484 229.884,386.184 223.167 C 386.279 222.250,386.423 221.050,386.503 220.500 C 386.584 219.950,386.738 218.300,386.846 216.833 C 386.955 215.367,387.114 213.717,387.201 213.167 C 388.531 204.740,387.118 179.954,384.480 165.445 C 382.623 155.232,378.324 140.088,375.033 132.167 C 374.881 131.800,374.566 131.050,374.333 130.500 C 374.101 129.950,373.798 129.200,373.660 128.833 C 372.049 124.549,364.968 109.889,363.265 107.314 C 362.844 106.677,362.135 105.484,361.688 104.662 C 358.160 98.163,347.936 83.889,342.353 77.667 C 341.777 77.025,340.303 75.375,339.078 74.000 C 336.176 70.745,329.202 63.778,325.891 60.826 C 324.456 59.547,322.946 58.200,322.536 57.833 C 322.126 57.467,321.174 56.669,320.421 56.061 C 319.668 55.453,318.628 54.584,318.109 54.130 C 317.388 53.497,311.847 49.278,308.833 47.067 C 306.305 45.212,303.980 43.667,303.718 43.667 C 303.537 43.667,303.339 43.551,303.278 43.411 C 303.183 43.192,300.832 41.606,298.963 40.500 C 298.654 40.317,296.931 39.282,295.135 38.201 C 291.205 35.834,279.428 29.762,275.978 28.322 C 274.615 27.753,273.050 27.085,272.500 26.837 C 268.453 25.011,258.458 21.476,253.083 19.970 C 252.487 19.803,251.512 19.525,250.917 19.352 C 232.403 13.980,207.915 11.380,188.167 12.689 M232.000 152.333 L 232.000 210.667 265.838 210.667 L 299.676 210.667 296.598 213.583 C 294.905 215.188,292.671 217.325,291.632 218.333 C 290.594 219.342,287.146 222.642,283.971 225.667 C 280.795 228.692,276.474 232.817,274.369 234.833 C 272.263 236.850,268.849 240.117,266.781 242.094 C 264.713 244.071,261.297 247.339,259.188 249.355 C 257.080 251.372,253.630 254.672,251.522 256.689 C 249.413 258.705,245.963 262.005,243.855 264.022 C 241.747 266.039,238.297 269.339,236.188 271.355 C 234.080 273.372,230.630 276.672,228.522 278.689 C 226.413 280.705,222.963 284.005,220.855 286.022 C 218.747 288.039,215.261 291.371,213.110 293.428 C 210.959 295.484,207.541 298.762,205.516 300.711 C 203.491 302.660,201.400 304.620,200.871 305.066 L 199.908 305.878 199.181 305.189 C 198.380 304.430,192.540 298.837,186.827 293.357 C 184.808 291.419,180.474 287.283,177.198 284.167 C 173.921 281.050,170.465 277.750,169.518 276.833 C 168.571 275.917,166.072 273.517,163.965 271.500 C 160.399 268.087,158.004 265.795,148.486 256.688 C 146.461 254.751,143.044 251.484,140.892 249.428 C 128.520 237.607,121.724 231.104,110.158 220.022 C 108.136 218.085,105.146 215.225,103.514 213.667 L 100.545 210.833 134.272 210.748 L 168.000 210.663 168.000 152.332 L 168.000 94.000 200.000 94.000 L 232.000 94.000 232.000 152.333 " stroke="none" fill="#e43434" fill-rule="evenodd"></path><path id="path1" d="" stroke="none" fill="#e43c34" fill-rule="evenodd"></path><path id="path2" d="" stroke="none" fill="#e83434" fill-rule="evenodd"></path><path id="path3" d="" stroke="none" fill="#e83434" fill-rule="evenodd"></path><path id="path4" d="" stroke="none" fill="#e83434" fill-rule="evenodd"></path></g></svg>