<svg id="svg" version="1.1" xmlns="http://www.w3.org/2000/svg" xmlns:xlink="http://www.w3.org/1999/xlink" width="400" height="400" viewBox="0, 0, 400,400"><g id="svgg"><path id="path0" d="M182.400 50.000 L 182.400 67.600 180.400 67.600 C 179.300 67.600,178.400 67.780,178.400 68.000 C 178.400 68.220,177.410 68.400,176.200 68.400 C 174.990 68.400,174.000 68.580,174.000 68.800 C 174.000 69.020,173.100 69.200,172.000 69.200 C 170.900 69.200,170.000 69.380,170.000 69.600 C 170.000 69.820,169.280 70.000,168.400 70.000 C 167.520 70.000,166.800 70.180,166.800 70.400 C 166.800 70.620,166.080 70.800,165.200 70.800 C 164.320 70.800,163.600 70.980,163.600 71.200 C 163.600 71.420,162.970 71.600,162.200 71.600 C 161.430 71.600,160.800 71.780,160.800 72.000 C 160.800 72.220,160.350 72.400,159.800 72.400 C 159.250 72.400,158.800 72.580,158.800 72.800 C 158.800 73.020,158.350 73.200,157.800 73.200 C 157.250 73.200,156.800 73.380,156.800 73.600 C 156.800 73.820,156.260 74.000,155.600 74.000 C 154.940 74.000,154.400 74.156,154.400 74.346 C 154.400 74.536,153.584 74.803,152.587 74.940 C 151.063 75.149,147.530 76.535,144.705 78.032 C 144.323 78.234,143.738 78.400,143.405 78.400 C 143.072 78.400,142.800 78.580,142.800 78.800 C 142.800 79.020,142.440 79.200,142.000 79.200 C 141.560 79.200,141.200 79.380,141.200 79.600 C 141.200 79.820,140.840 80.000,140.400 80.000 C 139.960 80.000,139.600 80.180,139.600 80.400 C 139.600 80.620,139.240 80.800,138.800 80.800 C 138.360 80.800,138.000 80.980,138.000 81.200 C 138.000 81.420,137.764 81.600,137.475 81.600 C 137.187 81.600,136.564 81.960,136.092 82.400 C 135.620 82.840,134.956 83.200,134.617 83.200 C 134.278 83.200,134.000 83.380,134.000 83.600 C 134.000 83.820,133.640 84.000,133.200 84.000 C 132.760 84.000,132.400 84.180,132.400 84.400 C 132.400 84.620,132.080 84.800,131.688 84.800 C 131.297 84.800,130.717 85.160,130.400 85.600 C 130.083 86.040,129.543 86.400,129.200 86.400 C 128.857 86.400,128.317 86.760,128.000 87.200 C 127.683 87.640,127.146 88.000,126.808 88.000 C 126.469 88.000,125.968 88.360,125.693 88.800 C 125.418 89.240,124.925 89.600,124.597 89.600 C 124.268 89.600,124.000 89.780,124.000 90.000 C 124.000 90.220,123.706 90.400,123.347 90.400 C 122.988 90.400,122.403 90.733,122.047 91.141 C 121.691 91.548,120.860 92.160,120.200 92.500 C 119.540 92.841,118.417 93.677,117.704 94.360 C 116.991 95.042,116.244 95.600,116.044 95.600 C 115.844 95.600,114.762 96.500,113.639 97.600 C 112.515 98.700,111.505 99.600,111.395 99.600 C 111.131 99.600,99.600 111.131,99.600 111.395 C 99.600 111.505,98.700 112.515,97.600 113.639 C 96.500 114.762,95.600 115.844,95.600 116.044 C 95.600 116.244,95.042 116.991,94.360 117.704 C 93.677 118.417,92.841 119.540,92.500 120.200 C 92.160 120.860,91.548 121.691,91.141 122.047 C 90.733 122.403,90.400 122.948,90.400 123.259 C 90.400 123.569,90.040 124.083,89.600 124.400 C 89.160 124.717,88.800 125.207,88.800 125.488 C 88.800 125.770,88.620 126.000,88.400 126.000 C 88.180 126.000,88.000 126.270,88.000 126.600 C 88.000 126.930,87.820 127.200,87.600 127.200 C 87.380 127.200,87.200 127.388,87.200 127.617 C 87.200 127.846,86.840 128.420,86.400 128.892 C 85.960 129.364,85.600 129.987,85.600 130.275 C 85.600 130.564,85.420 130.800,85.200 130.800 C 84.980 130.800,84.800 131.160,84.800 131.600 C 84.800 132.040,84.620 132.400,84.400 132.400 C 84.180 132.400,84.000 132.760,84.000 133.200 C 84.000 133.640,83.848 134.000,83.663 134.000 C 83.477 134.000,82.892 134.855,82.363 135.900 C 81.833 136.945,81.265 137.860,81.100 137.933 C 80.935 138.007,80.800 138.412,80.800 138.833 C 80.800 139.255,80.620 139.600,80.400 139.600 C 80.180 139.600,80.000 139.960,80.000 140.400 C 80.000 140.840,79.820 141.200,79.600 141.200 C 79.380 141.200,79.200 141.560,79.200 142.000 C 79.200 142.440,79.020 142.800,78.800 142.800 C 78.580 142.800,78.400 143.149,78.400 143.576 C 78.400 144.003,78.220 144.464,78.000 144.600 C 77.780 144.736,77.600 145.197,77.600 145.624 C 77.600 146.051,77.420 146.400,77.200 146.400 C 76.980 146.400,76.800 146.636,76.800 146.925 C 76.800 147.214,76.437 148.201,75.993 149.120 C 75.549 150.039,75.075 151.602,74.939 152.595 C 74.803 153.588,74.536 154.400,74.346 154.400 C 74.156 154.400,74.000 154.760,74.000 155.200 C 74.000 155.640,73.820 156.000,73.600 156.000 C 73.380 156.000,73.200 156.540,73.200 157.200 C 73.200 157.860,73.020 158.400,72.800 158.400 C 72.580 158.400,72.400 158.839,72.400 159.376 C 72.400 159.913,72.220 160.464,72.000 160.600 C 71.780 160.736,71.600 161.467,71.600 162.224 C 71.600 162.981,71.420 163.600,71.200 163.600 C 70.980 163.600,70.800 164.320,70.800 165.200 C 70.800 166.080,70.620 166.800,70.400 166.800 C 70.180 166.800,70.000 167.520,70.000 168.400 C 70.000 169.280,69.820 170.000,69.600 170.000 C 69.380 170.000,69.200 170.720,69.200 171.600 C 69.200 172.480,69.020 173.200,68.800 173.200 C 68.580 173.200,68.400 174.179,68.400 175.376 C 68.400 176.573,68.220 177.664,68.000 177.800 C 67.780 177.936,67.600 179.027,67.600 180.224 L 67.600 182.400 50.000 182.400 L 32.400 182.400 32.400 200.000 L 32.400 217.600 50.000 217.600 L 67.600 217.600 67.600 219.776 C 67.600 220.973,67.780 222.064,68.000 222.200 C 68.220 222.336,68.400 223.427,68.400 224.624 C 68.400 225.821,68.580 226.800,68.800 226.800 C 69.020 226.800,69.200 227.700,69.200 228.800 C 69.200 229.900,69.380 230.800,69.600 230.800 C 69.820 230.800,70.000 231.340,70.000 232.000 C 70.000 232.660,70.180 233.200,70.400 233.200 C 70.620 233.200,70.800 233.920,70.800 234.800 C 70.800 235.680,70.980 236.400,71.200 236.400 C 71.420 236.400,71.600 237.120,71.600 238.000 C 71.600 238.880,71.780 239.600,72.000 239.600 C 72.220 239.600,72.400 240.050,72.400 240.600 C 72.400 241.150,72.580 241.600,72.800 241.600 C 73.020 241.600,73.200 242.140,73.200 242.800 C 73.200 243.460,73.380 244.000,73.600 244.000 C 73.820 244.000,74.000 244.540,74.000 245.200 C 74.000 245.860,74.180 246.400,74.400 246.400 C 74.620 246.400,74.800 246.844,74.800 247.386 C 74.800 247.929,75.088 249.054,75.440 249.886 C 77.595 254.988,79.317 258.563,79.700 258.733 C 79.865 258.807,80.000 259.212,80.000 259.633 C 80.000 260.055,80.180 260.400,80.400 260.400 C 80.620 260.400,80.800 260.760,80.800 261.200 C 80.800 261.640,80.980 262.000,81.200 262.000 C 81.420 262.000,81.600 262.360,81.600 262.800 C 81.600 263.240,81.780 263.600,82.000 263.600 C 82.220 263.600,82.400 263.960,82.400 264.400 C 82.400 264.840,82.580 265.200,82.800 265.200 C 83.020 265.200,83.200 265.436,83.200 265.725 C 83.200 266.013,83.560 266.636,84.000 267.108 C 84.440 267.580,84.800 268.244,84.800 268.583 C 84.800 268.922,84.980 269.200,85.200 269.200 C 85.420 269.200,85.600 269.494,85.600 269.853 C 85.600 270.212,85.916 270.797,86.303 271.153 C 86.689 271.509,87.260 272.295,87.570 272.900 C 87.881 273.505,88.285 274.000,88.468 274.000 C 88.650 274.000,88.800 274.230,88.800 274.512 C 88.800 274.793,89.160 275.283,89.600 275.600 C 90.040 275.917,90.400 276.497,90.400 276.888 C 90.400 277.280,90.559 277.600,90.754 277.600 C 90.949 277.600,91.391 278.195,91.736 278.921 C 92.081 279.648,92.911 280.816,93.581 281.518 C 94.252 282.219,94.800 282.948,94.800 283.137 C 94.800 283.326,95.340 284.046,96.000 284.737 C 96.660 285.428,97.200 286.142,97.200 286.323 C 97.200 286.505,98.235 287.672,99.500 288.915 C 104.632 293.960,108.725 298.051,110.950 300.361 C 112.243 301.702,113.457 302.800,113.649 302.800 C 113.841 302.800,114.666 303.430,115.482 304.200 C 116.299 304.970,117.081 305.600,117.221 305.600 C 117.361 305.600,117.999 306.061,118.638 306.623 C 119.277 307.186,120.340 307.933,121.000 308.283 C 121.660 308.632,122.491 309.252,122.847 309.659 C 123.203 310.067,123.748 310.400,124.059 310.400 C 124.369 310.400,124.883 310.760,125.200 311.200 C 125.517 311.640,126.007 312.000,126.288 312.000 C 126.570 312.000,126.800 312.180,126.800 312.400 C 126.800 312.620,127.120 312.800,127.512 312.800 C 127.903 312.800,128.483 313.160,128.800 313.600 C 129.117 314.040,129.657 314.400,130.000 314.400 C 130.343 314.400,130.883 314.760,131.200 315.200 C 131.517 315.640,132.097 316.000,132.488 316.000 C 132.880 316.000,133.200 316.180,133.200 316.400 C 133.200 316.620,133.560 316.800,134.000 316.800 C 134.440 316.800,134.800 316.980,134.800 317.200 C 134.800 317.420,135.160 317.600,135.600 317.600 C 136.040 317.600,136.400 317.780,136.400 318.000 C 136.400 318.220,136.678 318.400,137.017 318.400 C 137.356 318.400,138.020 318.760,138.492 319.200 C 138.964 319.640,139.587 320.000,139.875 320.000 C 140.164 320.000,140.400 320.180,140.400 320.400 C 140.400 320.620,140.706 320.800,141.081 320.800 C 141.455 320.800,143.622 321.704,145.897 322.810 C 148.171 323.915,150.835 324.930,151.816 325.064 C 152.797 325.199,153.600 325.464,153.600 325.654 C 153.600 325.844,154.140 326.000,154.800 326.000 C 155.460 326.000,156.000 326.180,156.000 326.400 C 156.000 326.620,156.540 326.800,157.200 326.800 C 157.860 326.800,158.400 326.980,158.400 327.200 C 158.400 327.420,158.850 327.600,159.400 327.600 C 159.950 327.600,160.400 327.780,160.400 328.000 C 160.400 328.220,160.940 328.400,161.600 328.400 C 162.260 328.400,162.800 328.580,162.800 328.800 C 162.800 329.020,163.520 329.200,164.400 329.200 C 165.280 329.200,166.000 329.380,166.000 329.600 C 166.000 329.820,166.720 330.000,167.600 330.000 C 168.480 330.000,169.200 330.180,169.200 330.400 C 169.200 330.620,169.920 330.800,170.800 330.800 C 171.680 330.800,172.400 330.980,172.400 331.200 C 172.400 331.420,173.379 331.600,174.576 331.600 C 175.773 331.600,176.864 331.780,177.000 332.000 C 177.136 332.220,178.149 332.400,179.252 332.400 C 182.585 332.400,182.400 331.333,182.400 350.571 L 182.400 367.600 200.000 367.600 L 217.600 367.600 217.600 350.571 C 217.600 331.203,217.378 332.400,220.971 332.400 C 222.197 332.400,223.200 332.220,223.200 332.000 C 223.200 331.780,224.190 331.600,225.400 331.600 C 226.610 331.600,227.600 331.420,227.600 331.200 C 227.600 330.980,228.320 330.800,229.200 330.800 C 230.080 330.800,230.800 330.620,230.800 330.400 C 230.800 330.180,231.520 330.000,232.400 330.000 C 233.280 330.000,234.000 329.820,234.000 329.600 C 234.000 329.380,234.720 329.200,235.600 329.200 C 236.480 329.200,237.200 329.020,237.200 328.800 C 237.200 328.580,237.819 328.400,238.576 328.400 C 239.333 328.400,240.064 328.220,240.200 328.000 C 240.336 327.780,240.887 327.600,241.424 327.600 C 241.961 327.600,242.400 327.420,242.400 327.200 C 242.400 326.980,242.760 326.800,243.200 326.800 C 243.640 326.800,244.000 326.620,244.000 326.400 C 244.000 326.180,244.540 326.000,245.200 326.000 C 245.860 326.000,246.400 325.843,246.400 325.652 C 246.400 325.460,247.255 325.184,248.300 325.039 C 249.345 324.893,251.275 324.240,252.590 323.587 C 253.904 322.934,255.209 322.400,255.490 322.400 C 255.770 322.400,256.000 322.220,256.000 322.000 C 256.000 321.780,256.349 321.600,256.776 321.600 C 257.203 321.600,257.664 321.420,257.800 321.200 C 257.936 320.980,258.397 320.800,258.824 320.800 C 259.251 320.800,259.600 320.620,259.600 320.400 C 259.600 320.180,259.960 320.000,260.400 320.000 C 260.840 320.000,261.200 319.820,261.200 319.600 C 261.200 319.380,261.436 319.200,261.725 319.200 C 262.013 319.200,262.636 318.840,263.108 318.400 C 263.580 317.960,264.244 317.600,264.583 317.600 C 264.922 317.600,265.200 317.420,265.200 317.200 C 265.200 316.980,265.560 316.800,266.000 316.800 C 266.440 316.800,266.800 316.620,266.800 316.400 C 266.800 316.180,267.160 316.000,267.600 316.000 C 268.040 316.000,268.400 315.820,268.400 315.600 C 268.400 315.380,268.636 315.200,268.925 315.200 C 269.213 315.200,269.836 314.840,270.308 314.400 C 270.780 313.960,271.354 313.600,271.583 313.600 C 271.812 313.600,272.000 313.420,272.000 313.200 C 272.000 312.980,272.270 312.800,272.600 312.800 C 272.930 312.800,273.200 312.620,273.200 312.400 C 273.200 312.180,273.430 312.000,273.712 312.000 C 273.993 312.000,274.483 311.640,274.800 311.200 C 275.117 310.760,275.657 310.400,276.000 310.400 C 276.343 310.400,276.883 310.040,277.200 309.600 C 277.517 309.160,278.059 308.800,278.405 308.800 C 278.751 308.800,279.701 308.170,280.518 307.400 C 281.334 306.630,282.155 306.000,282.342 306.000 C 282.528 306.000,283.246 305.460,283.937 304.800 C 284.628 304.140,285.361 303.600,285.566 303.600 C 285.998 303.600,291.116 298.554,291.988 297.267 C 292.312 296.790,292.813 296.400,293.102 296.400 C 293.784 296.400,296.400 293.784,296.400 293.102 C 296.400 292.813,296.793 292.312,297.273 291.988 C 298.464 291.186,303.600 285.940,303.600 285.526 C 303.600 285.343,304.140 284.628,304.800 283.937 C 305.460 283.246,306.000 282.528,306.000 282.342 C 306.000 282.155,306.630 281.334,307.400 280.518 C 308.170 279.701,308.800 278.751,308.800 278.405 C 308.800 278.059,309.160 277.517,309.600 277.200 C 310.040 276.883,310.400 276.343,310.400 276.000 C 310.400 275.657,310.760 275.117,311.200 274.800 C 311.640 274.483,312.000 273.993,312.000 273.712 C 312.000 273.430,312.180 273.200,312.400 273.200 C 312.620 273.200,312.800 272.930,312.800 272.600 C 312.800 272.270,312.980 272.000,313.200 272.000 C 313.420 272.000,313.600 271.812,313.600 271.583 C 313.600 271.354,313.960 270.780,314.400 270.308 C 314.840 269.836,315.200 269.213,315.200 268.925 C 315.200 268.636,315.380 268.400,315.600 268.400 C 315.820 268.400,316.000 268.040,316.000 267.600 C 316.000 267.160,316.180 266.800,316.400 266.800 C 316.620 266.800,316.800 266.440,316.800 266.000 C 316.800 265.560,316.980 265.200,317.200 265.200 C 317.420 265.200,317.600 264.840,317.600 264.400 C 317.600 263.960,317.752 263.600,317.937 263.600 C 318.123 263.600,318.708 262.745,319.237 261.700 C 319.767 260.655,320.335 259.740,320.500 259.667 C 320.665 259.593,320.800 259.199,320.800 258.790 C 320.800 258.382,320.980 257.936,321.200 257.800 C 321.420 257.664,321.600 257.203,321.600 256.776 C 321.600 256.349,321.780 256.000,322.000 256.000 C 322.220 256.000,322.400 255.762,322.400 255.471 C 322.400 255.180,322.945 253.816,323.612 252.440 C 324.278 251.064,324.933 249.142,325.066 248.169 C 325.200 247.196,325.464 246.400,325.654 246.400 C 325.844 246.400,326.000 245.860,326.000 245.200 C 326.000 244.540,326.180 244.000,326.400 244.000 C 326.620 244.000,326.800 243.640,326.800 243.200 C 326.800 242.760,326.980 242.400,327.200 242.400 C 327.420 242.400,327.600 241.860,327.600 241.200 C 327.600 240.540,327.780 240.000,328.000 240.000 C 328.220 240.000,328.400 239.370,328.400 238.600 C 328.400 237.830,328.580 237.200,328.800 237.200 C 329.020 237.200,329.200 236.480,329.200 235.600 C 329.200 234.720,329.380 234.000,329.600 234.000 C 329.820 234.000,330.000 233.280,330.000 232.400 C 330.000 231.520,330.180 230.800,330.400 230.800 C 330.620 230.800,330.800 230.080,330.800 229.200 C 330.800 228.320,330.980 227.600,331.200 227.600 C 331.420 227.600,331.600 226.621,331.600 225.424 C 331.600 224.227,331.780 223.136,332.000 223.000 C 332.220 222.864,332.400 221.851,332.400 220.748 C 332.400 217.415,331.333 217.600,350.571 217.600 L 367.600 217.600 367.600 200.000 L 367.600 182.400 350.571 182.400 C 331.333 182.400,332.400 182.585,332.400 179.252 C 332.400 178.149,332.220 177.136,332.000 177.000 C 331.780 176.864,331.600 175.773,331.600 174.576 C 331.600 173.379,331.420 172.400,331.200 172.400 C 330.980 172.400,330.800 171.680,330.800 170.800 C 330.800 169.920,330.620 169.200,330.400 169.200 C 330.180 169.200,330.000 168.480,330.000 167.600 C 330.000 166.720,329.820 166.000,329.600 166.000 C 329.380 166.000,329.200 165.381,329.200 164.624 C 329.200 163.867,329.020 163.136,328.800 163.000 C 328.580 162.864,328.400 162.223,328.400 161.576 C 328.400 160.929,328.220 160.400,328.000 160.400 C 327.780 160.400,327.600 159.950,327.600 159.400 C 327.600 158.850,327.420 158.400,327.200 158.400 C 326.980 158.400,326.800 157.860,326.800 157.200 C 326.800 156.540,326.620 156.000,326.400 156.000 C 326.180 156.000,326.000 155.460,326.000 154.800 C 326.000 154.140,325.820 153.600,325.600 153.600 C 325.380 153.600,325.199 153.105,325.198 152.500 C 325.196 151.895,324.926 150.884,324.598 150.254 C 324.269 149.624,324.000 148.932,324.000 148.715 C 324.000 148.382,323.204 146.619,320.293 140.500 C 320.058 140.005,319.715 139.600,319.532 139.600 C 319.350 139.600,319.200 139.240,319.200 138.800 C 319.200 138.360,319.020 138.000,318.800 138.000 C 318.580 138.000,318.400 137.640,318.400 137.200 C 318.400 136.760,318.220 136.400,318.000 136.400 C 317.780 136.400,317.600 136.055,317.600 135.633 C 317.600 135.212,317.465 134.807,317.300 134.733 C 317.135 134.660,316.567 133.745,316.037 132.700 C 315.508 131.655,314.923 130.800,314.737 130.800 C 314.552 130.800,314.400 130.506,314.400 130.147 C 314.400 129.788,314.084 129.203,313.697 128.847 C 313.311 128.491,312.740 127.705,312.430 127.100 C 312.119 126.495,311.715 126.000,311.532 126.000 C 311.350 126.000,311.200 125.770,311.200 125.488 C 311.200 125.207,310.840 124.717,310.400 124.400 C 309.960 124.083,309.600 123.503,309.600 123.112 C 309.600 122.720,309.442 122.400,309.249 122.400 C 309.055 122.400,308.689 121.898,308.435 121.285 C 308.181 120.672,307.260 119.390,306.387 118.435 C 305.514 117.480,304.800 116.548,304.800 116.363 C 304.800 116.178,304.170 115.397,303.400 114.627 C 302.630 113.857,302.000 113.105,302.000 112.957 C 302.000 112.605,287.395 98.000,287.043 98.000 C 286.895 98.000,286.143 97.370,285.373 96.600 C 284.603 95.830,283.808 95.200,283.605 95.200 C 283.402 95.200,282.805 94.768,282.277 94.241 C 281.750 93.713,280.706 92.967,279.959 92.582 C 279.212 92.197,278.309 91.548,277.953 91.141 C 277.597 90.733,277.052 90.400,276.741 90.400 C 276.431 90.400,275.917 90.040,275.600 89.600 C 275.283 89.160,274.793 88.800,274.512 88.800 C 274.230 88.800,274.000 88.650,274.000 88.468 C 274.000 88.285,273.505 87.881,272.900 87.570 C 272.295 87.260,271.509 86.689,271.153 86.303 C 270.797 85.916,270.212 85.600,269.853 85.600 C 269.494 85.600,269.200 85.420,269.200 85.200 C 269.200 84.980,268.840 84.800,268.400 84.800 C 267.960 84.800,267.600 84.620,267.600 84.400 C 267.600 84.180,267.322 84.000,266.983 84.000 C 266.644 84.000,265.980 83.640,265.508 83.200 C 265.036 82.760,264.413 82.400,264.125 82.400 C 263.836 82.400,263.600 82.220,263.600 82.000 C 263.600 81.780,263.240 81.600,262.800 81.600 C 262.360 81.600,262.000 81.420,262.000 81.200 C 262.000 80.980,261.640 80.800,261.200 80.800 C 260.760 80.800,260.400 80.620,260.400 80.400 C 260.400 80.180,260.055 80.000,259.633 80.000 C 259.212 80.000,258.807 79.865,258.733 79.700 C 258.512 79.201,255.178 77.600,254.362 77.600 C 253.943 77.600,253.600 77.420,253.600 77.200 C 253.600 76.980,253.364 76.800,253.075 76.800 C 252.786 76.800,251.799 76.437,250.880 75.993 C 249.961 75.549,248.398 75.075,247.405 74.939 C 246.412 74.803,245.600 74.536,245.600 74.346 C 245.600 74.156,245.240 74.000,244.800 74.000 C 244.360 74.000,244.000 73.820,244.000 73.600 C 244.000 73.380,243.460 73.200,242.800 73.200 C 242.140 73.200,241.600 73.020,241.600 72.800 C 241.600 72.580,241.161 72.400,240.624 72.400 C 240.087 72.400,239.536 72.220,239.400 72.000 C 239.264 71.780,238.533 71.600,237.776 71.600 C 237.019 71.600,236.400 71.420,236.400 71.200 C 236.400 70.980,235.680 70.800,234.800 70.800 C 233.920 70.800,233.200 70.620,233.200 70.400 C 233.200 70.180,232.480 70.000,231.600 70.000 C 230.720 70.000,230.000 69.820,230.000 69.600 C 230.000 69.380,229.100 69.200,228.000 69.200 C 226.900 69.200,226.000 69.020,226.000 68.800 C 226.000 68.580,225.010 68.400,223.800 68.400 C 222.590 68.400,221.600 68.220,221.600 68.000 C 221.600 67.780,220.700 67.600,219.600 67.600 L 217.600 67.600 217.600 50.000 L 217.600 32.400 200.000 32.400 L 182.400 32.400 182.400 50.000 M211.200 101.600 C 211.200 101.822,212.267 102.000,213.600 102.000 C 214.933 102.000,216.000 102.178,216.000 102.400 C 216.000 102.622,217.067 102.800,218.400 102.800 C 219.733 102.800,220.800 102.978,220.800 103.200 C 220.800 103.420,221.520 103.600,222.400 103.600 C 223.280 103.600,224.000 103.780,224.000 104.000 C 224.000 104.220,224.619 104.400,225.376 104.400 C 226.133 104.400,226.864 104.580,227.000 104.800 C 227.136 105.020,227.676 105.200,228.200 105.200 C 228.724 105.200,229.264 105.380,229.400 105.600 C 229.536 105.820,230.076 106.000,230.600 106.000 C 231.124 106.000,231.664 106.180,231.800 106.400 C 231.936 106.620,232.476 106.800,233.000 106.800 C 233.524 106.800,234.064 106.980,234.200 107.200 C 234.336 107.420,234.887 107.600,235.424 107.600 C 235.961 107.600,236.400 107.764,236.400 107.965 C 236.400 108.166,237.120 108.451,238.000 108.600 C 238.880 108.749,239.600 109.034,239.600 109.235 C 239.600 109.436,239.960 109.600,240.400 109.600 C 240.840 109.600,241.200 109.780,241.200 110.000 C 241.200 110.220,241.560 110.400,242.000 110.400 C 242.440 110.400,242.800 110.580,242.800 110.800 C 242.800 111.020,243.250 111.200,243.800 111.200 C 244.350 111.200,244.800 111.380,244.800 111.600 C 244.800 111.820,245.078 112.000,245.417 112.000 C 245.756 112.000,246.420 112.360,246.892 112.800 C 247.364 113.240,247.987 113.600,248.275 113.600 C 248.564 113.600,248.800 113.780,248.800 114.000 C 248.800 114.220,249.120 114.400,249.512 114.400 C 249.903 114.400,250.483 114.760,250.800 115.200 C 251.117 115.640,251.697 116.000,252.088 116.000 C 252.480 116.000,252.800 116.180,252.800 116.400 C 252.800 116.620,253.120 116.800,253.512 116.800 C 253.903 116.800,254.483 117.160,254.800 117.600 C 255.117 118.040,255.625 118.400,255.928 118.400 C 256.231 118.400,256.983 118.940,257.600 119.600 C 258.217 120.260,258.897 120.800,259.112 120.800 C 259.326 120.800,259.746 121.094,260.045 121.454 C 260.344 121.814,261.221 122.511,261.994 123.002 C 262.767 123.494,264.619 125.089,266.110 126.548 C 267.600 128.006,269.008 129.200,269.238 129.200 C 269.783 129.200,270.800 130.222,270.800 130.769 C 270.800 131.003,271.887 132.299,273.216 133.649 C 274.545 134.998,276.655 137.475,277.904 139.151 C 279.154 140.828,280.496 142.491,280.888 142.847 C 281.280 143.203,281.600 143.748,281.600 144.059 C 281.600 144.369,281.960 144.883,282.400 145.200 C 282.840 145.517,283.200 146.097,283.200 146.488 C 283.200 146.880,283.380 147.200,283.600 147.200 C 283.820 147.200,284.000 147.520,284.000 147.912 C 284.000 148.303,284.360 148.883,284.800 149.200 C 285.240 149.517,285.600 150.057,285.600 150.400 C 285.600 150.743,285.960 151.283,286.400 151.600 C 286.840 151.917,287.200 152.497,287.200 152.888 C 287.200 153.280,287.380 153.600,287.600 153.600 C 287.820 153.600,288.000 153.960,288.000 154.400 C 288.000 154.840,288.180 155.200,288.400 155.200 C 288.620 155.200,288.800 155.560,288.800 156.000 C 288.800 156.440,288.980 156.800,289.200 156.800 C 289.420 156.800,289.600 157.160,289.600 157.600 C 289.600 158.040,289.780 158.400,290.000 158.400 C 290.220 158.400,290.400 158.850,290.400 159.400 C 290.400 159.950,290.580 160.400,290.800 160.400 C 291.020 160.400,291.200 160.649,291.200 160.954 C 291.200 161.259,291.469 162.024,291.798 162.654 C 292.126 163.284,292.396 164.194,292.398 164.676 C 292.399 165.158,292.544 165.642,292.721 165.751 C 292.897 165.860,293.290 166.861,293.593 167.975 C 293.896 169.089,294.292 170.000,294.472 170.000 C 294.653 170.000,294.800 170.630,294.800 171.400 C 294.800 172.170,294.980 172.800,295.200 172.800 C 295.420 172.800,295.600 173.520,295.600 174.400 C 295.600 175.280,295.780 176.000,296.000 176.000 C 296.220 176.000,296.400 176.720,296.400 177.600 C 296.400 178.480,296.580 179.200,296.800 179.200 C 297.020 179.200,297.200 180.100,297.200 181.200 C 297.200 182.300,297.380 183.200,297.600 183.200 C 297.826 183.200,298.000 184.333,298.000 185.800 C 298.000 187.267,298.174 188.400,298.400 188.400 C 298.646 188.400,298.800 190.400,298.800 193.600 C 298.800 196.800,298.954 198.800,299.200 198.800 C 299.420 198.800,299.600 199.340,299.600 200.000 C 299.600 200.660,299.420 201.200,299.200 201.200 C 298.953 201.200,298.800 203.267,298.800 206.600 C 298.800 209.933,298.647 212.000,298.400 212.000 C 298.178 212.000,298.000 213.067,298.000 214.400 C 298.000 215.733,297.822 216.800,297.600 216.800 C 297.380 216.800,297.200 217.689,297.200 218.776 C 297.200 219.863,297.020 220.864,296.800 221.000 C 296.580 221.136,296.400 221.856,296.400 222.600 C 296.400 223.344,296.220 224.064,296.000 224.200 C 295.780 224.336,295.600 225.056,295.600 225.800 C 295.600 226.544,295.420 227.264,295.200 227.400 C 294.980 227.536,294.800 228.166,294.800 228.800 C 294.800 229.434,294.620 230.064,294.400 230.200 C 294.180 230.336,294.000 230.887,294.000 231.424 C 294.000 231.961,293.860 232.400,293.689 232.400 C 293.349 232.400,292.000 236.632,292.000 237.696 C 292.000 238.057,291.820 238.464,291.600 238.600 C 291.380 238.736,291.200 239.197,291.200 239.624 C 291.200 240.051,291.020 240.400,290.800 240.400 C 290.580 240.400,290.400 240.760,290.400 241.200 C 290.400 241.640,290.220 242.000,290.000 242.000 C 289.780 242.000,289.600 242.270,289.600 242.600 C 289.600 242.930,289.420 243.200,289.200 243.200 C 288.980 243.200,288.800 243.560,288.800 244.000 C 288.800 244.440,288.620 244.800,288.400 244.800 C 288.180 244.800,288.000 245.160,288.000 245.600 C 288.000 246.040,287.820 246.400,287.600 246.400 C 287.380 246.400,287.200 246.760,287.200 247.200 C 287.200 247.640,287.020 248.000,286.800 248.000 C 286.580 248.000,286.400 248.320,286.400 248.712 C 286.400 249.103,286.040 249.683,285.600 250.000 C 285.160 250.317,284.800 250.857,284.800 251.200 C 284.800 251.543,284.440 252.083,284.000 252.400 C 283.560 252.717,283.200 253.297,283.200 253.688 C 283.200 254.080,283.020 254.400,282.800 254.400 C 282.580 254.400,282.400 254.688,282.400 255.040 C 282.400 255.391,281.860 256.183,281.200 256.800 C 280.540 257.417,280.000 258.085,280.000 258.286 C 280.000 258.486,279.460 259.168,278.800 259.800 C 278.140 260.432,277.600 261.095,277.600 261.272 C 277.600 261.643,276.369 263.142,274.500 265.048 C 273.785 265.777,273.200 266.562,273.200 266.793 C 273.200 267.341,267.341 273.200,266.793 273.200 C 266.562 273.200,265.777 273.785,265.048 274.500 C 263.142 276.369,261.643 277.600,261.272 277.600 C 261.095 277.600,260.432 278.140,259.800 278.800 C 259.168 279.460,258.486 280.000,258.286 280.000 C 258.085 280.000,257.417 280.540,256.800 281.200 C 256.183 281.860,255.431 282.400,255.128 282.400 C 254.825 282.400,254.317 282.760,254.000 283.200 C 253.683 283.640,253.103 284.000,252.712 284.000 C 252.320 284.000,252.000 284.180,252.000 284.400 C 252.000 284.620,251.680 284.800,251.288 284.800 C 250.897 284.800,250.317 285.160,250.000 285.600 C 249.683 286.040,249.103 286.400,248.712 286.400 C 248.320 286.400,248.000 286.580,248.000 286.800 C 248.000 287.020,247.640 287.200,247.200 287.200 C 246.760 287.200,246.400 287.380,246.400 287.600 C 246.400 287.820,246.040 288.000,245.600 288.000 C 245.160 288.000,244.800 288.180,244.800 288.400 C 244.800 288.620,244.440 288.800,244.000 288.800 C 243.560 288.800,243.200 288.980,243.200 289.200 C 243.200 289.420,242.930 289.600,242.600 289.600 C 242.270 289.600,242.000 289.780,242.000 290.000 C 242.000 290.220,241.640 290.400,241.200 290.400 C 240.760 290.400,240.400 290.580,240.400 290.800 C 240.400 291.020,240.051 291.200,239.624 291.200 C 239.197 291.200,238.736 291.380,238.600 291.600 C 238.464 291.820,238.057 292.000,237.696 292.000 C 236.632 292.000,232.400 293.349,232.400 293.689 C 232.400 293.860,231.961 294.000,231.424 294.000 C 230.887 294.000,230.336 294.180,230.200 294.400 C 230.064 294.620,229.524 294.800,229.000 294.800 C 228.476 294.800,227.936 294.980,227.800 295.200 C 227.664 295.420,226.933 295.600,226.176 295.600 C 225.419 295.600,224.800 295.780,224.800 296.000 C 224.800 296.220,224.080 296.400,223.200 296.400 C 222.320 296.400,221.600 296.580,221.600 296.800 C 221.600 297.020,220.700 297.200,219.600 297.200 C 218.500 297.200,217.600 297.380,217.600 297.600 C 217.600 297.825,216.475 298.000,215.024 298.000 C 213.607 298.000,212.336 298.180,212.200 298.400 C 212.058 298.629,209.996 298.800,207.376 298.800 C 204.592 298.800,202.800 298.957,202.800 299.200 C 202.800 299.429,201.600 299.600,200.000 299.600 C 198.400 299.600,197.200 299.429,197.200 299.200 C 197.200 298.957,195.408 298.800,192.624 298.800 C 190.004 298.800,187.942 298.629,187.800 298.400 C 187.664 298.180,186.393 298.000,184.976 298.000 C 183.525 298.000,182.400 297.825,182.400 297.600 C 182.400 297.380,181.500 297.200,180.400 297.200 C 179.300 297.200,178.400 297.020,178.400 296.800 C 178.400 296.580,177.680 296.400,176.800 296.400 C 175.920 296.400,175.200 296.220,175.200 296.000 C 175.200 295.780,174.581 295.600,173.824 295.600 C 173.067 295.600,172.336 295.420,172.200 295.200 C 172.064 294.980,171.524 294.800,171.000 294.800 C 170.476 294.800,169.936 294.620,169.800 294.400 C 169.664 294.180,169.113 294.000,168.576 294.000 C 168.039 294.000,167.600 293.860,167.600 293.689 C 167.600 293.349,163.368 292.000,162.304 292.000 C 161.943 292.000,161.536 291.820,161.400 291.600 C 161.264 291.380,160.803 291.200,160.376 291.200 C 159.949 291.200,159.600 291.020,159.600 290.800 C 159.600 290.580,159.330 290.400,159.000 290.400 C 158.670 290.400,158.400 290.220,158.400 290.000 C 158.400 289.780,158.040 289.600,157.600 289.600 C 157.160 289.600,156.800 289.420,156.800 289.200 C 156.800 288.980,156.440 288.800,156.000 288.800 C 155.560 288.800,155.200 288.620,155.200 288.400 C 155.200 288.180,154.840 288.000,154.400 288.000 C 153.960 288.000,153.600 287.820,153.600 287.600 C 153.600 287.380,153.322 287.200,152.983 287.200 C 152.644 287.200,151.980 286.840,151.508 286.400 C 151.036 285.960,150.413 285.600,150.125 285.600 C 149.836 285.600,149.600 285.420,149.600 285.200 C 149.600 284.980,149.280 284.800,148.888 284.800 C 148.497 284.800,147.917 284.440,147.600 284.000 C 147.283 283.560,146.703 283.200,146.312 283.200 C 145.920 283.200,145.600 283.020,145.600 282.800 C 145.600 282.580,145.312 282.400,144.960 282.400 C 144.609 282.400,143.817 281.860,143.200 281.200 C 142.583 280.540,141.961 280.000,141.818 280.000 C 141.674 280.000,140.981 279.461,140.278 278.802 C 139.575 278.143,138.866 277.603,138.703 277.602 C 138.305 277.599,136.723 276.245,134.145 273.700 C 132.975 272.545,131.827 271.600,131.595 271.600 C 131.052 271.600,128.400 268.957,128.400 268.415 C 128.400 268.189,127.484 267.069,126.365 265.926 C 125.246 264.783,123.316 262.487,122.077 260.824 C 120.838 259.161,119.504 257.509,119.112 257.153 C 118.720 256.797,118.400 256.252,118.400 255.941 C 118.400 255.631,118.040 255.117,117.600 254.800 C 117.160 254.483,116.800 253.943,116.800 253.600 C 116.800 253.257,116.440 252.717,116.000 252.400 C 115.560 252.083,115.200 251.503,115.200 251.112 C 115.200 250.720,115.020 250.400,114.800 250.400 C 114.580 250.400,114.400 250.080,114.400 249.688 C 114.400 249.297,114.040 248.717,113.600 248.400 C 113.160 248.083,112.800 247.503,112.800 247.112 C 112.800 246.720,112.620 246.400,112.400 246.400 C 112.180 246.400,112.000 246.040,112.000 245.600 C 112.000 245.160,111.820 244.800,111.600 244.800 C 111.380 244.800,111.200 244.440,111.200 244.000 C 111.200 243.560,111.020 243.200,110.800 243.200 C 110.580 243.200,110.400 242.930,110.400 242.600 C 110.400 242.270,110.220 242.000,110.000 242.000 C 109.780 242.000,109.600 241.460,109.600 240.800 C 109.600 240.140,109.436 239.600,109.235 239.600 C 109.034 239.600,108.749 238.880,108.600 238.000 C 108.451 237.120,108.166 236.400,107.965 236.400 C 107.764 236.400,107.600 235.961,107.600 235.424 C 107.600 234.887,107.456 234.358,107.279 234.249 C 107.103 234.140,106.707 233.128,106.400 232.000 C 106.093 230.872,105.697 229.860,105.521 229.751 C 105.344 229.642,105.200 229.034,105.200 228.400 C 105.200 227.766,105.020 227.136,104.800 227.000 C 104.580 226.864,104.400 226.133,104.400 225.376 C 104.400 224.619,104.220 224.000,104.000 224.000 C 103.780 224.000,103.600 223.280,103.600 222.400 C 103.600 221.520,103.420 220.800,103.200 220.800 C 102.980 220.800,102.800 219.821,102.800 218.624 C 102.800 217.427,102.620 216.336,102.400 216.200 C 102.180 216.064,102.000 214.984,102.000 213.800 C 102.000 212.616,101.820 211.536,101.600 211.400 C 101.349 211.245,101.200 206.996,101.200 199.976 C 101.200 192.792,101.343 188.800,101.600 188.800 C 101.822 188.800,102.000 187.733,102.000 186.400 C 102.000 185.067,102.178 184.000,102.400 184.000 C 102.622 184.000,102.800 182.933,102.800 181.600 C 102.800 180.267,102.978 179.200,103.200 179.200 C 103.420 179.200,103.600 178.480,103.600 177.600 C 103.600 176.720,103.780 176.000,104.000 176.000 C 104.220 176.000,104.400 175.381,104.400 174.624 C 104.400 173.867,104.580 173.136,104.800 173.000 C 105.020 172.864,105.200 172.324,105.200 171.800 C 105.200 171.276,105.380 170.736,105.600 170.600 C 105.820 170.464,106.000 169.924,106.000 169.400 C 106.000 168.876,106.180 168.336,106.400 168.200 C 106.620 168.064,106.800 167.513,106.800 166.976 C 106.800 166.439,106.940 166.000,107.111 166.000 C 107.419 166.000,108.800 161.812,108.800 160.880 C 108.800 160.616,108.980 160.400,109.200 160.400 C 109.420 160.400,109.600 160.040,109.600 159.600 C 109.600 159.160,109.780 158.800,110.000 158.800 C 110.220 158.800,110.400 158.440,110.400 158.000 C 110.400 157.560,110.580 157.200,110.800 157.200 C 111.020 157.200,111.200 156.840,111.200 156.400 C 111.200 155.960,111.346 155.600,111.525 155.600 C 111.704 155.600,112.098 154.970,112.400 154.200 C 112.702 153.430,113.096 152.800,113.275 152.800 C 113.454 152.800,113.600 152.440,113.600 152.000 C 113.600 151.560,113.780 151.200,114.000 151.200 C 114.220 151.200,114.400 150.880,114.400 150.488 C 114.400 150.097,114.760 149.517,115.200 149.200 C 115.640 148.883,116.000 148.303,116.000 147.912 C 116.000 147.520,116.180 147.200,116.400 147.200 C 116.620 147.200,116.800 146.880,116.800 146.488 C 116.800 146.097,117.160 145.517,117.600 145.200 C 118.040 144.883,118.400 144.375,118.400 144.072 C 118.400 143.769,118.940 143.017,119.600 142.400 C 120.260 141.783,120.800 141.115,120.800 140.914 C 120.800 140.714,121.340 140.032,122.000 139.400 C 122.660 138.768,123.200 138.098,123.200 137.911 C 123.200 137.093,137.108 123.200,137.926 123.200 C 138.122 123.200,138.846 122.660,139.537 122.000 C 140.228 121.340,140.902 120.800,141.036 120.800 C 141.170 120.800,141.783 120.260,142.400 119.600 C 143.017 118.940,143.769 118.400,144.072 118.400 C 144.375 118.400,144.883 118.040,145.200 117.600 C 145.517 117.160,146.097 116.800,146.488 116.800 C 146.880 116.800,147.200 116.620,147.200 116.400 C 147.200 116.180,147.520 116.000,147.912 116.000 C 148.303 116.000,148.883 115.640,149.200 115.200 C 149.517 114.760,150.097 114.400,150.488 114.400 C 150.880 114.400,151.200 114.220,151.200 114.000 C 151.200 113.780,151.560 113.600,152.000 113.600 C 152.440 113.600,152.801 113.465,152.801 113.300 C 152.802 113.135,153.792 112.550,155.000 112.000 C 156.208 111.450,157.198 110.865,157.199 110.700 C 157.199 110.535,157.560 110.400,158.000 110.400 C 158.440 110.400,158.800 110.220,158.800 110.000 C 158.800 109.780,159.160 109.600,159.600 109.600 C 160.040 109.600,160.400 109.420,160.400 109.200 C 160.400 108.980,160.616 108.800,160.880 108.800 C 161.812 108.800,166.000 107.419,166.000 107.111 C 166.000 106.940,166.439 106.800,166.976 106.800 C 167.513 106.800,168.064 106.620,168.200 106.400 C 168.336 106.180,168.876 106.000,169.400 106.000 C 169.924 106.000,170.464 105.820,170.600 105.600 C 170.736 105.380,171.276 105.200,171.800 105.200 C 172.324 105.200,172.864 105.020,173.000 104.800 C 173.136 104.580,173.867 104.400,174.624 104.400 C 175.381 104.400,176.000 104.220,176.000 104.000 C 176.000 103.780,176.720 103.600,177.600 103.600 C 178.480 103.600,179.200 103.420,179.200 103.200 C 179.200 102.978,180.267 102.800,181.600 102.800 C 182.933 102.800,184.000 102.622,184.000 102.400 C 184.000 102.178,185.067 102.000,186.400 102.000 C 187.733 102.000,188.800 101.822,188.800 101.600 C 188.800 101.343,192.800 101.200,200.000 101.200 C 207.200 101.200,211.200 101.343,211.200 101.600 M198.000 132.800 C 198.000 133.041,196.333 133.200,193.800 133.200 C 191.267 133.200,189.600 133.359,189.600 133.600 C 189.600 133.822,188.533 134.000,187.200 134.000 C 185.867 134.000,184.800 134.178,184.800 134.400 C 184.800 134.620,184.080 134.800,183.200 134.800 C 182.320 134.800,181.600 134.980,181.600 135.200 C 181.600 135.420,181.060 135.600,180.400 135.600 C 179.740 135.600,179.200 135.780,179.200 136.000 C 179.200 136.220,178.660 136.400,178.000 136.400 C 177.340 136.400,176.800 136.580,176.800 136.800 C 176.800 137.020,176.350 137.200,175.800 137.200 C 175.250 137.200,174.800 137.380,174.800 137.600 C 174.800 137.820,174.440 138.000,174.000 138.000 C 173.560 138.000,173.200 138.180,173.200 138.400 C 173.200 138.620,172.840 138.800,172.400 138.800 C 171.960 138.800,171.600 138.980,171.600 139.200 C 171.600 139.420,171.240 139.600,170.800 139.600 C 170.360 139.600,170.000 139.780,170.000 140.000 C 170.000 140.220,169.460 140.400,168.800 140.400 C 168.140 140.400,167.600 140.559,167.600 140.753 C 167.600 140.947,166.655 141.585,165.500 142.170 C 162.323 143.780,161.646 144.207,160.453 145.350 C 159.850 145.927,159.219 146.400,159.052 146.400 C 158.885 146.400,157.871 147.300,156.800 148.400 C 155.729 149.500,154.656 150.400,154.415 150.400 C 153.847 150.400,150.400 153.847,150.400 154.415 C 150.400 154.656,149.500 155.729,148.400 156.800 C 147.300 157.871,146.400 158.906,146.400 159.099 C 146.400 159.292,145.860 159.968,145.200 160.600 C 144.540 161.232,144.000 161.986,144.000 162.275 C 144.000 162.564,143.852 162.800,143.670 162.800 C 143.489 162.800,142.842 163.880,142.232 165.200 C 141.623 166.520,140.961 167.600,140.762 167.600 C 140.563 167.600,140.400 167.960,140.400 168.400 C 140.400 168.840,140.220 169.200,140.000 169.200 C 139.780 169.200,139.600 169.560,139.600 170.000 C 139.600 170.440,139.420 170.800,139.200 170.800 C 138.980 170.800,138.800 171.340,138.800 172.000 C 138.800 172.660,138.620 173.200,138.400 173.200 C 138.180 173.200,138.000 173.560,138.000 174.000 C 138.000 174.440,137.820 174.800,137.600 174.800 C 137.380 174.800,137.200 175.250,137.200 175.800 C 137.200 176.350,137.020 176.800,136.800 176.800 C 136.580 176.800,136.400 177.149,136.400 177.576 C 136.400 178.003,136.220 178.464,136.000 178.600 C 135.780 178.736,135.600 179.467,135.600 180.224 C 135.600 180.981,135.420 181.600,135.200 181.600 C 134.980 181.600,134.800 182.320,134.800 183.200 C 134.800 184.080,134.620 184.800,134.400 184.800 C 134.180 184.800,134.000 185.700,134.000 186.800 C 134.000 187.900,133.820 188.800,133.600 188.800 C 133.361 188.800,133.200 190.333,133.200 192.600 C 133.200 194.867,133.039 196.400,132.800 196.400 C 132.563 196.400,132.400 197.867,132.400 200.000 C 132.400 202.133,132.563 203.600,132.800 203.600 C 133.039 203.600,133.200 205.133,133.200 207.400 C 133.200 209.667,133.361 211.200,133.600 211.200 C 133.820 211.200,134.000 212.100,134.000 213.200 C 134.000 214.300,134.180 215.200,134.400 215.200 C 134.620 215.200,134.800 215.920,134.800 216.800 C 134.800 217.680,134.980 218.400,135.200 218.400 C 135.420 218.400,135.600 219.120,135.600 220.000 C 135.600 220.880,135.780 221.600,136.000 221.600 C 136.220 221.600,136.400 222.050,136.400 222.600 C 136.400 223.150,136.580 223.600,136.800 223.600 C 137.020 223.600,137.200 223.960,137.200 224.400 C 137.200 224.840,137.380 225.200,137.600 225.200 C 137.820 225.200,138.000 225.740,138.000 226.400 C 138.000 227.060,138.180 227.600,138.400 227.600 C 138.620 227.600,138.800 227.960,138.800 228.400 C 138.800 228.840,138.980 229.200,139.200 229.200 C 139.420 229.200,139.600 229.560,139.600 230.000 C 139.600 230.440,139.780 230.800,140.000 230.800 C 140.220 230.800,140.400 231.160,140.400 231.600 C 140.400 232.040,140.580 232.400,140.800 232.400 C 141.020 232.400,141.200 232.760,141.200 233.200 C 141.200 233.640,141.368 234.000,141.573 234.000 C 141.778 234.000,142.073 234.405,142.228 234.900 C 142.550 235.928,144.790 239.333,145.277 239.533 C 145.455 239.607,145.600 239.849,145.600 240.073 C 145.600 240.296,146.140 240.983,146.800 241.600 C 147.460 242.217,148.000 242.921,148.000 243.165 C 148.000 243.745,156.255 252.000,156.835 252.000 C 157.079 252.000,157.783 252.540,158.400 253.200 C 159.017 253.860,159.637 254.400,159.778 254.400 C 159.919 254.400,160.522 254.858,161.117 255.419 C 161.713 255.979,162.830 256.737,163.600 257.104 C 164.370 257.470,165.238 258.001,165.529 258.285 C 165.819 258.568,166.404 258.800,166.829 258.800 C 167.253 258.800,167.600 258.980,167.600 259.200 C 167.600 259.420,167.960 259.600,168.400 259.600 C 168.840 259.600,169.200 259.780,169.200 260.000 C 169.200 260.220,169.560 260.400,170.000 260.400 C 170.440 260.400,170.800 260.580,170.800 260.800 C 170.800 261.020,171.160 261.200,171.600 261.200 C 172.040 261.200,172.400 261.380,172.400 261.600 C 172.400 261.820,172.760 262.000,173.200 262.000 C 173.640 262.000,174.000 262.180,174.000 262.400 C 174.000 262.620,174.439 262.800,174.976 262.800 C 175.513 262.800,176.064 262.980,176.200 263.200 C 176.336 263.420,176.887 263.600,177.424 263.600 C 177.961 263.600,178.400 263.780,178.400 264.000 C 178.400 264.220,178.940 264.400,179.600 264.400 C 180.260 264.400,180.800 264.580,180.800 264.800 C 180.800 265.020,181.520 265.200,182.400 265.200 C 183.280 265.200,184.000 265.380,184.000 265.600 C 184.000 265.820,184.900 266.000,186.000 266.000 C 187.100 266.000,188.000 266.180,188.000 266.400 C 188.000 266.625,189.125 266.800,190.576 266.800 C 191.993 266.800,193.264 266.980,193.400 267.200 C 193.548 267.439,196.196 267.600,200.000 267.600 C 203.804 267.600,206.452 267.439,206.600 267.200 C 206.736 266.980,208.007 266.800,209.424 266.800 C 210.875 266.800,212.000 266.625,212.000 266.400 C 212.000 266.180,212.900 266.000,214.000 266.000 C 215.100 266.000,216.000 265.820,216.000 265.600 C 216.000 265.380,216.720 265.200,217.600 265.200 C 218.480 265.200,219.200 265.020,219.200 264.800 C 219.200 264.580,219.740 264.400,220.400 264.400 C 221.060 264.400,221.600 264.220,221.600 264.000 C 221.600 263.780,222.140 263.600,222.800 263.600 C 223.460 263.600,224.000 263.420,224.000 263.200 C 224.000 262.980,224.450 262.800,225.000 262.800 C 225.550 262.800,226.000 262.620,226.000 262.400 C 226.000 262.180,226.360 262.000,226.800 262.000 C 227.240 262.000,227.600 261.820,227.600 261.600 C 227.600 261.380,227.960 261.200,228.400 261.200 C 228.840 261.200,229.200 261.020,229.200 260.800 C 229.200 260.580,229.560 260.400,230.000 260.400 C 230.440 260.400,230.800 260.220,230.800 260.000 C 230.800 259.780,231.160 259.600,231.600 259.600 C 232.040 259.600,232.400 259.420,232.400 259.200 C 232.400 258.980,232.735 258.800,233.144 258.800 C 233.553 258.800,234.498 258.395,235.244 257.900 C 235.990 257.405,237.095 256.745,237.700 256.432 C 238.305 256.120,238.800 255.715,238.800 255.532 C 238.800 255.350,239.006 255.200,239.257 255.200 C 239.508 255.200,240.229 254.660,240.860 254.000 C 241.491 253.340,242.193 252.800,242.421 252.800 C 242.924 252.800,252.800 242.896,252.800 242.392 C 252.800 242.197,253.205 241.612,253.700 241.094 C 255.017 239.716,256.784 237.444,256.793 237.118 C 256.797 236.963,257.250 236.172,257.800 235.362 C 258.350 234.551,258.800 233.553,258.800 233.144 C 258.800 232.735,258.980 232.400,259.200 232.400 C 259.420 232.400,259.600 232.040,259.600 231.600 C 259.600 231.160,259.780 230.800,260.000 230.800 C 260.220 230.800,260.400 230.440,260.400 230.000 C 260.400 229.560,260.580 229.200,260.800 229.200 C 261.020 229.200,261.200 228.840,261.200 228.400 C 261.200 227.960,261.380 227.600,261.600 227.600 C 261.820 227.600,262.000 227.240,262.000 226.800 C 262.000 226.360,262.180 226.000,262.400 226.000 C 262.620 226.000,262.800 225.561,262.800 225.024 C 262.800 224.487,262.980 223.936,263.200 223.800 C 263.420 223.664,263.600 223.113,263.600 222.576 C 263.600 222.039,263.780 221.600,264.000 221.600 C 264.220 221.600,264.400 221.060,264.400 220.400 C 264.400 219.740,264.580 219.200,264.800 219.200 C 265.020 219.200,265.200 218.480,265.200 217.600 C 265.200 216.720,265.380 216.000,265.600 216.000 C 265.820 216.000,266.000 215.100,266.000 214.000 C 266.000 212.900,266.180 212.000,266.400 212.000 C 266.625 212.000,266.800 210.875,266.800 209.424 C 266.800 208.007,266.980 206.736,267.200 206.600 C 267.440 206.452,267.600 203.796,267.600 199.976 C 267.600 195.992,267.450 193.600,267.200 193.600 C 266.971 193.600,266.800 192.400,266.800 190.800 C 266.800 189.200,266.629 188.000,266.400 188.000 C 266.180 188.000,266.000 187.100,266.000 186.000 C 266.000 184.900,265.820 184.000,265.600 184.000 C 265.380 184.000,265.200 183.280,265.200 182.400 C 265.200 181.520,265.020 180.800,264.800 180.800 C 264.580 180.800,264.400 180.260,264.400 179.600 C 264.400 178.940,264.220 178.400,264.000 178.400 C 263.780 178.400,263.600 177.961,263.600 177.424 C 263.600 176.887,263.420 176.336,263.200 176.200 C 262.980 176.064,262.800 175.513,262.800 174.976 C 262.800 174.439,262.620 174.000,262.400 174.000 C 262.180 174.000,262.000 173.640,262.000 173.200 C 262.000 172.760,261.820 172.400,261.600 172.400 C 261.380 172.400,261.200 172.040,261.200 171.600 C 261.200 171.160,261.020 170.800,260.800 170.800 C 260.580 170.800,260.400 170.440,260.400 170.000 C 260.400 169.560,260.220 169.200,260.000 169.200 C 259.780 169.200,259.600 168.840,259.600 168.400 C 259.600 167.960,259.420 167.600,259.200 167.600 C 258.980 167.600,258.800 167.253,258.800 166.829 C 258.800 166.404,258.530 165.787,258.200 165.457 C 257.870 165.127,257.600 164.742,257.600 164.601 C 257.600 164.218,255.097 160.621,254.723 160.467 C 254.545 160.393,254.400 160.154,254.400 159.935 C 254.400 159.716,253.680 158.846,252.800 158.000 C 251.920 157.154,251.200 156.266,251.200 156.026 C 251.200 155.466,244.550 148.800,243.992 148.800 C 243.762 148.800,242.976 148.215,242.245 147.500 C 240.241 145.538,238.260 144.015,237.700 144.007 C 237.425 144.003,237.200 143.852,237.200 143.670 C 237.200 143.489,236.120 142.842,234.800 142.232 C 233.480 141.623,232.400 140.961,232.400 140.762 C 232.400 140.563,232.040 140.400,231.600 140.400 C 231.160 140.400,230.800 140.220,230.800 140.000 C 230.800 139.780,230.440 139.600,230.000 139.600 C 229.560 139.600,229.200 139.420,229.200 139.200 C 229.200 138.980,228.840 138.800,228.400 138.800 C 227.960 138.800,227.600 138.620,227.600 138.400 C 227.600 138.180,227.060 138.000,226.400 138.000 C 225.740 138.000,225.200 137.820,225.200 137.600 C 225.200 137.380,224.750 137.200,224.200 137.200 C 223.650 137.200,223.200 137.020,223.200 136.800 C 223.200 136.580,222.851 136.400,222.424 136.400 C 221.997 136.400,221.536 136.220,221.400 136.000 C 221.264 135.780,220.533 135.600,219.776 135.600 C 219.019 135.600,218.400 135.420,218.400 135.200 C 218.400 134.980,217.680 134.800,216.800 134.800 C 215.920 134.800,215.200 134.620,215.200 134.400 C 215.200 134.178,214.133 134.000,212.800 134.000 C 211.467 134.000,210.400 133.822,210.400 133.600 C 210.400 133.359,208.733 133.200,206.200 133.200 C 203.667 133.200,202.000 133.041,202.000 132.800 C 202.000 132.580,201.100 132.400,200.000 132.400 C 198.900 132.400,198.000 132.580,198.000 132.800 " stroke="none" fill="#040404" fill-rule="evenodd"></path><path id="path1" d="" stroke="none" fill="#080404" fill-rule="evenodd"></path><path id="path2" d="" stroke="none" fill="#080404" fill-rule="evenodd"></path><path id="path3" d="" stroke="none" fill="#080404" fill-rule="evenodd"></path><path id="path4" d="" stroke="none" fill="#080404" fill-rule="evenodd"></path></g></svg>