<svg id="Layer_1" data-name="Layer 1" xmlns="http://www.w3.org/2000/svg" viewBox="0 0 500 500"><defs><style>.cls-1{fill:#897559;}.cls-2{fill:#755334;}.cls-3,.cls-7{fill:none;stroke-linecap:round;stroke-linejoin:round;stroke-width:20px;}.cls-3{stroke:#000;}.cls-4{fill:#a4cd39;}.cls-5{fill:#8fb93e;}.cls-6{fill:#239957;}.cls-7{stroke:#fff;}.cls-8{fill:#fff;}</style></defs><title>kiwi</title><circle class="cls-1" cx="250" cy="250" r="239.23"/><path class="cls-2" d="M403.46,66.57A238.17,238.17,0,0,1,459.25,220c0,132.13-107.1,239.23-239.23,239.23A238.17,238.17,0,0,1,66.57,403.46,238.67,238.67,0,0,0,250,489.23c132.12,0,239.23-107.11,239.23-239.23A238.67,238.67,0,0,0,403.46,66.57Z"/><circle class="cls-3" cx="250" cy="250" r="239.23"/><circle class="cls-4" cx="250" cy="250" r="190.1"/><path class="cls-5" d="M286.61,63.5C350.72,94.05,395.14,159.26,395.14,235c0,105-85.11,190.1-190.1,190.1a190.43,190.43,0,0,1-36.62-3.6A189,189,0,0,0,250,440.1C355,440.1,440.1,355,440.1,250,440.1,157.54,374.07,80.58,286.61,63.5Z"/><circle class="cls-3" cx="250" cy="250" r="190.1"/><path class="cls-6" d="M264.74,351.75a14.74,14.74,0,0,1-29.48,0c0-8.14,6.6-31.58,14.74-31.58S264.74,343.61,264.74,351.75Z"/><path class="cls-6" d="M235.26,148.25a14.74,14.74,0,0,1,29.48,0c0,8.14-6.6,31.58-14.74,31.58S235.26,156.39,235.26,148.25Z"/><path class="cls-6" d="M148.25,264.74a14.74,14.74,0,0,1,0-29.48c8.14,0,31.58,6.6,31.58,14.74S156.39,264.74,148.25,264.74Z"/><path class="cls-6" d="M351.75,235.26a14.74,14.74,0,0,1,0,29.48c-8.14,0-31.58-6.6-31.58-14.74S343.61,235.26,351.75,235.26Z"/><path class="cls-6" d="M167.63,188.47a14.74,14.74,0,0,1,20.84-20.84c5.76,5.76,17.67,27,11.91,32.75S173.39,194.23,167.63,188.47Z"/><path class="cls-6" d="M332.37,311.53a14.74,14.74,0,0,1-20.84,20.84c-5.76-5.76-17.67-27-11.91-32.75S326.61,305.77,332.37,311.53Z"/><path class="cls-6" d="M311.53,167.63a14.74,14.74,0,0,1,20.84,20.84c-5.76,5.76-27,17.67-32.75,11.91S305.77,173.39,311.53,167.63Z"/><path class="cls-6" d="M188.47,332.37a14.74,14.74,0,0,1-20.84-20.84c5.76-5.76,27-17.67,32.75-11.91S194.23,326.61,188.47,332.37Z"/><path class="cls-7" d="M101,229.15a152.67,152.67,0,0,1,40.88-84.82"/><circle class="cls-8" cx="167.91" cy="124.7" r="14.7"/></svg>