<svg id="Layer_1" data-name="Layer 1" xmlns="http://www.w3.org/2000/svg" viewBox="0 0 500 500"><defs><style>.cls-1{fill:#f37d4b;}.cls-2{fill:#de5c36;}.cls-3,.cls-6{fill:none;stroke-linecap:round;stroke-linejoin:round;stroke-width:20px;}.cls-3{stroke:#000;}.cls-4{fill:#3bb777;}.cls-5{fill:#239957;}.cls-6{stroke:#fff;}.cls-7{fill:#fff;}</style></defs><title>orange</title><path class="cls-1" d="M487.23,250.33c0,131-106.21,237.22-237.23,237.22S12.77,381.34,12.77,250.33,119,50.24,250,50.24,487.23,119.31,487.23,250.33Z"/><path class="cls-2" d="M327.15,59.18C396.7,89.53,443.46,149,443.46,235.74c0,131-106.21,237.22-237.23,237.22a237.78,237.78,0,0,1-52.85-6.11A236.07,236.07,0,0,0,250,487.55c131,0,237.23-106.21,237.23-237.22C487.23,146.36,420.24,81.57,327.15,59.18Z"/><path class="cls-3" d="M487.23,250.33c0,131-106.21,237.22-237.23,237.22S12.77,381.34,12.77,250.33,119,50.24,250,50.24,487.23,119.31,487.23,250.33Z"/><path class="cls-3" d="M321.22,167.9S301,193.46,250,193.46s-71.22-25.56-71.22-25.56"/><path class="cls-3" d="M250,193.46s-32.13-103.95,49.33-181"/><path class="cls-4" d="M82.66,34.57c160.82-50.77,153.22,79.69,153.22,79.69S133.44,195.39,82.66,34.57Z"/><path class="cls-5" d="M82.66,34.57l153.22,79.69S133.44,195.39,82.66,34.57Z"/><path class="cls-3" d="M82.66,34.57c160.82-50.77,153.22,79.69,153.22,79.69S133.44,195.39,82.66,34.57Z"/><path class="cls-6" d="M116.54,216.54s29.6,40.75,85.52,38.32"/><circle class="cls-7" cx="96.97" cy="180.68" r="14.31"/></svg>