<?xml version="1.0" encoding="utf-8"?>
<!-- Generator: Adobe Illustrator 18.0.0, SVG Export Plug-In . SVG Version: 6.00 Build 0)  -->
<!DOCTYPE svg PUBLIC "-//W3C//DTD SVG 1.1//EN" "http://www.w3.org/Graphics/SVG/1.1/DTD/svg11.dtd">
<svg version="1.1" id="Layer_1" xmlns="http://www.w3.org/2000/svg" xmlns:xlink="http://www.w3.org/1999/xlink" x="0px" y="0px"
	 viewBox="0 0 64 64" enable-background="new 0 0 64 64" xml:space="preserve">
<path fill="#231F20" d="M34.5,14.1c1-2.8,3.5-8.1,9.2-10.3c1-0.4,1.5-1.5,1.2-2.6c-0.4-1-1.6-1.5-2.6-1.2c-4.9,1.9-8,5.5-9.8,8.8
	c-0.7-1.8-1.9-3.7-3.6-5.1C25.4,0.6,20.6,0.2,18,0.2c-0.8,0-1.3,0-1.4,0.1l-1.9,0.2l0.1,1.9c0,0.3,0.3,7.6,5.1,11.8
	c0.8,0.7,1.8,1.3,2.7,1.8C13.5,19.6,7,28.5,7,39c0,13.8,11.2,25,25,25s25-11.2,25-25C57,26.1,47.1,15.4,34.5,14.1z M19.1,4.2
	c1.9,0.1,5,0.6,7.2,2.5c2.2,1.9,3.1,4.9,3.4,6.8c-1.9-0.1-5-0.6-7.2-2.5C20.4,9.1,19.4,6.2,19.1,4.2z M32,60c-11.6,0-21-9.4-21-21
	s9.4-21,21-21s21,9.4,21,21S43.6,60,32,60z"/>
</svg>
