<?xml version="1.0" encoding="utf-8"?>
<!-- Generator: Adobe Illustrator 18.0.0, SVG Export Plug-In . SVG Version: 6.00 Build 0)  -->
<!DOCTYPE svg PUBLIC "-//W3C//DTD SVG 1.1//EN" "http://www.w3.org/Graphics/SVG/1.1/DTD/svg11.dtd">
<svg version="1.1" id="Layer_1" xmlns="http://www.w3.org/2000/svg" xmlns:xlink="http://www.w3.org/1999/xlink" x="0px" y="0px"
	 viewBox="0 0 64 64" enable-background="new 0 0 64 64" xml:space="preserve">
<g>
	<g>
		<path fill="#231F20" d="M40.9,14.6c-2.1,0-4,0.3-5.8,0.9c-0.5,0.1-0.9,0.2-1.4,0.3c0.9-2.7,3.5-9,9.9-11.5
			c1.1-0.4,1.6-1.6,1.2-2.7c-0.4-1.1-1.6-1.6-2.7-1.2C35.7,2.8,32.3,8.1,30.6,12C30,9.3,28.7,6,26,3.7c-5-4.4-12.9-3.6-12.9-3.6
			s0.2,8,5.2,12.4c1.1,1,2.3,1.7,3.6,2.2c-9.6,0.6-16.6,7.7-16.6,19.7C5.3,46.9,12.9,64,23.1,64c1.5,0,3-0.4,4.3-1.1
			c2.9-1.4,6.3-1.4,9.1,0c1.4,0.7,2.8,1.1,4.3,1.1c10.2,0,17.8-17.1,17.8-29.7C58.7,21.8,51.1,14.6,40.9,14.6z"/>
	</g>
</g>
</svg>
