<svg id="svg" version="1.1" xmlns="http://www.w3.org/2000/svg" xmlns:xlink="http://www.w3.org/1999/xlink" width="400" height="400" viewBox="0, 0, 400,400"><g id="svgg"><path id="path0" d="M214.800 37.600 C 214.800 38.328,214.533 38.400,211.827 38.400 C 209.205 38.400,208.824 38.495,208.600 39.200 C 208.387 39.871,207.995 40.000,206.173 40.000 C 204.267 40.000,204.000 40.098,204.000 40.800 C 204.000 41.511,203.733 41.600,201.600 41.600 C 199.733 41.600,199.200 41.733,199.200 42.200 C 199.200 42.622,198.774 42.800,197.763 42.800 C 196.662 42.800,196.276 42.987,196.116 43.600 C 195.957 44.206,195.570 44.400,194.516 44.400 C 193.462 44.400,193.075 44.594,192.916 45.200 C 192.759 45.801,192.370 46.000,191.353 46.000 C 190.267 46.000,190.000 46.158,190.000 46.800 C 190.000 47.333,189.733 47.600,189.200 47.600 C 188.667 47.600,188.400 47.867,188.400 48.400 C 188.400 49.067,188.133 49.200,186.800 49.200 C 185.467 49.200,185.200 49.333,185.200 50.000 C 185.200 50.533,184.933 50.800,184.400 50.800 C 183.867 50.800,183.600 51.067,183.600 51.600 C 183.600 52.133,183.333 52.400,182.800 52.400 C 182.267 52.400,182.000 52.667,182.000 53.200 C 182.000 53.733,181.733 54.000,181.200 54.000 C 180.667 54.000,180.400 54.267,180.400 54.800 C 180.400 55.333,180.133 55.600,179.600 55.600 C 179.067 55.600,178.800 55.867,178.800 56.400 C 178.800 56.933,178.533 57.200,178.000 57.200 C 177.352 57.200,177.200 57.467,177.200 58.600 C 177.200 59.614,177.024 60.000,176.563 60.000 C 176.212 60.000,175.831 60.360,175.716 60.800 C 175.601 61.240,175.258 61.600,174.953 61.600 C 174.544 61.600,174.400 62.223,174.400 64.000 C 174.400 66.133,174.311 66.400,173.600 66.400 C 172.889 66.400,172.800 66.667,172.800 68.800 C 172.800 70.933,172.711 71.200,172.000 71.200 C 171.271 71.200,171.200 71.467,171.200 74.200 C 171.200 76.933,171.129 77.200,170.400 77.200 C 169.733 77.200,169.600 77.467,169.600 78.800 C 169.600 80.133,169.467 80.400,168.800 80.400 C 168.267 80.400,168.000 80.133,168.000 79.600 C 168.000 79.067,167.733 78.800,167.200 78.800 C 166.667 78.800,166.400 78.533,166.400 78.000 C 166.400 77.333,166.133 77.200,164.800 77.200 C 163.467 77.200,163.200 77.067,163.200 76.400 C 163.200 75.867,162.933 75.600,162.400 75.600 C 161.956 75.600,161.600 75.333,161.600 75.000 C 161.600 74.567,161.156 74.400,160.000 74.400 C 158.667 74.400,158.400 74.267,158.400 73.600 C 158.400 72.952,158.133 72.800,157.000 72.800 C 155.867 72.800,155.600 72.648,155.600 72.000 C 155.600 71.289,155.333 71.200,153.200 71.200 C 151.067 71.200,150.800 71.111,150.800 70.400 C 150.800 69.621,150.533 69.600,140.600 69.600 C 130.667 69.600,130.400 69.621,130.400 70.400 C 130.400 71.129,130.133 71.200,127.400 71.200 C 124.667 71.200,124.400 71.271,124.400 72.000 C 124.400 72.711,124.133 72.800,122.000 72.800 C 119.867 72.800,119.600 72.889,119.600 73.600 C 119.600 74.267,119.333 74.400,118.000 74.400 C 116.844 74.400,116.400 74.567,116.400 75.000 C 116.400 75.422,115.974 75.600,114.963 75.600 C 113.862 75.600,113.476 75.787,113.316 76.400 C 113.201 76.840,112.841 77.200,112.516 77.200 C 112.191 77.200,111.831 77.560,111.716 78.000 C 111.560 78.597,111.170 78.800,110.180 78.800 C 109.205 78.800,108.787 79.012,108.600 79.600 C 108.411 80.195,107.995 80.400,106.973 80.400 C 105.867 80.400,105.600 80.555,105.600 81.200 C 105.600 81.733,105.333 82.000,104.800 82.000 C 104.267 82.000,104.000 82.267,104.000 82.800 C 104.000 83.333,103.733 83.600,103.200 83.600 C 102.667 83.600,102.400 83.867,102.400 84.400 C 102.400 84.933,102.133 85.200,101.600 85.200 C 101.067 85.200,100.800 85.467,100.800 86.000 C 100.800 86.533,100.533 86.800,100.000 86.800 C 99.467 86.800,99.200 87.067,99.200 87.600 C 99.200 88.133,98.933 88.400,98.400 88.400 C 97.646 88.400,97.600 88.667,97.600 93.000 C 97.600 97.333,97.646 97.600,98.400 97.600 C 98.933 97.600,99.200 97.867,99.200 98.400 C 99.200 98.933,99.467 99.200,100.000 99.200 C 100.667 99.200,100.800 99.467,100.800 100.800 C 100.800 102.133,100.933 102.400,101.600 102.400 C 102.267 102.400,102.400 102.667,102.400 104.000 C 102.400 105.333,102.533 105.600,103.200 105.600 C 103.733 105.600,104.000 105.867,104.000 106.400 C 104.000 106.933,104.267 107.200,104.800 107.200 C 105.244 107.200,105.600 107.467,105.600 107.800 C 105.600 108.133,105.956 108.400,106.400 108.400 C 107.067 108.400,107.200 108.667,107.200 110.000 C 107.200 111.122,107.371 111.600,107.773 111.600 C 108.088 111.600,108.460 111.960,108.600 112.400 C 108.740 112.840,109.112 113.200,109.427 113.200 C 109.742 113.200,110.000 113.560,110.000 114.000 C 110.000 114.533,110.267 114.800,110.800 114.800 C 111.333 114.800,111.600 115.067,111.600 115.600 C 111.600 116.133,111.867 116.400,112.400 116.400 C 112.933 116.400,113.200 116.667,113.200 117.200 C 113.200 117.733,113.467 118.000,114.000 118.000 C 114.533 118.000,114.800 118.267,114.800 118.800 C 114.800 119.333,115.067 119.600,115.600 119.600 C 116.133 119.600,116.400 119.867,116.400 120.400 C 116.400 120.933,116.667 121.200,117.200 121.200 C 117.733 121.200,118.000 121.467,118.000 122.000 C 118.000 122.667,118.267 122.800,119.600 122.800 C 120.933 122.800,121.200 122.933,121.200 123.600 C 121.200 124.133,121.467 124.400,122.000 124.400 C 122.444 124.400,122.800 124.667,122.800 125.000 C 122.800 125.419,123.222 125.600,124.200 125.600 C 125.333 125.600,125.600 125.752,125.600 126.400 C 125.600 127.067,125.867 127.200,127.200 127.200 C 128.533 127.200,128.800 127.333,128.800 128.000 C 128.800 128.711,129.067 128.800,131.200 128.800 C 133.333 128.800,133.600 128.889,133.600 129.600 C 133.600 130.381,133.867 130.400,144.600 130.400 C 155.333 130.400,155.600 130.381,155.600 129.600 C 155.600 128.897,155.867 128.800,157.800 128.800 C 159.733 128.800,160.000 128.703,160.000 128.000 C 160.000 127.289,160.267 127.200,162.400 127.200 C 164.533 127.200,164.800 127.111,164.800 126.400 C 164.800 125.733,165.067 125.600,166.400 125.600 C 167.556 125.600,168.000 125.433,168.000 125.000 C 168.000 124.578,168.426 124.400,169.437 124.400 C 170.538 124.400,170.924 124.213,171.084 123.600 C 171.243 122.994,171.630 122.800,172.684 122.800 C 173.738 122.800,174.125 122.606,174.284 122.000 C 174.399 121.560,174.742 121.200,175.047 121.200 C 175.502 121.200,175.600 122.863,175.600 130.600 C 175.600 138.689,175.516 140.000,175.000 140.000 C 174.520 140.000,174.400 140.600,174.400 143.000 C 174.400 145.733,174.329 146.000,173.600 146.000 C 172.889 146.000,172.800 146.267,172.800 148.400 C 172.800 150.533,172.711 150.800,172.000 150.800 C 171.289 150.800,171.200 151.067,171.200 153.200 C 171.200 155.333,171.111 155.600,170.400 155.600 C 169.755 155.600,169.600 155.867,169.600 156.973 C 169.600 157.995,169.395 158.411,168.800 158.600 C 168.205 158.789,168.000 159.205,168.000 160.227 C 168.000 161.333,167.845 161.600,167.200 161.600 C 166.489 161.600,166.400 161.867,166.400 164.000 C 166.400 166.133,166.311 166.400,165.600 166.400 C 164.933 166.400,164.800 166.667,164.800 168.000 C 164.800 169.333,164.667 169.600,164.000 169.600 C 163.467 169.600,163.200 169.867,163.200 170.400 C 163.200 170.933,162.933 171.200,162.400 171.200 C 161.733 171.200,161.600 171.467,161.600 172.800 C 161.600 174.133,161.467 174.400,160.800 174.400 C 160.152 174.400,160.000 174.667,160.000 175.800 C 160.000 176.749,159.815 177.200,159.427 177.200 C 159.112 177.200,158.740 177.560,158.600 178.000 C 158.460 178.440,158.088 178.800,157.773 178.800 C 157.371 178.800,157.200 179.278,157.200 180.400 C 157.200 181.733,157.067 182.000,156.400 182.000 C 155.867 182.000,155.600 182.267,155.600 182.800 C 155.600 183.333,155.333 183.600,154.800 183.600 C 154.267 183.600,154.000 183.867,154.000 184.400 C 154.000 184.933,153.733 185.200,153.200 185.200 C 152.533 185.200,152.400 185.467,152.400 186.800 C 152.400 188.133,152.267 188.400,151.600 188.400 C 151.067 188.400,150.800 188.667,150.800 189.200 C 150.800 189.733,150.533 190.000,150.000 190.000 C 149.467 190.000,149.200 190.267,149.200 190.800 C 149.200 191.333,148.933 191.600,148.400 191.600 C 147.752 191.600,147.600 191.867,147.600 193.000 C 147.600 194.133,147.448 194.400,146.800 194.400 C 146.267 194.400,146.000 194.133,146.000 193.600 C 146.000 192.933,145.733 192.800,144.400 192.800 C 143.244 192.800,142.800 192.633,142.800 192.200 C 142.800 191.781,142.378 191.600,141.400 191.600 C 140.267 191.600,140.000 191.448,140.000 190.800 C 140.000 190.133,139.733 190.000,138.400 190.000 C 137.067 190.000,136.800 189.867,136.800 189.200 C 136.800 188.533,136.533 188.400,135.200 188.400 C 133.867 188.400,133.600 188.267,133.600 187.600 C 133.600 186.889,133.333 186.800,131.200 186.800 C 129.067 186.800,128.800 186.711,128.800 186.000 C 128.800 185.271,128.533 185.200,125.800 185.200 C 123.067 185.200,122.800 185.129,122.800 184.400 C 122.800 183.667,122.533 183.600,119.600 183.600 C 116.667 183.600,116.400 183.533,116.400 182.800 C 116.400 182.014,116.133 182.000,101.600 182.000 C 87.067 182.000,86.800 182.014,86.800 182.800 C 86.800 183.533,86.533 183.600,83.600 183.600 C 80.667 183.600,80.400 183.667,80.400 184.400 C 80.400 185.129,80.133 185.200,77.400 185.200 C 74.667 185.200,74.400 185.271,74.400 186.000 C 74.400 186.667,74.133 186.800,72.800 186.800 C 71.467 186.800,71.200 186.933,71.200 187.600 C 71.200 188.311,70.933 188.400,68.800 188.400 C 66.667 188.400,66.400 188.489,66.400 189.200 C 66.400 189.867,66.133 190.000,64.800 190.000 C 63.467 190.000,63.200 190.133,63.200 190.800 C 63.200 191.467,62.933 191.600,61.600 191.600 C 60.444 191.600,60.000 191.767,60.000 192.200 C 60.000 192.619,59.578 192.800,58.600 192.800 C 57.467 192.800,57.200 192.952,57.200 193.600 C 57.200 194.133,56.933 194.400,56.400 194.400 C 55.867 194.400,55.600 194.667,55.600 195.200 C 55.600 195.867,55.333 196.000,54.000 196.000 C 52.667 196.000,52.400 196.133,52.400 196.800 C 52.400 197.333,52.133 197.600,51.600 197.600 C 51.067 197.600,50.800 197.867,50.800 198.400 C 50.800 198.933,50.533 199.200,50.000 199.200 C 49.467 199.200,49.200 199.467,49.200 200.000 C 49.200 200.667,48.933 200.800,47.600 200.800 C 46.267 200.800,46.000 200.933,46.000 201.600 C 46.000 202.133,45.733 202.400,45.200 202.400 C 44.667 202.400,44.400 202.667,44.400 203.200 C 44.400 203.733,44.133 204.000,43.600 204.000 C 43.067 204.000,42.800 204.267,42.800 204.800 C 42.800 205.244,42.533 205.600,42.200 205.600 C 41.867 205.600,41.600 205.956,41.600 206.400 C 41.600 206.933,41.333 207.200,40.800 207.200 C 40.360 207.200,40.000 207.458,40.000 207.773 C 40.000 208.088,39.640 208.460,39.200 208.600 C 38.760 208.740,38.400 209.112,38.400 209.427 C 38.400 209.742,38.040 210.000,37.600 210.000 C 37.067 210.000,36.800 210.267,36.800 210.800 C 36.800 211.333,36.533 211.600,36.000 211.600 C 35.333 211.600,35.200 211.867,35.200 213.200 C 35.200 214.533,35.067 214.800,34.400 214.800 C 33.867 214.800,33.600 215.067,33.600 215.600 C 33.600 216.133,33.333 216.400,32.800 216.400 C 32.267 216.400,32.000 216.667,32.000 217.200 C 32.000 217.733,31.733 218.000,31.200 218.000 C 30.533 218.000,30.400 218.267,30.400 219.600 C 30.400 220.933,30.267 221.200,29.600 221.200 C 29.067 221.200,28.800 221.467,28.800 222.000 C 28.800 222.533,28.533 222.800,28.000 222.800 C 27.358 222.800,27.200 223.067,27.200 224.153 C 27.200 225.170,27.001 225.559,26.400 225.716 C 25.787 225.876,25.600 226.262,25.600 227.363 C 25.600 228.374,25.422 228.800,25.000 228.800 C 24.567 228.800,24.400 229.244,24.400 230.400 C 24.400 231.733,24.267 232.000,23.600 232.000 C 22.889 232.000,22.800 232.267,22.800 234.400 C 22.800 236.533,22.711 236.800,22.000 236.800 C 21.333 236.800,21.200 237.067,21.200 238.400 C 21.200 239.733,21.067 240.000,20.400 240.000 C 19.671 240.000,19.600 240.267,19.600 243.000 C 19.600 245.733,19.529 246.000,18.800 246.000 C 18.067 246.000,18.000 246.267,18.000 249.200 C 18.000 252.133,17.933 252.400,17.200 252.400 C 16.414 252.400,16.400 252.667,16.400 267.200 C 16.400 281.733,16.414 282.000,17.200 282.000 C 17.947 282.000,18.000 282.267,18.000 286.000 C 18.000 289.733,18.053 290.000,18.800 290.000 C 19.503 290.000,19.600 290.267,19.600 292.200 C 19.600 294.133,19.697 294.400,20.400 294.400 C 21.111 294.400,21.200 294.667,21.200 296.800 C 21.200 298.933,21.289 299.200,22.000 299.200 C 22.667 299.200,22.800 299.467,22.800 300.800 C 22.800 302.133,22.933 302.400,23.600 302.400 C 24.267 302.400,24.400 302.667,24.400 304.000 C 24.400 305.156,24.567 305.600,25.000 305.600 C 25.419 305.600,25.600 306.022,25.600 307.000 C 25.600 308.133,25.752 308.400,26.400 308.400 C 27.067 308.400,27.200 308.667,27.200 310.000 C 27.200 311.333,27.333 311.600,28.000 311.600 C 28.667 311.600,28.800 311.867,28.800 313.200 C 28.800 314.533,28.933 314.800,29.600 314.800 C 30.133 314.800,30.400 315.067,30.400 315.600 C 30.400 316.133,30.667 316.400,31.200 316.400 C 31.867 316.400,32.000 316.667,32.000 318.000 C 32.000 319.333,32.133 319.600,32.800 319.600 C 33.333 319.600,33.600 319.867,33.600 320.400 C 33.600 320.933,33.867 321.200,34.400 321.200 C 34.933 321.200,35.200 321.467,35.200 322.000 C 35.200 322.533,35.467 322.800,36.000 322.800 C 36.533 322.800,36.800 323.067,36.800 323.600 C 36.800 324.133,37.067 324.400,37.600 324.400 C 38.044 324.400,38.400 324.667,38.400 325.000 C 38.400 325.333,38.756 325.600,39.200 325.600 C 39.733 325.600,40.000 325.867,40.000 326.400 C 40.000 326.933,40.267 327.200,40.800 327.200 C 41.333 327.200,41.600 327.467,41.600 328.000 C 41.600 328.444,41.867 328.800,42.200 328.800 C 42.533 328.800,42.800 329.156,42.800 329.600 C 42.800 330.133,43.067 330.400,43.600 330.400 C 44.133 330.400,44.400 330.667,44.400 331.200 C 44.400 331.733,44.667 332.000,45.200 332.000 C 45.733 332.000,46.000 332.267,46.000 332.800 C 46.000 333.333,46.267 333.600,46.800 333.600 C 47.333 333.600,47.600 333.867,47.600 334.400 C 47.600 334.933,47.867 335.200,48.400 335.200 C 48.933 335.200,49.200 335.467,49.200 336.000 C 49.200 336.667,49.467 336.800,50.800 336.800 C 52.133 336.800,52.400 336.933,52.400 337.600 C 52.400 338.133,52.667 338.400,53.200 338.400 C 53.733 338.400,54.000 338.667,54.000 339.200 C 54.000 339.867,54.267 340.000,55.600 340.000 C 56.933 340.000,57.200 340.133,57.200 340.800 C 57.200 341.252,57.467 341.600,57.813 341.600 C 58.149 341.600,58.529 341.870,58.655 342.200 C 58.797 342.570,59.405 342.800,60.243 342.800 C 61.333 342.800,61.600 342.957,61.600 343.600 C 61.600 344.267,61.867 344.400,63.200 344.400 C 64.533 344.400,64.800 344.533,64.800 345.200 C 64.800 345.911,65.067 346.000,67.200 346.000 C 69.333 346.000,69.600 346.089,69.600 346.800 C 69.600 347.467,69.867 347.600,71.200 347.600 C 72.533 347.600,72.800 347.733,72.800 348.400 C 72.800 349.103,73.067 349.200,75.000 349.200 C 76.933 349.200,77.200 349.297,77.200 350.000 C 77.200 350.733,77.467 350.800,80.400 350.800 C 83.333 350.800,83.600 350.867,83.600 351.600 C 83.600 352.366,83.867 352.400,89.800 352.400 C 95.733 352.400,96.000 352.434,96.000 353.200 C 96.000 353.962,96.267 354.000,101.600 354.000 C 106.933 354.000,107.200 353.962,107.200 353.200 C 107.200 352.434,107.467 352.400,113.400 352.400 C 119.333 352.400,119.600 352.366,119.600 351.600 C 119.600 350.871,119.867 350.800,122.600 350.800 C 125.333 350.800,125.600 350.729,125.600 350.000 C 125.600 349.289,125.867 349.200,128.000 349.200 C 130.133 349.200,130.400 349.111,130.400 348.400 C 130.400 347.689,130.667 347.600,132.800 347.600 C 134.933 347.600,135.200 347.511,135.200 346.800 C 135.200 346.133,135.467 346.000,136.800 346.000 C 138.133 346.000,138.400 345.867,138.400 345.200 C 138.400 344.533,138.667 344.400,140.000 344.400 C 141.333 344.400,141.600 344.267,141.600 343.600 C 141.600 342.952,141.867 342.800,143.000 342.800 C 143.978 342.800,144.400 342.619,144.400 342.200 C 144.400 341.767,144.844 341.600,146.000 341.600 C 147.333 341.600,147.600 341.467,147.600 340.800 C 147.600 340.267,147.867 340.000,148.400 340.000 C 148.933 340.000,149.200 339.733,149.200 339.200 C 149.200 338.533,149.467 338.400,150.800 338.400 C 152.133 338.400,152.400 338.267,152.400 337.600 C 152.400 337.067,152.667 336.800,153.200 336.800 C 153.733 336.800,154.000 336.533,154.000 336.000 C 154.000 335.467,154.267 335.200,154.800 335.200 C 155.333 335.200,155.600 334.933,155.600 334.400 C 155.600 333.752,155.867 333.600,157.000 333.600 C 158.133 333.600,158.400 333.448,158.400 332.800 C 158.400 332.267,158.667 332.000,159.200 332.000 C 159.733 332.000,160.000 331.733,160.000 331.200 C 160.000 330.667,160.267 330.400,160.800 330.400 C 161.333 330.400,161.600 330.133,161.600 329.600 C 161.600 329.067,161.867 328.800,162.400 328.800 C 162.933 328.800,163.200 328.533,163.200 328.000 C 163.200 327.467,163.467 327.200,164.000 327.200 C 164.533 327.200,164.800 326.933,164.800 326.400 C 164.800 325.867,165.067 325.600,165.600 325.600 C 166.044 325.600,166.400 325.333,166.400 325.000 C 166.400 324.667,166.756 324.400,167.200 324.400 C 167.867 324.400,168.000 324.133,168.000 322.800 C 168.000 321.467,168.133 321.200,168.800 321.200 C 169.333 321.200,169.600 320.933,169.600 320.400 C 169.600 319.867,169.867 319.600,170.400 319.600 C 170.933 319.600,171.200 319.333,171.200 318.800 C 171.200 318.267,171.467 318.000,172.000 318.000 C 172.667 318.000,172.800 317.733,172.800 316.400 C 172.800 315.067,172.933 314.800,173.600 314.800 C 174.133 314.800,174.400 314.533,174.400 314.000 C 174.400 313.556,174.667 313.200,175.000 313.200 C 175.433 313.200,175.600 312.756,175.600 311.600 C 175.600 310.267,175.733 310.000,176.400 310.000 C 177.048 310.000,177.200 309.733,177.200 308.600 C 177.200 307.467,177.352 307.200,178.000 307.200 C 178.667 307.200,178.800 306.933,178.800 305.600 C 178.800 304.267,178.933 304.000,179.600 304.000 C 180.267 304.000,180.400 303.733,180.400 302.400 C 180.400 301.067,180.533 300.800,181.200 300.800 C 181.911 300.800,182.000 300.533,182.000 298.400 C 182.000 296.267,182.089 296.000,182.800 296.000 C 183.503 296.000,183.600 295.733,183.600 293.800 C 183.600 291.867,183.697 291.600,184.400 291.600 C 185.133 291.600,185.200 291.333,185.200 288.400 C 185.200 285.467,185.267 285.200,186.000 285.200 C 186.760 285.200,186.800 284.933,186.800 279.847 C 186.800 274.830,186.850 274.480,187.600 274.284 C 188.356 274.086,188.400 273.738,188.400 268.000 C 188.400 262.262,188.356 261.914,187.600 261.716 C 186.844 261.518,186.800 261.170,186.800 255.353 C 186.800 249.467,186.765 249.200,186.000 249.200 C 185.270 249.200,185.200 248.933,185.200 246.163 C 185.200 243.462,185.111 243.102,184.400 242.916 C 183.725 242.739,183.600 242.370,183.600 240.553 C 183.600 238.667,183.501 238.400,182.800 238.400 C 182.133 238.400,182.000 238.133,182.000 236.800 C 182.000 235.467,181.867 235.200,181.200 235.200 C 180.533 235.200,180.400 234.933,180.400 233.600 C 180.400 232.267,180.267 232.000,179.600 232.000 C 178.933 232.000,178.800 231.733,178.800 230.400 C 178.800 229.067,178.667 228.800,178.000 228.800 C 177.333 228.800,177.200 228.533,177.200 227.200 C 177.200 225.867,177.067 225.600,176.400 225.600 C 175.752 225.600,175.600 225.333,175.600 224.200 C 175.600 223.222,175.419 222.800,175.000 222.800 C 174.667 222.800,174.400 222.444,174.400 222.000 C 174.400 221.467,174.133 221.200,173.600 221.200 C 172.933 221.200,172.800 220.933,172.800 219.600 C 172.800 218.267,172.667 218.000,172.000 218.000 C 171.467 218.000,171.200 217.733,171.200 217.200 C 171.200 216.667,170.933 216.400,170.400 216.400 C 169.733 216.400,169.600 216.133,169.600 214.800 C 169.600 213.467,169.467 213.200,168.800 213.200 C 168.267 213.200,168.000 212.933,168.000 212.400 C 168.000 211.867,167.733 211.600,167.200 211.600 C 166.667 211.600,166.400 211.333,166.400 210.800 C 166.400 210.267,166.133 210.000,165.600 210.000 C 165.160 210.000,164.800 209.742,164.800 209.427 C 164.800 209.112,164.440 208.740,164.000 208.600 C 163.560 208.460,163.200 208.088,163.200 207.773 C 163.200 207.458,162.840 207.200,162.400 207.200 C 161.867 207.200,161.600 206.933,161.600 206.400 C 161.600 205.867,161.333 205.600,160.800 205.600 C 160.133 205.600,160.000 205.333,160.000 204.000 C 160.000 202.667,160.133 202.400,160.800 202.400 C 161.333 202.400,161.600 202.133,161.600 201.600 C 161.600 201.067,161.867 200.800,162.400 200.800 C 162.933 200.800,163.200 200.533,163.200 200.000 C 163.200 199.467,163.467 199.200,164.000 199.200 C 164.667 199.200,164.800 198.933,164.800 197.600 C 164.800 196.267,164.933 196.000,165.600 196.000 C 166.133 196.000,166.400 195.733,166.400 195.200 C 166.400 194.667,166.667 194.400,167.200 194.400 C 167.733 194.400,168.000 194.133,168.000 193.600 C 168.000 193.067,168.267 192.800,168.800 192.800 C 169.442 192.800,169.600 192.533,169.600 191.447 C 169.600 190.430,169.799 190.041,170.400 189.884 C 170.840 189.769,171.200 189.409,171.200 189.084 C 171.200 188.759,171.560 188.399,172.000 188.284 C 172.613 188.124,172.800 187.738,172.800 186.637 C 172.800 185.467,172.948 185.200,173.600 185.200 C 174.133 185.200,174.400 184.933,174.400 184.400 C 174.400 183.956,174.667 183.600,175.000 183.600 C 175.433 183.600,175.600 183.156,175.600 182.000 C 175.600 180.667,175.733 180.400,176.400 180.400 C 177.067 180.400,177.200 180.133,177.200 178.800 C 177.200 177.467,177.333 177.200,178.000 177.200 C 178.648 177.200,178.800 176.933,178.800 175.800 C 178.800 174.667,178.952 174.400,179.600 174.400 C 180.267 174.400,180.400 174.133,180.400 172.800 C 180.400 171.467,180.533 171.200,181.200 171.200 C 181.867 171.200,182.000 170.933,182.000 169.600 C 182.000 168.267,182.133 168.000,182.800 168.000 C 183.511 168.000,183.600 167.733,183.600 165.600 C 183.600 163.467,183.689 163.200,184.400 163.200 C 185.067 163.200,185.200 162.933,185.200 161.600 C 185.200 160.267,185.333 160.000,186.000 160.000 C 186.703 160.000,186.800 159.733,186.800 157.800 C 186.800 155.867,186.897 155.600,187.600 155.600 C 188.333 155.600,188.400 155.333,188.400 152.400 C 188.400 149.467,188.467 149.200,189.200 149.200 C 189.933 149.200,190.000 148.933,190.000 146.000 C 190.000 143.067,190.067 142.800,190.800 142.800 C 191.582 142.800,191.600 142.533,191.600 131.200 L 191.600 119.600 194.600 119.600 C 197.333 119.600,197.600 119.671,197.600 120.400 C 197.600 121.111,197.867 121.200,200.000 121.200 C 202.133 121.200,202.400 121.289,202.400 122.000 C 202.400 122.711,202.667 122.800,204.800 122.800 C 206.933 122.800,207.200 122.889,207.200 123.600 C 207.200 124.248,207.467 124.400,208.600 124.400 C 209.578 124.400,210.000 124.581,210.000 125.000 C 210.000 125.433,210.444 125.600,211.600 125.600 C 212.933 125.600,213.200 125.733,213.200 126.400 C 213.200 126.933,213.467 127.200,214.000 127.200 C 214.533 127.200,214.800 127.467,214.800 128.000 C 214.800 128.667,215.067 128.800,216.400 128.800 C 217.733 128.800,218.000 128.933,218.000 129.600 C 218.000 130.267,218.267 130.400,219.600 130.400 C 220.933 130.400,221.200 130.533,221.200 131.200 C 221.200 131.733,221.467 132.000,222.000 132.000 C 222.533 132.000,222.800 132.267,222.800 132.800 C 222.800 133.333,223.067 133.600,223.600 133.600 C 224.133 133.600,224.400 133.867,224.400 134.400 C 224.400 135.048,224.667 135.200,225.800 135.200 C 226.933 135.200,227.200 135.352,227.200 136.000 C 227.200 136.533,227.467 136.800,228.000 136.800 C 228.533 136.800,228.800 137.067,228.800 137.600 C 228.800 138.133,229.067 138.400,229.600 138.400 C 230.133 138.400,230.400 138.667,230.400 139.200 C 230.400 139.717,230.667 140.000,231.153 140.000 C 231.570 140.000,232.000 140.357,232.116 140.800 C 232.231 141.240,232.612 141.600,232.963 141.600 C 233.313 141.600,233.600 141.870,233.600 142.200 C 233.600 142.533,233.956 142.800,234.400 142.800 C 234.933 142.800,235.200 143.067,235.200 143.600 C 235.200 144.133,235.467 144.400,236.000 144.400 C 236.533 144.400,236.800 144.667,236.800 145.200 C 236.800 145.733,237.067 146.000,237.600 146.000 C 238.133 146.000,238.400 146.267,238.400 146.800 C 238.400 147.333,238.667 147.600,239.200 147.600 C 239.733 147.600,240.000 147.867,240.000 148.400 C 240.000 148.933,240.267 149.200,240.800 149.200 C 241.333 149.200,241.600 149.467,241.600 150.000 C 241.600 150.440,241.849 150.800,242.153 150.800 C 242.458 150.800,242.801 151.160,242.916 151.600 C 243.031 152.040,243.412 152.400,243.763 152.400 C 244.133 152.400,244.400 152.735,244.400 153.200 C 244.400 153.733,244.667 154.000,245.200 154.000 C 245.733 154.000,246.000 154.267,246.000 154.800 C 246.000 155.333,246.267 155.600,246.800 155.600 C 247.448 155.600,247.600 155.867,247.600 157.000 C 247.600 158.133,247.752 158.400,248.400 158.400 C 248.933 158.400,249.200 158.667,249.200 159.200 C 249.200 159.733,249.467 160.000,250.000 160.000 C 250.667 160.000,250.800 160.267,250.800 161.600 C 250.800 162.933,250.933 163.200,251.600 163.200 C 252.133 163.200,252.400 163.467,252.400 164.000 C 252.400 164.533,252.667 164.800,253.200 164.800 C 253.733 164.800,254.000 165.067,254.000 165.600 C 254.000 166.133,254.267 166.400,254.800 166.400 C 255.467 166.400,255.600 166.667,255.600 168.000 C 255.600 169.333,255.733 169.600,256.400 169.600 C 257.067 169.600,257.200 169.867,257.200 171.200 C 257.200 172.322,257.371 172.800,257.773 172.800 C 258.088 172.800,258.460 173.160,258.600 173.600 C 258.740 174.040,259.112 174.400,259.427 174.400 C 259.815 174.400,260.000 174.851,260.000 175.800 C 260.000 176.933,260.152 177.200,260.800 177.200 C 261.467 177.200,261.600 177.467,261.600 178.800 C 261.600 180.133,261.733 180.400,262.400 180.400 C 263.067 180.400,263.200 180.667,263.200 182.000 C 263.200 183.333,263.333 183.600,264.000 183.600 C 264.667 183.600,264.800 183.867,264.800 185.200 C 264.800 186.533,264.933 186.800,265.600 186.800 C 266.267 186.800,266.400 187.067,266.400 188.400 C 266.400 189.733,266.533 190.000,267.200 190.000 C 267.733 190.000,268.000 190.267,268.000 190.800 C 268.000 191.467,267.733 191.600,266.400 191.600 C 265.244 191.600,264.800 191.767,264.800 192.200 C 264.800 192.680,264.203 192.800,261.827 192.800 C 259.205 192.800,258.824 192.895,258.600 193.600 C 258.411 194.195,257.995 194.400,256.973 194.400 C 255.867 194.400,255.600 194.555,255.600 195.200 C 255.600 195.911,255.333 196.000,253.200 196.000 C 251.067 196.000,250.800 196.089,250.800 196.800 C 250.800 197.467,250.533 197.600,249.200 197.600 C 247.867 197.600,247.600 197.733,247.600 198.400 C 247.600 199.067,247.333 199.200,246.000 199.200 C 244.667 199.200,244.400 199.333,244.400 200.000 C 244.400 200.648,244.133 200.800,243.000 200.800 C 241.867 200.800,241.600 200.952,241.600 201.600 C 241.600 202.133,241.333 202.400,240.800 202.400 C 240.267 202.400,240.000 202.667,240.000 203.200 C 240.000 203.867,239.733 204.000,238.400 204.000 C 237.067 204.000,236.800 204.133,236.800 204.800 C 236.800 205.333,236.533 205.600,236.000 205.600 C 235.467 205.600,235.200 205.867,235.200 206.400 C 235.200 207.067,234.933 207.200,233.600 207.200 C 232.478 207.200,232.000 207.371,232.000 207.773 C 232.000 208.088,231.640 208.460,231.200 208.600 C 230.760 208.740,230.400 209.091,230.400 209.380 C 230.400 209.670,230.040 210.001,229.600 210.116 C 229.160 210.231,228.800 210.591,228.800 210.916 C 228.800 211.241,228.440 211.601,228.000 211.716 C 227.560 211.831,227.200 212.191,227.200 212.516 C 227.200 212.841,226.840 213.201,226.400 213.316 C 225.960 213.431,225.600 213.812,225.600 214.163 C 225.600 214.513,225.330 214.800,225.000 214.800 C 224.667 214.800,224.400 215.156,224.400 215.600 C 224.400 216.133,224.133 216.400,223.600 216.400 C 223.067 216.400,222.800 216.667,222.800 217.200 C 222.800 217.733,222.533 218.000,222.000 218.000 C 221.467 218.000,221.200 218.267,221.200 218.800 C 221.200 219.333,220.933 219.600,220.400 219.600 C 219.733 219.600,219.600 219.867,219.600 221.200 C 219.600 222.533,219.467 222.800,218.800 222.800 C 218.267 222.800,218.000 223.067,218.000 223.600 C 218.000 224.133,217.733 224.400,217.200 224.400 C 216.760 224.400,216.400 224.649,216.400 224.953 C 216.400 225.258,216.040 225.601,215.600 225.716 C 214.987 225.876,214.800 226.262,214.800 227.363 C 214.800 228.533,214.652 228.800,214.000 228.800 C 213.333 228.800,213.200 229.067,213.200 230.400 C 213.200 231.733,213.067 232.000,212.400 232.000 C 211.883 232.000,211.600 232.267,211.600 232.753 C 211.600 233.170,211.243 233.600,210.800 233.716 C 210.120 233.894,210.000 234.262,210.000 236.163 C 210.000 237.808,209.853 238.400,209.443 238.400 C 208.798 238.400,208.400 239.252,208.400 240.633 C 208.400 241.226,208.168 241.600,207.800 241.600 C 207.339 241.600,207.200 242.111,207.200 243.800 C 207.200 245.733,207.103 246.000,206.400 246.000 C 205.667 246.000,205.600 246.267,205.600 249.200 C 205.600 252.133,205.533 252.400,204.800 252.400 C 204.056 252.400,204.000 252.667,204.000 256.200 C 204.000 259.733,203.944 260.000,203.200 260.000 C 202.417 260.000,202.400 260.267,202.400 272.600 C 202.400 284.933,202.417 285.200,203.200 285.200 C 203.954 285.200,204.000 285.467,204.000 289.800 C 204.000 294.133,204.046 294.400,204.800 294.400 C 205.511 294.400,205.600 294.667,205.600 296.800 C 205.600 298.933,205.689 299.200,206.400 299.200 C 207.111 299.200,207.200 299.467,207.200 301.600 C 207.200 303.378,207.344 304.000,207.754 304.000 C 208.125 304.000,208.398 304.725,208.583 306.200 C 208.772 307.711,209.036 308.400,209.429 308.400 C 209.829 308.400,210.000 308.880,210.000 310.000 C 210.000 311.333,210.133 311.600,210.800 311.600 C 211.467 311.600,211.600 311.867,211.600 313.200 C 211.600 314.533,211.733 314.800,212.400 314.800 C 213.067 314.800,213.200 315.067,213.200 316.400 C 213.200 317.733,213.333 318.000,214.000 318.000 C 214.533 318.000,214.800 318.267,214.800 318.800 C 214.800 319.333,215.067 319.600,215.600 319.600 C 216.267 319.600,216.400 319.867,216.400 321.200 C 216.400 322.533,216.533 322.800,217.200 322.800 C 217.733 322.800,218.000 323.067,218.000 323.600 C 218.000 324.133,218.267 324.400,218.800 324.400 C 219.448 324.400,219.600 324.667,219.600 325.800 C 219.600 326.933,219.752 327.200,220.400 327.200 C 220.933 327.200,221.200 327.467,221.200 328.000 C 221.200 328.533,221.467 328.800,222.000 328.800 C 222.533 328.800,222.800 329.067,222.800 329.600 C 222.800 330.133,223.067 330.400,223.600 330.400 C 224.133 330.400,224.400 330.667,224.400 331.200 C 224.400 331.644,224.667 332.000,225.000 332.000 C 225.368 332.000,225.600 332.374,225.600 332.967 C 225.600 334.348,225.998 335.200,226.643 335.200 C 226.949 335.200,227.200 335.560,227.200 336.000 C 227.200 336.533,227.467 336.800,228.000 336.800 C 228.533 336.800,228.800 337.067,228.800 337.600 C 228.800 338.117,229.067 338.400,229.553 338.400 C 229.970 338.400,230.400 338.757,230.516 339.200 C 230.676 339.813,231.062 340.000,232.163 340.000 C 233.333 340.000,233.600 340.148,233.600 340.800 C 233.600 341.333,233.867 341.600,234.400 341.600 C 234.844 341.600,235.200 341.867,235.200 342.200 C 235.200 342.533,235.556 342.800,236.000 342.800 C 236.533 342.800,236.800 343.067,236.800 343.600 C 236.800 344.133,237.067 344.400,237.600 344.400 C 238.133 344.400,238.400 344.667,238.400 345.200 C 238.400 345.867,238.667 346.000,240.000 346.000 C 241.333 346.000,241.600 346.133,241.600 346.800 C 241.600 347.244,241.867 347.600,242.200 347.600 C 242.533 347.600,242.800 347.956,242.800 348.400 C 242.800 349.067,243.067 349.200,244.400 349.200 C 245.733 349.200,246.000 349.333,246.000 350.000 C 246.000 350.533,246.267 350.800,246.800 350.800 C 247.333 350.800,247.600 351.067,247.600 351.600 C 247.600 352.267,247.867 352.400,249.200 352.400 C 250.533 352.400,250.800 352.533,250.800 353.200 C 250.800 353.867,251.067 354.000,252.400 354.000 C 253.733 354.000,254.000 354.133,254.000 354.800 C 254.000 355.467,254.267 355.600,255.600 355.600 C 256.933 355.600,257.200 355.733,257.200 356.400 C 257.200 357.103,257.467 357.200,259.400 357.200 C 261.089 357.200,261.600 357.339,261.600 357.800 C 261.600 358.267,262.133 358.400,264.000 358.400 C 266.133 358.400,266.400 358.489,266.400 359.200 C 266.400 359.911,266.667 360.000,268.800 360.000 C 270.933 360.000,271.200 360.089,271.200 360.800 C 271.200 361.554,271.467 361.600,275.800 361.600 C 280.133 361.600,280.400 361.646,280.400 362.400 C 280.400 363.184,280.667 363.200,293.800 363.200 C 306.933 363.200,307.200 363.184,307.200 362.400 C 307.200 361.656,307.467 361.600,311.000 361.600 C 314.533 361.600,314.800 361.544,314.800 360.800 C 314.800 360.089,315.067 360.000,317.200 360.000 C 319.333 360.000,319.600 359.911,319.600 359.200 C 319.600 358.489,319.867 358.400,322.000 358.400 C 323.867 358.400,324.400 358.267,324.400 357.800 C 324.400 357.339,324.911 357.200,326.600 357.200 C 328.533 357.200,328.800 357.103,328.800 356.400 C 328.800 355.733,329.067 355.600,330.400 355.600 C 331.733 355.600,332.000 355.467,332.000 354.800 C 332.000 354.133,332.267 354.000,333.600 354.000 C 334.933 354.000,335.200 353.867,335.200 353.200 C 335.200 352.533,335.467 352.400,336.800 352.400 C 338.133 352.400,338.400 352.267,338.400 351.600 C 338.400 350.933,338.667 350.800,340.000 350.800 C 341.333 350.800,341.600 350.667,341.600 350.000 C 341.600 349.556,341.867 349.200,342.200 349.200 C 342.533 349.200,342.800 348.844,342.800 348.400 C 342.800 347.733,343.067 347.600,344.400 347.600 C 345.733 347.600,346.000 347.467,346.000 346.800 C 346.000 346.267,346.267 346.000,346.800 346.000 C 347.333 346.000,347.600 345.733,347.600 345.200 C 347.600 344.667,347.867 344.400,348.400 344.400 C 348.933 344.400,349.200 344.133,349.200 343.600 C 349.200 343.067,349.467 342.800,350.000 342.800 C 350.444 342.800,350.800 342.533,350.800 342.200 C 350.800 341.767,351.244 341.600,352.400 341.600 C 353.700 341.600,354.000 341.459,354.000 340.847 C 354.000 340.430,354.357 340.000,354.800 339.884 C 355.240 339.769,355.600 339.409,355.600 339.084 C 355.600 338.759,355.960 338.399,356.400 338.284 C 356.840 338.169,357.200 337.788,357.200 337.437 C 357.200 337.087,357.470 336.800,357.800 336.800 C 358.133 336.800,358.400 336.444,358.400 336.000 C 358.400 335.467,358.667 335.200,359.200 335.200 C 359.733 335.200,360.000 334.933,360.000 334.400 C 360.000 333.867,360.267 333.600,360.800 333.600 C 361.467 333.600,361.600 333.333,361.600 332.000 C 361.600 330.667,361.733 330.400,362.400 330.400 C 362.933 330.400,363.200 330.133,363.200 329.600 C 363.200 329.067,363.467 328.800,364.000 328.800 C 364.533 328.800,364.800 328.533,364.800 328.000 C 364.800 327.467,365.067 327.200,365.600 327.200 C 366.133 327.200,366.400 326.933,366.400 326.400 C 366.400 325.867,366.667 325.600,367.200 325.600 C 367.848 325.600,368.000 325.333,368.000 324.200 C 368.000 323.067,368.152 322.800,368.800 322.800 C 369.333 322.800,369.600 322.533,369.600 322.000 C 369.600 321.467,369.867 321.200,370.400 321.200 C 371.067 321.200,371.200 320.933,371.200 319.600 C 371.200 318.267,371.333 318.000,372.000 318.000 C 372.667 318.000,372.800 317.733,372.800 316.400 C 372.800 315.067,372.933 314.800,373.600 314.800 C 374.267 314.800,374.400 314.533,374.400 313.200 C 374.400 312.044,374.567 311.600,375.000 311.600 C 375.433 311.600,375.600 311.156,375.600 310.000 C 375.600 308.667,375.733 308.400,376.400 308.400 C 377.048 308.400,377.200 308.133,377.200 307.000 C 377.200 305.867,377.352 305.600,378.000 305.600 C 378.711 305.600,378.800 305.333,378.800 303.200 C 378.800 301.067,378.889 300.800,379.600 300.800 C 380.333 300.800,380.400 300.533,380.400 297.600 C 380.400 294.667,380.467 294.400,381.200 294.400 C 381.944 294.400,382.000 294.133,382.000 290.600 C 382.000 287.067,382.056 286.800,382.800 286.800 C 383.585 286.800,383.600 286.533,383.600 272.827 C 383.600 259.205,383.580 258.848,382.800 258.600 C 382.074 258.370,382.000 257.995,382.000 254.573 C 382.000 251.067,381.943 250.800,381.200 250.800 C 380.467 250.800,380.400 250.533,380.400 247.600 C 380.400 244.667,380.333 244.400,379.600 244.400 C 378.952 244.400,378.800 244.133,378.800 243.000 C 378.800 241.867,378.648 241.600,378.000 241.600 C 377.289 241.600,377.200 241.333,377.200 239.200 C 377.200 237.067,377.111 236.800,376.400 236.800 C 375.733 236.800,375.600 236.533,375.600 235.200 C 375.600 234.044,375.433 233.600,375.000 233.600 C 374.578 233.600,374.400 233.174,374.400 232.163 C 374.400 231.062,374.213 230.676,373.600 230.516 C 373.157 230.400,372.800 229.970,372.800 229.553 C 372.800 229.067,372.517 228.800,372.000 228.800 C 371.348 228.800,371.200 228.533,371.200 227.363 C 371.200 226.262,371.013 225.876,370.400 225.716 C 369.960 225.601,369.600 225.258,369.600 224.953 C 369.600 224.649,369.240 224.400,368.800 224.400 C 368.133 224.400,368.000 224.133,368.000 222.800 C 368.000 221.467,367.867 221.200,367.200 221.200 C 366.667 221.200,366.400 220.933,366.400 220.400 C 366.400 219.867,366.133 219.600,365.600 219.600 C 365.067 219.600,364.800 219.333,364.800 218.800 C 364.800 218.267,364.533 218.000,364.000 218.000 C 363.467 218.000,363.200 217.733,363.200 217.200 C 363.200 216.667,362.933 216.400,362.400 216.400 C 361.867 216.400,361.600 216.133,361.600 215.600 C 361.600 215.067,361.333 214.800,360.800 214.800 C 360.267 214.800,360.000 214.533,360.000 214.000 C 360.000 213.467,359.733 213.200,359.200 213.200 C 358.667 213.200,358.400 212.933,358.400 212.400 C 358.400 211.956,358.133 211.600,357.800 211.600 C 357.470 211.600,357.200 211.313,357.200 210.963 C 357.200 210.612,356.840 210.231,356.400 210.116 C 355.960 210.001,355.600 209.670,355.600 209.380 C 355.600 209.091,355.240 208.740,354.800 208.600 C 354.360 208.460,354.000 208.088,354.000 207.773 C 354.000 207.371,353.522 207.200,352.400 207.200 C 351.067 207.200,350.800 207.067,350.800 206.400 C 350.800 205.867,350.533 205.600,350.000 205.600 C 349.467 205.600,349.200 205.333,349.200 204.800 C 349.200 204.133,348.933 204.000,347.600 204.000 C 346.267 204.000,346.000 203.867,346.000 203.200 C 346.000 202.667,345.733 202.400,345.200 202.400 C 344.667 202.400,344.400 202.133,344.400 201.600 C 344.400 200.958,344.133 200.800,343.047 200.800 C 342.030 200.800,341.641 200.601,341.484 200.000 C 341.324 199.387,340.938 199.200,339.837 199.200 C 338.667 199.200,338.400 199.052,338.400 198.400 C 338.400 197.733,338.133 197.600,336.800 197.600 C 335.467 197.600,335.200 197.467,335.200 196.800 C 335.200 196.133,334.933 196.000,333.600 196.000 C 332.267 196.000,332.000 195.867,332.000 195.200 C 332.000 194.489,331.733 194.400,329.600 194.400 C 327.467 194.400,327.200 194.311,327.200 193.600 C 327.200 192.871,326.933 192.800,324.200 192.800 C 321.800 192.800,321.200 192.680,321.200 192.200 C 321.200 191.717,320.578 191.600,318.000 191.600 C 315.067 191.600,314.800 191.533,314.800 190.800 C 314.800 190.040,314.533 190.000,309.400 190.000 C 304.267 190.000,304.000 189.960,304.000 189.200 C 304.000 188.421,303.733 188.400,293.800 188.400 L 283.600 188.400 283.600 186.800 C 283.600 185.467,283.467 185.200,282.800 185.200 C 282.133 185.200,282.000 184.933,282.000 183.600 C 282.000 182.267,281.867 182.000,281.200 182.000 C 280.489 182.000,280.400 181.733,280.400 179.600 C 280.400 177.467,280.311 177.200,279.600 177.200 C 278.952 177.200,278.800 176.933,278.800 175.800 C 278.800 174.667,278.648 174.400,278.000 174.400 C 277.333 174.400,277.200 174.133,277.200 172.800 C 277.200 171.467,277.067 171.200,276.400 171.200 C 275.733 171.200,275.600 170.933,275.600 169.600 C 275.600 168.504,275.426 168.000,275.047 168.000 C 274.742 168.000,274.399 167.640,274.284 167.200 C 274.169 166.760,273.788 166.400,273.437 166.400 C 272.960 166.400,272.800 165.997,272.800 164.800 C 272.800 163.467,272.667 163.200,272.000 163.200 C 271.348 163.200,271.200 162.933,271.200 161.763 C 271.200 160.662,271.013 160.276,270.400 160.116 C 269.960 160.001,269.600 159.670,269.600 159.380 C 269.600 159.091,269.240 158.740,268.800 158.600 C 268.205 158.411,268.000 157.995,268.000 156.973 C 268.000 155.867,267.845 155.600,267.200 155.600 C 266.667 155.600,266.400 155.333,266.400 154.800 C 266.400 154.267,266.133 154.000,265.600 154.000 C 264.933 154.000,264.800 153.733,264.800 152.400 C 264.800 151.067,264.667 150.800,264.000 150.800 C 263.467 150.800,263.200 150.533,263.200 150.000 C 263.200 149.467,262.933 149.200,262.400 149.200 C 261.867 149.200,261.600 148.933,261.600 148.400 C 261.600 147.867,261.333 147.600,260.800 147.600 C 260.133 147.600,260.000 147.333,260.000 146.000 C 260.000 144.667,259.867 144.400,259.200 144.400 C 258.667 144.400,258.400 144.133,258.400 143.600 C 258.400 143.156,258.133 142.800,257.800 142.800 C 257.470 142.800,257.200 142.530,257.200 142.200 C 257.200 141.867,256.844 141.600,256.400 141.600 C 255.867 141.600,255.600 141.333,255.600 140.800 C 255.600 140.267,255.333 140.000,254.800 140.000 C 254.267 140.000,254.000 139.733,254.000 139.200 C 254.000 138.667,253.733 138.400,253.200 138.400 C 252.533 138.400,252.400 138.133,252.400 136.800 C 252.400 135.467,252.267 135.200,251.600 135.200 C 251.067 135.200,250.800 134.933,250.800 134.400 C 250.800 133.867,250.533 133.600,250.000 133.600 C 249.467 133.600,249.200 133.333,249.200 132.800 C 249.200 132.267,248.933 132.000,248.400 132.000 C 247.867 132.000,247.600 131.733,247.600 131.200 C 247.600 130.667,247.333 130.400,246.800 130.400 C 246.267 130.400,246.000 130.133,246.000 129.600 C 246.000 128.933,245.733 128.800,244.400 128.800 C 243.067 128.800,242.800 128.667,242.800 128.000 C 242.800 127.556,242.533 127.200,242.200 127.200 C 241.870 127.200,241.600 126.913,241.600 126.563 C 241.600 126.212,241.240 125.831,240.800 125.716 C 240.360 125.601,240.000 125.258,240.000 124.953 C 240.000 124.649,239.640 124.400,239.200 124.400 C 238.667 124.400,238.400 124.133,238.400 123.600 C 238.400 123.067,238.133 122.800,237.600 122.800 C 237.067 122.800,236.800 122.533,236.800 122.000 C 236.800 121.333,236.533 121.200,235.200 121.200 C 233.867 121.200,233.600 121.067,233.600 120.400 C 233.600 119.867,233.333 119.600,232.800 119.600 C 232.267 119.600,232.000 119.333,232.000 118.800 C 232.000 118.133,231.733 118.000,230.400 118.000 C 229.067 118.000,228.800 117.867,228.800 117.200 C 228.800 116.667,228.533 116.400,228.000 116.400 C 227.467 116.400,227.200 116.133,227.200 115.600 C 227.200 114.958,226.933 114.800,225.847 114.800 C 224.830 114.800,224.441 114.601,224.284 114.000 C 224.124 113.387,223.738 113.200,222.637 113.200 C 221.467 113.200,221.200 113.052,221.200 112.400 C 221.200 111.867,220.933 111.600,220.400 111.600 C 219.867 111.600,219.600 111.333,219.600 110.800 C 219.600 110.089,219.333 110.000,217.200 110.000 C 215.384 110.000,214.800 109.861,214.800 109.427 C 214.800 109.112,214.440 108.740,214.000 108.600 C 213.560 108.460,213.200 108.088,213.200 107.773 C 213.200 107.458,213.560 107.200,214.000 107.200 C 214.533 107.200,214.800 106.933,214.800 106.400 C 214.800 105.733,215.067 105.600,216.400 105.600 C 217.733 105.600,218.000 105.467,218.000 104.800 C 218.000 104.267,218.267 104.000,218.800 104.000 C 219.333 104.000,219.600 103.733,219.600 103.200 C 219.600 102.667,219.867 102.400,220.400 102.400 C 220.933 102.400,221.200 102.133,221.200 101.600 C 221.200 101.067,221.467 100.800,222.000 100.800 C 222.533 100.800,222.800 100.533,222.800 100.000 C 222.800 99.467,223.067 99.200,223.600 99.200 C 224.133 99.200,224.400 98.933,224.400 98.400 C 224.400 97.956,224.667 97.600,225.000 97.600 C 225.333 97.600,225.600 97.244,225.600 96.800 C 225.600 96.267,225.867 96.000,226.400 96.000 C 226.933 96.000,227.200 95.733,227.200 95.200 C 227.200 94.667,227.467 94.400,228.000 94.400 C 228.648 94.400,228.800 94.133,228.800 93.000 C 228.800 91.867,228.952 91.600,229.600 91.600 C 230.267 91.600,230.400 91.333,230.400 90.000 C 230.400 88.667,230.533 88.400,231.200 88.400 C 231.867 88.400,232.000 88.133,232.000 86.800 C 232.000 85.467,232.133 85.200,232.800 85.200 C 233.547 85.200,233.600 84.933,233.600 81.200 C 233.600 77.467,233.653 77.200,234.400 77.200 C 235.173 77.200,235.200 76.933,235.200 69.400 C 235.200 61.867,235.173 61.600,234.400 61.600 C 233.640 61.600,233.600 61.333,233.600 56.200 C 233.600 51.067,233.560 50.800,232.800 50.800 C 232.089 50.800,232.000 50.533,232.000 48.400 C 232.000 46.267,231.911 46.000,231.200 46.000 C 230.497 46.000,230.400 45.733,230.400 43.800 C 230.400 41.867,230.303 41.600,229.600 41.600 C 228.933 41.600,228.800 41.333,228.800 40.000 C 228.800 38.667,228.667 38.400,228.000 38.400 C 227.467 38.400,227.200 38.133,227.200 37.600 C 227.200 36.834,226.933 36.800,221.000 36.800 C 215.067 36.800,214.800 36.834,214.800 37.600 M216.761 53.700 C 218.914 59.327,219.451 75.270,217.641 79.800 C 214.377 87.970,210.525 91.943,201.800 96.139 C 198.429 97.760,191.993 100.000,190.707 100.000 C 190.289 100.000,189.577 100.198,189.125 100.440 C 187.762 101.170,186.788 99.771,186.128 96.138 C 183.992 84.369,184.244 78.756,187.268 70.800 C 189.645 64.546,199.211 56.961,207.408 54.832 C 208.284 54.604,210.260 54.064,211.800 53.632 C 215.532 52.584,216.339 52.596,216.761 53.700 M144.323 84.044 C 151.766 85.804,159.106 91.039,164.770 98.628 C 165.744 99.933,167.020 101.630,167.606 102.400 C 170.132 105.722,170.089 106.519,167.293 108.238 C 166.252 108.878,165.040 109.627,164.600 109.903 C 153.355 116.943,139.617 118.295,131.938 113.116 C 131.354 112.722,130.756 112.400,130.608 112.400 C 129.089 112.400,119.941 103.165,116.642 98.301 C 116.083 97.477,115.242 96.284,114.773 95.649 C 114.080 94.712,114.004 94.340,114.367 93.661 C 114.790 92.871,122.426 88.331,125.000 87.340 C 130.588 85.188,132.201 84.684,135.000 84.215 C 139.064 83.534,141.945 83.482,144.323 84.044 M108.400 197.653 C 113.612 200.816,126.800 215.311,126.800 217.876 C 126.800 218.020,127.038 218.421,127.329 218.769 C 127.620 219.116,128.349 220.570,128.949 222.000 C 129.550 223.430,130.192 224.882,130.378 225.226 C 133.236 230.540,133.866 242.939,131.672 250.693 C 129.511 258.328,130.797 261.710,136.234 262.696 C 142.169 263.772,145.320 259.415,147.005 247.800 C 148.840 235.150,146.247 222.428,139.479 210.881 C 137.670 207.794,137.352 206.800,138.173 206.800 C 138.518 206.800,138.800 206.980,138.800 207.200 C 138.800 207.420,139.038 207.600,139.329 207.600 C 141.101 207.600,151.240 216.583,156.485 222.800 C 167.622 235.999,173.465 254.735,172.066 272.756 C 171.504 279.997,169.849 287.766,168.007 291.800 C 167.806 292.240,167.158 293.860,166.566 295.400 C 162.492 306.001,153.761 316.618,141.800 325.517 C 138.841 327.719,128.516 333.200,127.327 333.200 C 127.031 333.200,126.477 333.377,126.095 333.594 C 123.398 335.123,114.408 337.177,108.400 337.637 C 89.525 339.080,72.432 333.965,58.000 322.555 C 51.653 317.537,43.724 308.355,40.099 301.824 C 37.242 296.677,35.096 291.477,33.649 286.200 C 25.551 256.646,38.783 222.777,64.310 207.721 C 68.740 205.109,70.911 203.922,72.659 203.160 C 77.257 201.155,80.244 200.003,80.850 200.001 C 81.207 200.001,82.287 199.718,83.250 199.373 C 84.860 198.796,88.736 197.952,93.200 197.207 C 97.582 196.476,106.912 196.749,108.400 197.653 M301.600 204.201 C 313.826 205.308,330.970 210.714,336.031 215.058 C 336.379 215.356,336.786 215.600,336.936 215.600 C 338.613 215.600,351.982 227.531,354.278 231.077 C 354.675 231.690,355.929 233.432,357.065 234.948 C 358.201 236.463,359.973 239.435,361.002 241.552 C 362.032 243.668,363.037 245.713,363.237 246.095 C 368.843 256.820,370.156 277.789,366.137 292.400 C 364.706 297.601,361.098 306.763,359.837 308.400 C 359.583 308.730,358.940 309.810,358.410 310.800 C 354.470 318.148,345.847 328.013,338.797 333.235 C 335.908 335.376,333.127 337.249,332.278 337.628 C 331.795 337.843,330.680 338.447,329.800 338.971 C 323.809 342.535,317.075 345.027,306.800 347.483 C 302.369 348.542,283.971 348.534,279.600 347.470 C 277.950 347.069,275.430 346.469,274.000 346.137 C 252.687 341.185,228.343 319.929,222.994 301.600 C 222.833 301.050,222.572 300.420,222.412 300.200 C 221.488 298.926,219.065 289.485,218.152 283.600 C 215.830 268.640,219.636 249.089,226.977 238.273 C 227.539 237.443,228.000 236.675,228.000 236.566 C 228.000 234.179,245.427 216.800,247.821 216.800 C 248.103 216.800,248.393 216.665,248.467 216.500 C 248.773 215.810,254.270 212.844,260.200 210.169 C 263.319 208.761,267.737 207.518,268.930 207.711 C 270.166 207.912,271.594 208.568,277.665 211.727 C 289.446 217.856,298.812 226.207,305.563 236.600 C 308.154 240.589,311.791 248.878,312.583 252.600 C 313.746 258.065,321.846 259.218,325.384 254.422 C 330.730 247.176,312.695 216.899,297.131 206.990 C 295.576 206.001,294.400 204.618,294.400 203.781 C 294.400 203.539,294.103 203.522,301.600 204.201 " stroke="none" fill="#1e1514" fill-rule="evenodd"></path><path id="path1" d="M229.792 261.140 C 225.794 262.427,224.828 266.882,226.396 276.800 C 226.866 279.774,227.419 282.154,229.786 291.400 C 230.266 293.276,230.625 294.207,232.401 298.200 C 232.793 299.080,233.504 300.700,233.981 301.800 C 234.459 302.900,235.022 304.070,235.233 304.400 C 235.444 304.730,235.902 305.630,236.252 306.400 C 236.601 307.170,237.408 308.574,238.044 309.520 C 238.680 310.466,239.200 311.324,239.200 311.426 C 239.200 312.688,250.932 324.800,252.155 324.800 C 252.303 324.800,253.334 325.520,254.448 326.400 C 255.561 327.280,256.704 328.000,256.987 328.000 C 257.270 328.000,257.717 328.258,257.979 328.574 C 258.241 328.890,258.970 329.262,259.600 329.400 C 260.230 329.538,260.950 329.898,261.200 330.200 C 261.450 330.502,262.228 330.871,262.928 331.020 C 263.627 331.170,264.395 331.449,264.633 331.640 C 265.378 332.237,271.942 334.000,273.422 334.000 C 277.725 334.000,280.962 329.795,279.762 325.761 C 279.230 323.971,277.643 322.000,276.734 322.000 C 276.418 322.000,275.960 321.800,275.715 321.555 C 275.470 321.310,274.399 320.950,273.335 320.755 C 271.232 320.370,270.765 320.179,265.400 317.505 C 259.030 314.331,251.374 306.583,248.103 300.000 C 247.829 299.450,247.431 298.730,247.218 298.400 C 247.005 298.070,246.353 296.720,245.771 295.400 C 245.188 294.080,244.371 292.268,243.955 291.374 C 243.540 290.479,243.200 289.390,243.200 288.954 C 243.200 288.517,243.018 287.978,242.795 287.755 C 242.410 287.370,241.588 284.193,240.737 279.800 C 240.524 278.700,240.089 276.540,239.771 275.000 C 239.453 273.460,239.093 270.760,238.971 269.000 C 238.668 264.641,238.590 264.357,237.299 262.910 C 235.578 260.983,232.520 260.262,229.792 261.140 M43.800 261.487 C 41.027 262.161,38.822 266.750,39.516 270.400 C 40.428 275.188,42.542 282.838,43.220 283.800 C 43.375 284.020,43.636 284.650,43.799 285.200 C 44.442 287.368,47.074 292.813,49.204 296.386 C 51.072 299.516,51.619 300.336,52.400 301.179 C 52.730 301.535,53.799 302.900,54.775 304.213 C 60.258 311.588,69.993 318.472,78.200 320.777 C 79.960 321.271,82.244 321.929,83.275 322.238 C 85.736 322.976,86.360 322.949,88.460 322.021 C 93.750 319.680,93.972 314.414,88.948 310.418 C 88.700 310.220,87.448 309.865,86.167 309.628 C 84.885 309.391,83.658 309.018,83.439 308.799 C 83.219 308.579,82.688 308.400,82.259 308.400 C 78.089 308.400,64.791 297.703,62.577 292.568 C 62.285 291.891,61.777 291.113,61.449 290.841 C 61.120 290.568,60.736 289.817,60.594 289.172 C 60.452 288.528,60.203 288.000,60.040 288.000 C 59.876 288.000,59.329 287.055,58.824 285.900 C 58.319 284.745,57.477 282.833,56.953 281.652 C 56.429 280.470,55.994 279.300,55.986 279.052 C 55.979 278.803,55.625 277.880,55.200 277.000 C 54.775 276.120,54.421 275.124,54.414 274.786 C 54.406 274.449,54.040 273.148,53.600 271.896 C 53.160 270.644,52.800 268.956,52.800 268.145 C 52.800 263.806,48.215 260.414,43.800 261.487 " stroke="none" fill="#f8f1f1" fill-rule="evenodd"></path><path id="path2" d="M94.800 197.199 C 75.890 199.294,58.655 208.873,46.579 224.000 C 43.292 228.117,37.600 237.248,37.600 238.403 C 37.600 238.610,37.252 239.548,36.826 240.489 C 27.699 260.655,30.143 287.220,42.844 305.900 C 43.480 306.835,44.581 308.455,45.290 309.500 C 46.000 310.545,48.956 313.740,51.859 316.600 C 57.648 322.304,57.826 322.462,60.413 324.200 C 61.396 324.860,62.380 325.538,62.600 325.706 C 67.997 329.829,78.667 334.477,87.200 336.421 C 94.161 338.007,111.278 338.220,115.079 336.768 C 115.695 336.532,117.190 336.158,118.400 335.936 C 120.790 335.496,124.657 334.300,126.660 333.379 C 127.354 333.061,128.104 332.800,128.327 332.800 C 132.466 332.800,149.017 320.750,155.523 313.000 C 158.164 309.854,161.251 305.514,162.635 303.000 C 162.878 302.560,163.559 301.347,164.148 300.305 C 164.738 299.262,165.775 297.024,166.453 295.330 C 167.132 293.636,167.844 291.969,168.037 291.625 C 170.750 286.789,172.786 271.589,172.007 262.000 C 171.021 249.877,166.272 235.768,160.844 228.841 C 160.224 228.048,159.483 226.950,159.199 226.400 C 158.639 225.317,155.071 221.088,151.826 217.660 C 149.455 215.156,142.729 209.596,140.528 208.321 C 139.688 207.834,138.885 207.270,138.745 207.067 C 138.341 206.482,137.609 207.157,137.880 207.864 C 138.014 208.215,138.997 210.017,140.062 211.869 C 141.128 213.721,142.000 215.313,142.000 215.406 C 142.000 215.500,142.421 216.527,142.936 217.688 C 150.429 234.595,148.493 260.405,139.551 262.813 C 133.125 264.544,129.218 259.500,131.247 252.093 C 132.642 246.999,132.759 246.358,133.018 242.400 C 133.629 233.055,130.605 223.141,124.310 213.848 C 121.064 209.057,112.328 200.175,108.849 198.129 C 106.769 196.906,100.928 196.519,94.800 197.199 M294.400 204.025 C 294.400 204.564,296.612 206.588,299.180 208.400 C 314.669 219.327,330.801 248.233,325.092 254.831 C 321.080 259.469,313.895 257.941,312.434 252.139 C 309.784 241.613,302.945 231.171,292.431 221.600 C 287.744 217.333,273.455 208.915,269.314 207.981 C 267.054 207.471,263.857 208.557,255.200 212.773 C 235.235 222.497,222.808 239.178,218.378 262.200 C 216.998 269.371,217.748 285.072,219.783 291.600 C 220.091 292.590,220.461 293.989,220.605 294.708 C 221.277 298.062,226.071 308.713,228.661 312.600 C 234.166 320.866,241.303 328.616,247.795 333.377 C 253.145 337.300,258.904 340.620,264.200 342.833 C 267.892 344.376,270.339 345.188,273.600 345.954 C 275.690 346.445,278.570 347.135,280.000 347.487 C 283.311 348.304,298.133 348.675,302.200 348.042 C 311.598 346.581,317.350 345.002,322.800 342.390 C 330.363 338.764,333.081 337.264,335.800 335.214 C 336.900 334.384,338.326 333.371,338.969 332.962 C 342.214 330.896,349.492 323.577,353.050 318.800 C 359.886 309.624,365.785 296.765,366.996 288.400 C 367.140 287.410,367.524 285.256,367.850 283.613 C 368.813 278.762,368.704 267.234,367.644 261.800 C 366.567 256.284,365.207 250.725,364.805 250.200 C 364.636 249.980,364.367 249.350,364.208 248.800 C 363.752 247.232,361.104 241.518,359.666 239.000 C 355.118 231.039,345.041 220.469,337.885 216.155 C 333.510 213.517,332.956 213.200,332.012 212.786 C 331.468 212.548,329.758 211.752,328.212 211.018 C 321.720 207.938,311.173 205.135,303.400 204.423 C 296.671 203.807,294.400 203.707,294.400 204.025 M235.500 260.266 C 239.125 262.301,239.738 263.895,240.855 274.200 C 241.093 276.400,241.447 278.501,241.641 278.868 C 241.835 279.235,242.177 280.827,242.401 282.406 C 242.625 283.984,243.076 285.659,243.404 286.127 C 243.732 286.595,244.000 287.346,244.000 287.795 C 244.000 288.244,244.360 289.284,244.800 290.104 C 245.240 290.925,245.600 291.885,245.600 292.237 C 245.600 292.589,245.864 293.354,246.187 293.938 C 246.511 294.522,247.050 295.630,247.387 296.400 C 247.723 297.170,248.356 298.340,248.793 299.000 C 249.230 299.660,249.767 300.608,249.986 301.106 C 250.893 303.169,254.647 307.938,257.377 310.495 C 260.516 313.436,260.195 313.182,263.960 315.694 C 264.532 316.076,265.450 316.576,266.000 316.805 C 266.550 317.034,267.540 317.467,268.200 317.768 C 269.980 318.579,273.640 319.889,274.933 320.179 C 281.979 321.754,283.424 330.487,277.200 333.878 C 275.075 335.036,269.960 335.020,267.695 333.849 C 267.004 333.492,266.136 333.200,265.764 333.200 C 264.527 333.200,256.090 329.044,253.850 327.332 C 253.324 326.929,252.495 326.330,252.009 326.000 C 249.448 324.260,248.000 323.092,248.000 322.765 C 248.000 322.564,247.713 322.400,247.363 322.400 C 247.012 322.400,246.631 322.040,246.516 321.600 C 246.401 321.160,246.132 320.800,245.917 320.800 C 245.336 320.800,243.200 318.679,243.200 318.101 C 243.200 317.826,242.942 317.600,242.627 317.600 C 242.312 317.600,241.940 317.240,241.800 316.800 C 241.660 316.360,241.374 316.000,241.163 316.000 C 240.953 316.000,240.609 315.550,240.400 315.000 C 240.191 314.450,239.857 314.000,239.658 314.000 C 239.460 314.000,239.073 313.460,238.800 312.800 C 238.527 312.140,238.155 311.600,237.973 311.600 C 237.612 311.600,236.788 310.229,235.748 307.900 C 235.380 307.075,234.940 306.400,234.771 306.400 C 234.602 306.400,234.348 305.872,234.206 305.228 C 234.064 304.583,233.702 303.850,233.400 303.600 C 233.098 303.350,232.726 302.572,232.574 301.872 C 232.421 301.173,231.959 300.171,231.548 299.646 C 231.137 299.121,230.800 298.279,230.800 297.775 C 230.800 297.270,230.535 296.592,230.211 296.268 C 229.887 295.944,229.503 294.896,229.358 293.940 C 229.213 292.983,228.867 291.930,228.590 291.600 C 228.313 291.270,227.955 290.010,227.795 288.800 C 227.634 287.590,227.327 286.488,227.112 286.352 C 226.896 286.215,226.534 284.685,226.308 282.952 C 226.081 281.218,225.634 279.200,225.313 278.467 C 224.893 277.505,224.713 275.328,224.665 270.654 L 224.600 264.174 225.930 262.492 C 228.472 259.276,232.193 258.410,235.500 260.266 M47.539 260.424 C 49.960 260.943,52.999 263.689,53.391 265.710 C 54.146 269.613,55.337 274.326,55.790 275.200 C 56.075 275.750,56.441 276.830,56.605 277.600 C 56.768 278.370,57.149 279.355,57.451 279.789 C 57.753 280.223,58.006 280.853,58.013 281.189 C 58.019 281.525,58.468 282.700,59.009 283.800 C 59.550 284.900,59.994 286.025,59.996 286.300 C 59.998 286.575,60.153 286.800,60.339 286.800 C 60.526 286.800,60.970 287.475,61.326 288.300 C 62.084 290.058,62.341 290.466,65.035 294.188 C 67.057 296.981,70.708 300.851,72.406 302.000 C 72.894 302.330,73.749 302.949,74.306 303.376 C 77.167 305.566,82.171 307.658,87.400 308.849 C 90.666 309.593,93.942 313.254,93.983 316.206 C 94.010 318.115,91.377 322.400,90.177 322.400 C 89.913 322.400,89.474 322.670,89.200 323.000 C 87.329 325.254,71.538 320.714,66.769 316.551 C 66.421 316.248,65.996 316.000,65.824 316.000 C 64.842 316.000,55.688 307.316,53.387 304.200 C 52.736 303.320,52.111 302.510,51.996 302.400 C 51.362 301.793,48.000 296.468,48.000 296.071 C 48.000 295.812,47.811 295.600,47.580 295.600 C 47.348 295.600,46.888 295.015,46.556 294.300 C 46.224 293.585,45.695 292.550,45.382 292.000 C 45.068 291.450,44.809 290.704,44.806 290.343 C 44.803 289.981,44.530 289.582,44.200 289.455 C 43.870 289.329,43.594 288.904,43.587 288.513 C 43.581 288.121,43.132 286.900,42.591 285.800 C 42.050 284.700,41.600 283.440,41.591 283.000 C 41.582 282.560,41.310 281.851,40.987 281.424 C 40.664 280.996,40.392 280.276,40.382 279.824 C 40.373 279.371,40.097 278.280,39.770 277.400 C 35.900 266.992,39.677 258.738,47.539 260.424 " stroke="none" fill="#cf0909" fill-rule="evenodd"></path><path id="path3" d="M211.800 53.632 C 210.260 54.064,208.284 54.604,207.408 54.832 C 199.211 56.961,189.645 64.546,187.268 70.800 C 184.822 77.236,184.133 83.786,185.187 90.600 C 186.572 99.555,187.314 101.409,189.125 100.440 C 189.577 100.198,190.289 100.000,190.707 100.000 C 191.993 100.000,198.429 97.760,201.800 96.139 C 210.525 91.943,214.377 87.970,217.641 79.800 C 219.451 75.270,218.914 59.327,216.761 53.700 C 216.339 52.596,215.532 52.584,211.800 53.632 M135.000 84.215 C 132.201 84.684,130.588 85.188,125.000 87.340 C 122.426 88.331,114.790 92.871,114.367 93.661 C 114.004 94.340,114.080 94.712,114.773 95.649 C 115.242 96.284,116.083 97.477,116.642 98.301 C 119.941 103.165,129.089 112.400,130.608 112.400 C 130.756 112.400,131.354 112.722,131.938 113.116 C 139.617 118.295,153.355 116.943,164.600 109.903 C 165.040 109.627,166.252 108.878,167.293 108.238 C 170.089 106.519,170.132 105.722,167.606 102.400 C 167.020 101.630,165.744 99.933,164.770 98.628 C 156.207 87.156,146.243 82.332,135.000 84.215 M95.505 197.083 C 96.002 197.179,96.722 197.175,97.105 197.075 C 97.487 196.975,97.080 196.896,96.200 196.901 C 95.320 196.905,95.007 196.987,95.505 197.083 M31.301 261.800 C 31.305 262.680,31.387 262.993,31.483 262.495 C 31.579 261.998,31.575 261.278,31.475 260.895 C 31.375 260.513,31.296 260.920,31.301 261.800 M217.344 273.600 C 217.344 275.690,217.412 276.545,217.494 275.500 C 217.576 274.455,217.576 272.745,217.494 271.700 C 217.412 270.655,217.344 271.510,217.344 273.600 M31.301 273.400 C 31.305 274.280,31.387 274.593,31.483 274.095 C 31.579 273.598,31.575 272.878,31.475 272.495 C 31.375 272.113,31.296 272.520,31.301 273.400 M368.493 274.800 C 368.493 275.570,368.575 275.885,368.676 275.500 C 368.776 275.115,368.776 274.485,368.676 274.100 C 368.575 273.715,368.493 274.030,368.493 274.800 " stroke="none" fill="#6abc1a" fill-rule="evenodd"></path><path id="path4" d="M230.600 259.474 C 228.759 259.890,227.180 260.910,225.930 262.492 L 224.600 264.174 224.665 270.654 C 224.713 275.328,224.893 277.505,225.313 278.467 C 225.634 279.200,226.081 281.218,226.308 282.952 C 226.534 284.685,226.896 286.215,227.112 286.352 C 227.327 286.488,227.634 287.590,227.795 288.800 C 227.955 290.010,228.313 291.270,228.590 291.600 C 228.867 291.930,229.213 292.983,229.358 293.940 C 229.503 294.896,229.887 295.944,230.211 296.268 C 230.535 296.592,230.800 297.270,230.800 297.775 C 230.800 298.279,231.137 299.121,231.548 299.646 C 231.959 300.171,232.421 301.173,232.574 301.872 C 232.726 302.572,233.098 303.350,233.400 303.600 C 233.702 303.850,234.064 304.583,234.206 305.228 C 234.348 305.872,234.602 306.400,234.771 306.400 C 234.940 306.400,235.380 307.075,235.748 307.900 C 236.788 310.229,237.612 311.600,237.973 311.600 C 238.155 311.600,238.527 312.140,238.800 312.800 C 239.073 313.460,239.460 314.000,239.658 314.000 C 239.857 314.000,240.191 314.450,240.400 315.000 C 240.609 315.550,240.953 316.000,241.163 316.000 C 241.374 316.000,241.660 316.360,241.800 316.800 C 241.940 317.240,242.312 317.600,242.627 317.600 C 242.942 317.600,243.200 317.826,243.200 318.101 C 243.200 318.679,245.336 320.800,245.917 320.800 C 246.132 320.800,246.401 321.160,246.516 321.600 C 246.631 322.040,247.012 322.400,247.363 322.400 C 247.713 322.400,248.000 322.564,248.000 322.765 C 248.000 323.092,249.448 324.260,252.009 326.000 C 252.495 326.330,253.324 326.929,253.850 327.332 C 256.090 329.044,264.527 333.200,265.764 333.200 C 266.136 333.200,267.004 333.492,267.695 333.849 C 269.960 335.020,275.075 335.036,277.200 333.878 C 283.424 330.487,281.979 321.754,274.933 320.179 C 273.640 319.889,269.980 318.579,268.200 317.768 C 267.540 317.467,266.550 317.034,266.000 316.805 C 265.450 316.576,264.532 316.076,263.960 315.694 C 260.195 313.182,260.516 313.436,257.377 310.495 C 254.647 307.938,250.893 303.169,249.986 301.106 C 249.767 300.608,249.230 299.660,248.793 299.000 C 248.356 298.340,247.723 297.170,247.387 296.400 C 247.050 295.630,246.511 294.522,246.187 293.938 C 245.864 293.354,245.600 292.589,245.600 292.237 C 245.600 291.885,245.240 290.925,244.800 290.104 C 244.360 289.284,244.000 288.244,244.000 287.795 C 244.000 287.346,243.732 286.595,243.404 286.127 C 243.076 285.659,242.625 283.984,242.401 282.406 C 242.177 280.827,241.835 279.235,241.641 278.868 C 241.447 278.501,241.093 276.400,240.855 274.200 C 240.094 267.184,239.346 263.704,238.333 262.469 C 236.413 260.130,233.201 258.886,230.600 259.474 M43.475 260.406 C 38.453 261.914,36.811 269.443,39.770 277.400 C 40.097 278.280,40.373 279.371,40.382 279.824 C 40.392 280.276,40.664 280.996,40.987 281.424 C 41.310 281.851,41.582 282.560,41.591 283.000 C 41.600 283.440,42.050 284.700,42.591 285.800 C 43.132 286.900,43.581 288.121,43.587 288.513 C 43.594 288.904,43.870 289.329,44.200 289.455 C 44.530 289.582,44.803 289.981,44.806 290.343 C 44.809 290.704,45.068 291.450,45.382 292.000 C 45.695 292.550,46.224 293.585,46.556 294.300 C 46.888 295.015,47.348 295.600,47.580 295.600 C 47.811 295.600,48.000 295.812,48.000 296.071 C 48.000 296.468,51.362 301.793,51.996 302.400 C 52.111 302.510,52.736 303.320,53.387 304.200 C 55.688 307.316,64.842 316.000,65.824 316.000 C 65.996 316.000,66.421 316.248,66.769 316.551 C 71.538 320.714,87.329 325.254,89.200 323.000 C 89.474 322.670,89.913 322.400,90.177 322.400 C 91.377 322.400,94.010 318.115,93.983 316.206 C 93.942 313.254,90.666 309.593,87.400 308.849 C 82.171 307.658,77.167 305.566,74.306 303.376 C 73.749 302.949,72.894 302.330,72.406 302.000 C 70.708 300.851,67.057 296.981,65.035 294.188 C 62.341 290.466,62.084 290.058,61.326 288.300 C 60.970 287.475,60.526 286.800,60.339 286.800 C 60.153 286.800,59.998 286.575,59.996 286.300 C 59.994 286.025,59.550 284.900,59.009 283.800 C 58.468 282.700,58.019 281.525,58.013 281.189 C 58.006 280.853,57.753 280.223,57.451 279.789 C 57.149 279.355,56.768 278.370,56.605 277.600 C 56.441 276.830,56.075 275.750,55.790 275.200 C 55.337 274.326,54.146 269.613,53.391 265.710 C 52.707 262.176,47.270 259.267,43.475 260.406 M235.058 261.222 C 237.740 262.242,238.624 263.998,238.971 269.000 C 239.093 270.760,239.453 273.460,239.771 275.000 C 240.089 276.540,240.524 278.700,240.737 279.800 C 241.588 284.193,242.410 287.370,242.795 287.755 C 243.018 287.978,243.200 288.517,243.200 288.954 C 243.200 289.390,243.540 290.479,243.955 291.374 C 244.371 292.268,245.188 294.080,245.771 295.400 C 246.353 296.720,247.005 298.070,247.218 298.400 C 247.431 298.730,247.829 299.450,248.103 300.000 C 249.657 303.128,252.111 306.357,255.803 310.133 C 259.992 314.417,261.449 315.536,265.400 317.505 C 270.765 320.179,271.232 320.370,273.335 320.755 C 274.399 320.950,275.470 321.310,275.715 321.555 C 275.960 321.800,276.418 322.000,276.734 322.000 C 277.643 322.000,279.230 323.971,279.762 325.761 C 280.962 329.795,277.725 334.000,273.422 334.000 C 271.942 334.000,265.378 332.237,264.633 331.640 C 264.395 331.449,263.627 331.170,262.928 331.020 C 262.228 330.871,261.450 330.502,261.200 330.200 C 260.950 329.898,260.230 329.538,259.600 329.400 C 258.970 329.262,258.241 328.890,257.979 328.574 C 257.717 328.258,257.270 328.000,256.987 328.000 C 256.704 328.000,255.561 327.280,254.448 326.400 C 253.334 325.520,252.303 324.800,252.155 324.800 C 250.932 324.800,239.200 312.688,239.200 311.426 C 239.200 311.324,238.680 310.466,238.044 309.520 C 237.408 308.574,236.601 307.170,236.252 306.400 C 235.902 305.630,235.444 304.730,235.233 304.400 C 235.022 304.070,234.459 302.900,233.981 301.800 C 233.504 300.700,232.793 299.080,232.401 298.200 C 230.625 294.207,230.266 293.276,229.786 291.400 C 227.419 282.154,226.866 279.774,226.396 276.800 C 224.391 264.117,227.582 258.380,235.058 261.222 M49.304 262.272 C 51.258 263.626,52.800 266.217,52.800 268.145 C 52.800 268.956,53.160 270.644,53.600 271.896 C 54.040 273.148,54.406 274.449,54.414 274.786 C 54.421 275.124,54.775 276.120,55.200 277.000 C 55.625 277.880,55.979 278.803,55.986 279.052 C 55.994 279.300,56.429 280.470,56.953 281.652 C 57.477 282.833,58.319 284.745,58.824 285.900 C 59.329 287.055,59.876 288.000,60.040 288.000 C 60.203 288.000,60.452 288.528,60.594 289.172 C 60.736 289.817,61.120 290.568,61.449 290.841 C 61.777 291.113,62.285 291.891,62.577 292.568 C 64.791 297.703,78.089 308.400,82.259 308.400 C 82.688 308.400,83.219 308.579,83.439 308.799 C 83.658 309.018,84.885 309.391,86.167 309.628 C 87.448 309.865,88.700 310.220,88.948 310.418 C 93.972 314.414,93.750 319.680,88.460 322.021 C 86.360 322.949,85.736 322.976,83.275 322.238 C 82.244 321.929,79.960 321.271,78.200 320.777 C 69.993 318.472,60.258 311.588,54.775 304.213 C 53.799 302.900,52.730 301.535,52.400 301.179 C 51.619 300.336,51.072 299.516,49.204 296.386 C 47.074 292.813,44.442 287.368,43.799 285.200 C 43.636 284.650,43.375 284.020,43.220 283.800 C 42.542 282.838,40.428 275.188,39.516 270.400 C 38.565 265.402,41.489 261.384,46.178 261.246 C 47.293 261.214,48.212 261.515,49.304 262.272 " stroke="none" fill="#e48484" fill-rule="evenodd"></path></g></svg>