<svg id="svg" version="1.1" xmlns="http://www.w3.org/2000/svg" xmlns:xlink="http://www.w3.org/1999/xlink" width="400" height="400" viewBox="0, 0, 400,400"><g id="svgg"><path id="path0" d="M142.900 27.076 C 143.285 27.176,143.915 27.176,144.300 27.076 C 144.685 26.975,144.370 26.893,143.600 26.893 C 142.830 26.893,142.515 26.975,142.900 27.076 M199.381 46.369 C 189.689 53.262,171.851 66.960,170.254 68.735 C 169.481 69.595,168.423 74.056,167.393 80.800 C 167.074 82.890,166.721 84.987,166.609 85.459 C 166.497 85.932,165.958 88.812,165.411 91.859 C 164.865 94.907,164.057 99.380,163.617 101.800 C 161.927 111.098,161.228 115.064,160.974 116.800 C 159.975 123.626,154.198 126.808,149.690 123.015 C 146.959 120.716,146.742 116.837,148.866 108.276 C 149.074 107.437,149.599 104.467,150.033 101.676 C 150.466 98.884,151.179 94.800,151.617 92.600 C 152.681 87.254,153.017 84.000,152.506 84.000 C 151.499 84.000,127.489 106.705,123.144 111.766 L 121.800 113.332 121.600 128.766 C 121.410 143.419,121.358 144.271,120.578 145.599 C 117.941 150.089,111.234 149.897,108.929 145.266 C 108.324 144.049,108.179 142.596,108.075 136.700 C 107.922 128.055,108.074 128.135,103.130 134.099 C 92.430 147.007,83.375 159.542,75.773 171.972 C 73.482 175.717,71.447 176.940,68.000 176.644 C 64.566 176.348,65.220 175.709,60.885 183.600 C 58.617 187.727,53.230 198.802,52.225 201.400 C 51.630 202.940,50.640 205.460,50.026 207.000 C 47.790 212.610,46.407 218.167,47.079 218.839 C 48.300 220.060,77.681 220.720,84.000 219.668 C 95.698 217.721,99.231 217.022,105.200 215.472 C 110.812 214.015,119.784 210.899,122.607 209.427 C 123.263 209.085,124.014 208.804,124.276 208.802 C 124.538 208.801,126.158 208.082,127.876 207.205 C 129.594 206.328,131.165 205.608,131.366 205.605 C 131.567 205.602,133.007 204.955,134.566 204.168 C 154.677 194.005,174.877 175.539,187.695 155.600 C 201.886 133.526,209.553 108.727,210.636 81.400 C 210.900 74.743,209.658 58.254,208.436 52.200 C 208.214 51.100,207.828 49.030,207.578 47.600 C 206.482 41.329,206.471 41.327,199.381 46.369 " stroke="none" fill="#70d65b" fill-rule="evenodd"></path><path id="path1" d="M227.626 3.369 C 227.239 3.835,227.302 3.898,227.977 3.722 C 228.430 3.604,228.800 3.348,228.800 3.153 C 228.800 2.614,228.154 2.732,227.626 3.369 M226.026 4.969 C 225.639 5.435,225.702 5.498,226.377 5.322 C 226.830 5.204,227.200 4.948,227.200 4.753 C 227.200 4.214,226.554 4.332,226.026 4.969 M223.695 7.066 C 222.898 7.388,222.332 8.667,222.988 8.667 C 223.287 8.667,223.724 8.247,223.958 7.733 C 224.191 7.220,224.342 6.814,224.291 6.832 C 224.241 6.849,223.973 6.955,223.695 7.066 M212.950 19.909 C 212.483 20.289,211.978 21.140,211.828 21.800 C 211.573 22.924,211.592 22.949,212.130 22.200 C 212.447 21.760,212.682 21.284,212.653 21.142 C 212.624 21.000,212.943 20.505,213.362 20.042 C 214.282 19.026,214.106 18.969,212.950 19.909 M150.224 25.813 C 149.505 26.356,149.580 26.396,151.224 26.353 C 152.824 26.310,152.881 26.277,151.800 26.023 C 151.140 25.867,155.235 25.728,160.900 25.714 C 166.661 25.700,171.200 25.846,171.200 26.044 C 171.200 26.240,171.504 26.400,171.876 26.400 C 172.466 26.400,172.454 26.325,171.776 25.813 C 170.630 24.946,151.370 24.946,150.224 25.813 M146.411 26.187 C 145.669 27.080,146.094 27.849,146.889 27.054 C 147.249 26.694,147.916 26.400,148.371 26.400 C 148.827 26.400,149.200 26.220,149.200 26.000 C 149.200 25.379,146.957 25.529,146.411 26.187 M172.800 26.000 C 172.800 26.220,173.160 26.423,173.600 26.450 C 174.726 26.520,174.893 26.569,175.860 27.107 C 176.560 27.496,176.762 27.476,176.945 26.999 C 177.074 26.662,176.847 26.239,176.411 26.006 C 175.434 25.483,172.800 25.478,172.800 26.000 M203.400 25.968 C 202.560 26.296,202.312 27.218,202.945 27.660 C 203.761 28.230,202.811 29.200,201.436 29.200 C 199.563 29.200,199.332 28.629,200.899 27.871 C 201.963 27.355,202.066 27.200,201.491 26.979 C 201.085 26.824,200.336 27.016,199.697 27.441 C 197.093 29.172,195.968 29.568,194.963 29.110 C 193.904 28.628,193.205 28.965,193.874 29.634 C 194.270 30.030,195.158 30.300,196.300 30.369 C 197.447 30.440,196.776 32.264,195.176 33.423 C 194.283 34.070,192.580 35.320,191.390 36.200 C 190.201 37.080,188.303 38.430,187.174 39.200 C 186.044 39.970,184.479 41.139,183.696 41.797 C 182.913 42.456,181.156 43.806,179.791 44.797 C 175.597 47.844,172.828 49.970,166.904 54.694 C 160.425 59.862,160.534 59.822,150.400 60.771 C 147.650 61.029,144.334 61.426,143.031 61.654 C 141.727 61.881,137.947 62.310,134.631 62.606 C 110.598 64.750,107.328 65.854,107.703 71.700 C 108.041 76.954,111.683 78.048,123.200 76.357 C 129.223 75.473,141.402 74.442,141.748 74.788 C 142.254 75.294,140.935 76.762,136.000 81.186 C 133.690 83.257,127.285 89.417,121.767 94.875 C 112.100 104.438,111.677 104.800,110.167 104.803 C 109.305 104.805,107.520 104.976,106.200 105.184 C 104.880 105.392,99.570 105.939,94.400 106.400 C 77.176 107.934,75.600 108.574,75.600 114.028 C 75.600 118.796,78.905 120.286,87.556 119.418 C 99.457 118.223,99.629 118.318,95.161 123.627 C 93.600 125.482,90.188 129.700,87.580 133.000 C 84.972 136.300,82.234 139.720,81.496 140.600 C 80.758 141.480,79.485 143.190,78.667 144.400 C 77.849 145.610,76.023 148.220,74.609 150.200 C 73.195 152.180,71.478 154.700,70.795 155.800 C 70.112 156.900,68.482 159.510,67.174 161.600 C 61.875 170.063,61.601 173.157,66.014 174.677 C 70.205 176.121,72.159 175.092,75.614 169.623 C 87.692 150.503,105.614 127.200,108.240 127.200 C 109.457 127.200,109.295 126.149,109.565 135.800 C 109.844 145.784,110.647 147.600,114.782 147.600 C 119.689 147.600,119.997 146.509,119.999 129.087 C 120.000 117.309,120.112 114.118,120.564 113.087 C 121.127 111.802,127.885 104.747,136.200 96.766 C 153.469 80.190,155.614 78.951,154.238 86.342 C 153.925 88.024,153.281 91.560,152.808 94.200 C 151.684 100.469,150.608 106.366,149.608 111.742 C 148.035 120.195,149.574 123.738,154.529 123.073 C 158.326 122.564,159.481 119.300,162.194 101.400 C 162.494 99.420,162.930 96.900,163.163 95.800 C 163.396 94.700,163.944 91.820,164.380 89.400 C 164.815 86.980,165.528 83.020,165.963 80.600 C 166.399 78.180,166.867 75.390,167.004 74.400 C 167.853 68.285,168.707 67.397,186.846 53.785 C 187.421 53.353,189.239 51.984,190.886 50.741 C 198.044 45.342,204.935 40.800,205.968 40.800 C 206.736 40.800,207.443 40.307,208.517 39.022 C 210.747 36.354,210.893 35.693,209.994 32.314 C 209.568 30.711,209.215 29.276,209.209 29.125 C 209.204 28.973,208.712 28.883,208.116 28.925 C 207.342 28.978,206.987 28.786,206.877 28.253 C 206.773 27.748,206.880 27.602,207.206 27.804 C 207.473 27.969,207.846 27.856,208.039 27.551 C 208.312 27.120,208.389 27.159,208.394 27.729 C 208.399 28.376,208.467 28.390,209.000 27.857 C 210.007 26.850,209.711 26.459,208.200 26.800 C 207.166 27.033,206.800 26.982,206.800 26.605 C 206.800 25.761,204.861 25.398,203.400 25.968 M154.307 26.290 C 155.026 26.379,156.106 26.377,156.707 26.286 C 157.308 26.195,156.720 26.122,155.400 26.124 C 154.080 26.126,153.588 26.201,154.307 26.290 M165.300 26.287 C 165.905 26.378,166.895 26.378,167.500 26.287 C 168.105 26.195,167.610 26.120,166.400 26.120 C 165.190 26.120,164.695 26.195,165.300 26.287 M137.824 27.413 C 137.146 27.925,137.134 28.000,137.724 28.000 C 138.096 28.000,138.400 27.800,138.400 27.557 C 138.400 27.296,138.773 27.207,139.303 27.340 C 139.800 27.465,140.475 27.397,140.803 27.189 C 141.243 26.912,141.031 26.814,140.000 26.819 C 139.230 26.822,138.251 27.090,137.824 27.413 M181.820 27.232 C 181.969 27.473,182.527 27.555,183.077 27.416 C 183.714 27.257,183.975 27.316,183.810 27.584 C 183.668 27.813,183.743 28.000,183.976 28.000 C 184.209 28.000,184.400 27.730,184.400 27.400 C 184.400 26.979,183.975 26.800,182.976 26.800 C 182.058 26.800,181.648 26.953,181.820 27.232 M205.800 27.200 C 206.092 27.673,205.701 27.673,204.600 27.200 C 203.829 26.869,203.831 26.855,204.676 26.828 C 205.158 26.813,205.664 26.980,205.800 27.200 M135.192 27.810 C 134.914 28.145,134.784 28.517,134.904 28.637 C 135.170 28.903,136.800 27.929,136.800 27.504 C 136.800 26.971,135.717 27.177,135.192 27.810 M185.036 27.542 C 184.806 27.914,186.484 28.800,187.419 28.800 C 188.346 28.800,188.090 27.717,187.100 27.452 C 185.852 27.118,185.283 27.142,185.036 27.542 M129.886 29.080 C 130.029 29.454,130.210 29.570,130.287 29.338 C 130.365 29.106,130.917 28.994,131.514 29.089 C 132.365 29.225,132.470 29.171,132.000 28.837 C 130.993 28.124,129.581 28.286,129.886 29.080 M190.000 28.777 C 189.188 29.018,189.386 29.104,191.050 29.237 C 192.575 29.358,193.050 29.272,192.907 28.900 C 192.698 28.357,191.575 28.309,190.000 28.777 M127.500 29.357 C 127.115 29.649,126.800 30.025,126.800 30.193 C 126.800 30.361,127.025 30.311,127.300 30.083 C 127.822 29.649,127.999 29.600,129.024 29.600 C 129.367 29.600,129.536 29.420,129.400 29.200 C 129.065 28.657,128.343 28.717,127.500 29.357 M199.600 29.598 C 199.600 30.200,198.488 30.809,197.840 30.560 C 197.371 30.380,197.297 30.165,197.586 29.816 C 197.810 29.547,197.898 29.232,197.783 29.116 C 197.667 29.000,198.029 28.993,198.586 29.099 C 199.144 29.206,199.600 29.430,199.600 29.598 M121.856 30.652 C 121.032 31.098,120.834 31.394,121.146 31.706 C 121.459 32.019,121.789 31.953,122.323 31.470 C 122.731 31.100,123.185 30.919,123.332 31.066 C 123.480 31.213,123.600 31.129,123.600 30.879 C 123.600 30.629,123.870 30.529,124.200 30.655 C 124.530 30.782,124.800 30.686,124.800 30.443 C 124.800 29.811,123.199 29.924,121.856 30.652 M116.200 32.322 C 114.187 33.175,113.990 33.887,115.828 33.673 C 116.583 33.585,117.200 33.364,117.200 33.183 C 117.200 33.002,117.560 32.740,118.000 32.600 C 118.876 32.322,119.102 31.587,118.300 31.622 C 118.025 31.635,117.080 31.950,116.200 32.322 M112.000 33.800 C 111.726 34.130,111.119 34.414,110.651 34.432 C 110.182 34.449,110.034 34.557,110.321 34.672 C 111.239 35.040,113.600 34.399,113.600 33.782 C 113.600 33.023,112.635 33.034,112.000 33.800 M107.292 35.577 C 106.290 36.137,106.131 36.365,106.613 36.550 C 107.273 36.803,109.200 35.763,109.200 35.154 C 109.200 34.651,108.784 34.743,107.292 35.577 M103.311 37.193 C 102.602 37.575,102.151 38.018,102.310 38.177 C 102.469 38.335,102.143 38.351,101.585 38.211 C 100.299 37.888,98.229 39.406,99.362 39.841 C 99.731 39.982,100.336 39.824,100.715 39.486 C 101.092 39.150,102.174 38.668,103.121 38.416 C 104.067 38.164,104.937 37.709,105.054 37.404 C 105.171 37.100,105.566 36.946,105.933 37.063 C 106.505 37.245,106.515 37.214,106.000 36.844 C 105.237 36.295,104.893 36.340,103.311 37.193 M97.100 39.876 C 96.715 39.976,96.400 40.189,96.400 40.349 C 96.400 40.509,95.725 40.881,94.900 41.176 C 94.075 41.471,93.310 41.822,93.200 41.956 C 93.090 42.090,92.280 42.571,91.400 43.023 C 90.520 43.476,89.852 44.084,89.916 44.373 C 89.991 44.709,89.800 44.809,89.387 44.651 C 88.553 44.330,87.095 45.107,87.451 45.682 C 87.619 45.954,87.540 46.010,87.244 45.827 C 86.613 45.437,84.933 46.555,84.933 47.366 C 84.933 48.154,84.892 48.161,86.000 47.200 C 86.507 46.760,87.149 46.400,87.425 46.400 C 88.039 46.400,91.200 44.370,91.200 43.976 C 91.200 43.676,92.598 43.141,93.600 43.058 C 94.461 42.986,95.602 41.927,95.317 41.466 C 95.172 41.230,95.440 41.169,95.988 41.313 C 96.983 41.573,98.938 40.547,98.573 39.956 C 98.343 39.583,98.240 39.578,97.100 39.876 M236.300 46.785 C 235.915 47.160,235.600 47.701,235.600 47.987 C 235.600 48.274,235.981 48.024,236.446 47.433 C 237.422 46.192,237.330 45.782,236.300 46.785 M83.283 47.718 C 82.745 47.964,82.455 48.367,82.581 48.695 C 82.732 49.088,82.580 49.184,82.065 49.021 C 81.619 48.879,81.061 49.091,80.633 49.564 C 79.866 50.411,80.167 50.427,82.208 49.647 C 83.257 49.246,84.694 47.730,84.328 47.411 C 84.257 47.350,83.788 47.488,83.283 47.718 M245.900 49.082 C 246.395 49.178,247.205 49.178,247.700 49.082 C 248.195 48.987,247.790 48.909,246.800 48.909 C 245.810 48.909,245.405 48.987,245.900 49.082 M259.107 49.090 C 259.826 49.179,260.906 49.177,261.507 49.086 C 262.108 48.995,261.520 48.922,260.200 48.924 C 258.880 48.926,258.388 49.001,259.107 49.090 M242.600 49.600 C 242.308 50.073,242.699 50.073,243.800 49.600 C 244.571 49.269,244.569 49.255,243.724 49.228 C 243.242 49.213,242.736 49.380,242.600 49.600 M263.400 49.600 C 263.840 49.789,264.560 49.944,265.000 49.944 L 265.800 49.944 265.000 49.600 C 264.560 49.411,263.840 49.256,263.400 49.256 L 262.600 49.256 263.400 49.600 M237.905 50.283 C 238.402 50.379,239.122 50.375,239.505 50.275 C 239.887 50.175,239.480 50.096,238.600 50.101 C 237.720 50.105,237.407 50.187,237.905 50.283 M268.100 50.276 C 268.485 50.376,269.115 50.376,269.500 50.276 C 269.885 50.175,269.570 50.093,268.800 50.093 C 268.030 50.093,267.715 50.175,268.100 50.276 M78.198 50.952 C 77.510 51.455,77.648 52.400,78.410 52.400 C 78.935 52.400,79.665 50.887,79.260 50.637 C 79.072 50.521,78.594 50.663,78.198 50.952 M273.546 51.016 C 274.286 51.337,275.096 51.585,275.346 51.568 C 275.977 51.522,273.539 50.437,272.800 50.434 C 272.470 50.432,272.806 50.694,273.546 51.016 M75.800 52.800 C 75.126 53.545,75.124 53.600,75.767 53.600 C 76.560 53.600,77.684 52.617,77.314 52.248 C 76.903 51.836,76.559 51.962,75.800 52.800 M280.000 52.569 C 281.114 53.241,281.991 53.416,281.380 52.845 C 281.171 52.650,280.550 52.372,280.000 52.228 L 279.000 51.967 280.000 52.569 M71.779 55.772 C 71.152 56.234,71.098 56.446,71.503 56.856 C 71.910 57.269,72.135 57.236,72.686 56.686 C 73.625 55.746,72.859 54.974,71.779 55.772 M70.030 57.182 C 69.737 57.363,69.620 57.709,69.770 57.951 C 69.935 58.219,69.819 58.306,69.473 58.173 C 68.691 57.872,65.838 60.605,66.229 61.281 C 66.393 61.566,66.386 61.671,66.212 61.514 C 65.793 61.136,64.315 61.939,64.595 62.392 C 64.715 62.586,64.602 62.875,64.345 63.034 C 64.052 63.215,63.984 63.150,64.162 62.862 C 64.856 61.738,63.589 62.604,61.062 64.980 C 59.323 66.615,58.433 67.730,58.624 68.038 C 58.816 68.350,58.756 68.420,58.455 68.234 C 57.894 67.887,53.470 72.267,53.816 72.826 C 53.943 73.032,53.856 73.200,53.623 73.200 C 53.038 73.200,50.389 76.058,50.623 76.437 C 50.727 76.605,50.449 76.857,50.006 76.998 C 49.563 77.139,49.178 77.422,49.150 77.627 C 49.123 77.832,49.078 78.225,49.050 78.500 C 49.023 78.775,48.779 79.000,48.510 79.000 C 47.737 79.000,45.529 81.638,45.772 82.271 C 45.892 82.585,45.833 82.744,45.639 82.624 C 45.446 82.505,44.986 82.867,44.617 83.430 C 44.248 83.993,43.644 84.789,43.273 85.198 C 42.174 86.414,41.734 87.003,41.254 87.899 C 40.568 89.180,40.710 89.484,41.500 88.427 C 41.885 87.912,42.740 86.937,43.400 86.261 C 44.060 85.584,44.547 84.799,44.482 84.515 C 44.416 84.223,44.724 84.000,45.195 84.000 C 45.652 84.000,46.130 83.685,46.259 83.300 C 46.903 81.377,47.439 80.400,47.852 80.400 C 48.296 80.400,49.769 78.500,49.790 77.900 C 49.795 77.735,49.931 77.596,50.091 77.591 C 50.543 77.577,52.473 75.540,52.248 75.315 C 51.901 74.968,52.972 74.091,53.498 74.293 C 53.774 74.399,54.001 74.241,54.002 73.943 C 54.004 73.396,55.143 72.075,57.642 69.722 C 59.406 68.062,60.000 67.330,60.000 66.817 C 60.000 66.588,60.260 66.400,60.577 66.400 C 60.895 66.400,61.390 66.084,61.677 65.698 C 61.965 65.312,62.875 64.641,63.700 64.207 C 64.525 63.773,65.200 63.183,65.200 62.896 C 65.200 62.610,65.477 62.269,65.815 62.139 C 66.153 62.009,66.701 61.379,67.032 60.738 C 67.380 60.066,67.822 59.690,68.079 59.849 C 68.348 60.015,68.411 59.942,68.238 59.662 C 68.069 59.388,68.207 59.200,68.576 59.200 C 68.919 59.200,69.200 59.009,69.200 58.776 C 69.200 58.543,69.356 58.449,69.547 58.567 C 69.737 58.685,70.199 58.443,70.573 58.030 C 71.298 57.229,70.917 56.633,70.030 57.182 M322.030 75.037 C 322.564 75.607,323.360 76.254,323.800 76.476 C 324.240 76.697,323.892 76.230,323.027 75.439 C 321.198 73.766,320.625 73.534,322.030 75.037 M330.488 82.613 C 331.086 83.243,331.647 83.677,331.735 83.579 C 331.823 83.480,331.333 82.965,330.647 82.434 L 329.400 81.469 330.488 82.613 M338.046 90.571 C 338.401 91.027,338.983 91.760,339.338 92.200 C 339.694 92.640,340.253 93.360,340.580 93.800 C 340.907 94.240,341.180 94.409,341.187 94.176 C 341.194 93.943,340.345 92.850,339.300 91.747 C 338.255 90.644,337.691 90.115,338.046 90.571 M38.709 91.500 C 38.371 91.885,37.957 92.649,37.789 93.198 C 37.621 93.748,37.212 94.395,36.881 94.638 C 36.546 94.882,36.410 95.292,36.575 95.559 C 36.987 96.227,38.000 95.357,38.000 94.334 C 38.000 93.912,38.360 93.180,38.800 92.708 C 39.240 92.236,39.600 91.613,39.600 91.325 C 39.600 90.632,39.445 90.662,38.709 91.500 M35.363 97.000 C 34.994 97.564,34.780 98.114,34.889 98.222 C 35.274 98.607,36.324 97.932,36.523 97.173 C 36.837 95.971,36.109 95.862,35.363 97.000 M33.862 99.531 C 33.042 100.438,33.036 100.651,33.821 100.953 C 34.177 101.089,34.337 101.022,34.197 100.795 C 34.063 100.578,34.122 100.400,34.330 100.400 C 34.537 100.400,34.801 100.040,34.916 99.600 C 35.177 98.602,34.729 98.573,33.862 99.531 M32.300 102.607 C 31.208 104.079,31.478 104.704,32.685 103.496 C 33.374 102.807,33.630 102.274,33.385 102.037 C 33.143 101.802,32.739 102.014,32.300 102.607 M30.651 105.648 C 29.869 106.764,29.828 107.200,30.504 107.200 C 31.216 107.200,31.988 105.827,31.615 105.223 C 31.385 104.852,31.130 104.965,30.651 105.648 M29.000 108.800 C 28.864 109.020,28.855 109.365,28.979 109.566 C 29.103 109.767,28.992 110.003,28.732 110.089 C 28.450 110.183,28.390 110.460,28.584 110.774 C 28.854 111.211,30.000 109.415,30.000 108.554 C 30.000 108.231,29.236 108.418,29.000 108.800 M27.689 112.093 C 27.038 112.877,26.687 114.683,27.132 114.958 C 27.351 115.093,27.482 114.888,27.424 114.502 C 27.366 114.116,27.587 113.389,27.914 112.888 C 28.560 111.896,28.380 111.260,27.689 112.093 M355.273 114.200 C 356.215 115.913,357.600 117.861,357.600 117.472 C 357.600 117.206,355.958 114.623,355.012 113.400 C 354.671 112.960,354.789 113.320,355.273 114.200 M25.644 116.630 C 25.359 117.416,25.233 118.166,25.363 118.297 C 25.493 118.427,25.600 118.316,25.600 118.050 C 25.600 117.784,25.954 117.187,26.386 116.723 C 26.819 116.259,27.078 115.726,26.963 115.539 C 26.557 114.883,26.156 115.214,25.644 116.630 M24.388 119.814 C 23.694 120.651,24.273 121.098,25.048 120.324 C 25.422 119.949,25.518 119.596,25.284 119.452 C 25.068 119.318,24.665 119.481,24.388 119.814 M23.600 122.020 C 23.600 122.471,23.325 123.371,22.990 124.020 C 22.654 124.669,22.510 125.200,22.670 125.200 C 22.829 125.200,22.744 125.416,22.480 125.680 C 21.898 126.262,21.834 127.750,22.407 127.396 C 22.630 127.258,22.700 126.963,22.563 126.740 C 22.425 126.517,22.827 125.786,23.456 125.115 C 24.085 124.444,24.407 123.824,24.171 123.738 C 23.935 123.651,23.820 123.045,23.916 122.390 C 24.012 121.736,23.980 121.200,23.845 121.200 C 23.710 121.200,23.600 121.569,23.600 122.020 M21.160 129.075 C 20.773 129.798,20.766 130.126,21.128 130.488 C 21.491 130.851,21.600 130.812,21.600 130.323 C 21.600 129.972,21.870 129.582,22.200 129.455 C 22.530 129.329,22.800 128.979,22.800 128.679 C 22.800 127.792,21.705 128.056,21.160 129.075 M20.406 132.100 C 20.410 132.984,20.523 133.226,20.757 132.856 C 21.072 132.359,20.917 130.800,20.553 130.800 C 20.469 130.800,20.403 131.385,20.406 132.100 M19.539 134.574 C 19.042 135.666,19.362 136.994,20.024 136.585 C 20.261 136.439,20.358 136.067,20.240 135.760 C 20.122 135.452,20.161 135.200,20.327 135.200 C 20.494 135.200,20.657 134.840,20.690 134.400 C 20.774 133.291,20.075 133.397,19.539 134.574 M18.800 138.488 C 18.800 139.049,18.531 140.024,18.202 140.654 C 17.483 142.033,17.434 143.050,18.068 143.442 C 18.385 143.638,18.452 143.511,18.275 143.050 C 18.113 142.629,18.239 142.283,18.604 142.143 C 18.929 142.018,19.096 141.755,18.974 141.558 C 18.852 141.361,18.915 141.200,19.114 141.200 C 19.538 141.200,19.519 138.186,19.092 137.759 C 18.931 137.598,18.800 137.926,18.800 138.488 M368.411 140.800 C 368.415 141.130,368.789 141.850,369.244 142.400 C 369.698 142.950,369.953 143.174,369.810 142.899 C 368.619 140.594,368.406 140.274,368.411 140.800 M370.000 144.717 C 370.000 144.984,370.360 145.875,370.800 146.696 C 371.240 147.516,371.600 148.004,371.600 147.779 C 371.600 147.553,371.240 146.663,370.800 145.800 C 370.360 144.937,370.000 144.450,370.000 144.717 M17.200 146.462 C 17.200 147.230,16.907 148.717,16.549 149.768 C 16.126 151.010,15.968 152.400,16.099 153.739 C 16.209 154.873,16.218 155.483,16.119 155.095 C 16.020 154.707,15.773 154.493,15.570 154.619 C 14.992 154.976,15.136 156.290,15.780 156.537 C 16.741 156.906,17.125 154.808,16.646 151.800 C 16.576 151.360,16.842 150.717,17.238 150.372 C 17.812 149.870,17.921 149.313,17.779 147.606 C 17.574 145.142,17.200 144.402,17.200 146.462 M372.256 150.788 C 372.642 151.441,373.011 151.923,373.075 151.859 C 373.288 151.645,372.206 149.606,371.877 149.603 C 371.700 149.601,371.870 150.134,372.256 150.788 M373.479 154.700 C 373.767 155.494,374.800 157.097,374.800 156.750 C 374.800 156.402,373.563 154.000,373.383 154.000 C 373.296 154.000,373.339 154.315,373.479 154.700 M374.814 159.451 C 374.806 159.919,375.070 160.526,375.400 160.800 C 376.149 161.421,376.149 160.910,375.400 159.600 C 374.862 158.658,374.828 158.649,374.814 159.451 M15.418 162.600 C 15.020 167.323,15.040 176.039,15.458 180.600 L 15.825 184.600 16.081 182.200 C 16.487 178.387,16.446 175.276,15.985 174.991 C 15.538 174.714,15.510 168.000,15.956 168.000 C 16.369 168.000,16.457 161.422,16.059 160.375 C 15.760 159.589,15.636 160.020,15.418 162.600 M379.627 178.400 C 379.626 178.730,379.890 179.349,380.213 179.776 C 380.960 180.764,380.952 180.115,380.200 178.800 C 379.868 178.220,379.628 178.052,379.627 178.400 M16.243 188.233 C 15.807 189.367,15.987 191.994,16.600 193.462 C 16.930 194.251,17.203 195.731,17.206 196.749 C 17.209 197.767,17.344 198.392,17.506 198.138 C 18.141 197.141,17.519 191.356,16.823 191.786 C 16.665 191.883,16.595 190.981,16.667 189.782 C 16.801 187.557,16.676 187.103,16.243 188.233 M382.493 192.400 C 382.493 193.170,382.575 193.485,382.676 193.100 C 382.776 192.715,382.776 192.085,382.676 191.700 C 382.575 191.315,382.493 191.630,382.493 192.400 M382.814 197.654 C 382.806 197.794,383.063 198.514,383.384 199.254 C 383.706 199.994,383.969 200.330,383.970 200.000 C 383.972 199.424,382.843 197.134,382.814 197.654 M17.600 200.751 C 17.600 201.164,17.870 201.726,18.200 202.000 C 18.532 202.276,18.827 203.235,18.860 204.149 L 18.920 205.800 19.160 204.000 C 19.319 202.810,19.231 202.021,18.900 201.671 C 18.625 201.381,18.400 200.886,18.400 200.571 C 18.400 200.257,18.220 200.000,18.000 200.000 C 17.780 200.000,17.600 200.338,17.600 200.751 M384.137 209.800 C 384.139 211.560,384.209 212.230,384.293 211.289 C 384.378 210.349,384.377 208.909,384.291 208.089 C 384.205 207.270,384.136 208.040,384.137 209.800 M19.202 207.700 C 19.204 207.975,19.474 208.716,19.802 209.346 C 20.131 209.976,20.400 210.861,20.400 211.312 C 20.400 212.520,20.822 211.890,21.010 210.400 C 21.112 209.597,20.915 208.760,20.486 208.170 C 19.728 207.126,19.199 206.932,19.202 207.700 M122.800 210.200 C 122.250 210.514,121.980 210.772,122.200 210.772 C 122.420 210.772,123.050 210.514,123.600 210.200 C 124.150 209.886,124.420 209.628,124.200 209.628 C 123.980 209.628,123.350 209.886,122.800 210.200 M21.067 212.667 C 20.371 213.363,21.144 214.702,23.600 217.055 C 25.032 218.427,26.135 218.752,26.632 217.948 C 26.801 217.675,26.694 217.569,26.364 217.679 C 26.062 217.779,25.381 217.458,24.850 216.966 C 24.318 216.473,23.640 216.163,23.342 216.278 C 23.044 216.392,22.779 216.241,22.754 215.943 C 22.675 215.015,22.572 214.636,22.088 213.500 C 21.590 212.330,21.487 212.246,21.067 212.667 M27.485 218.480 C 27.177 218.676,27.335 218.790,27.920 218.794 C 28.426 218.797,29.347 219.062,29.968 219.383 C 30.699 219.762,31.628 219.880,32.610 219.721 C 33.619 219.557,34.038 219.615,33.865 219.894 C 33.712 220.143,34.134 220.387,34.903 220.496 C 35.616 220.596,36.533 220.822,36.941 220.997 C 37.532 221.252,37.651 221.164,37.532 220.558 C 37.426 220.022,37.034 219.796,36.191 219.785 C 34.852 219.768,33.267 219.395,31.200 218.611 C 29.690 218.038,28.260 217.987,27.485 218.480 M44.400 221.000 C 43.655 221.550,43.200 222.000,43.391 222.000 C 43.581 222.000,44.049 221.718,44.431 221.372 C 44.812 221.027,45.996 220.598,47.062 220.419 L 49.000 220.094 47.378 220.047 C 46.223 220.014,45.365 220.288,44.400 221.000 M384.569 225.800 C 384.570 230.700,384.611 231.047,384.892 228.581 C 385.069 227.030,385.069 224.510,384.891 222.981 C 384.610 220.563,384.568 220.931,384.569 225.800 M38.800 221.200 C 37.853 221.503,37.868 221.522,39.100 221.560 C 39.815 221.582,40.400 221.420,40.400 221.200 C 40.400 220.748,40.212 220.748,38.800 221.200 M56.705 221.083 C 57.202 221.179,57.922 221.175,58.305 221.075 C 58.687 220.975,58.280 220.896,57.400 220.901 C 56.520 220.905,56.207 220.987,56.705 221.083 M76.300 221.082 C 76.795 221.178,77.605 221.178,78.100 221.082 C 78.595 220.987,78.190 220.909,77.200 220.909 C 76.210 220.909,75.805 220.987,76.300 221.082 M65.500 221.496 C 66.875 221.574,69.125 221.574,70.500 221.496 C 71.875 221.418,70.750 221.354,68.000 221.354 C 65.250 221.354,64.125 221.418,65.500 221.496 M43.336 225.022 C 43.205 225.364,43.288 226.039,43.522 226.522 C 43.903 227.312,43.949 227.250,43.973 225.900 C 44.001 224.329,43.740 223.969,43.336 225.022 M384.137 241.800 C 384.139 243.560,384.209 244.230,384.293 243.289 C 384.378 242.349,384.377 240.909,384.291 240.089 C 384.205 239.270,384.136 240.040,384.137 241.800 M44.128 246.800 C 44.128 248.230,44.201 248.815,44.289 248.100 C 44.378 247.385,44.378 246.215,44.289 245.500 C 44.201 244.785,44.128 245.370,44.128 246.800 M383.515 251.810 C 383.392 252.245,383.169 252.960,383.020 253.400 C 382.871 253.840,383.042 253.694,383.400 253.076 C 383.758 252.458,383.981 251.742,383.895 251.486 C 383.810 251.230,383.639 251.376,383.515 251.810 M45.068 254.200 C 45.371 256.177,45.602 256.514,45.594 254.967 C 45.591 254.325,45.416 253.530,45.205 253.200 C 44.945 252.791,44.901 253.110,45.068 254.200 M382.493 259.200 C 382.493 259.970,382.575 260.285,382.676 259.900 C 382.776 259.515,382.776 258.885,382.676 258.500 C 382.575 258.115,382.493 258.430,382.493 259.200 M45.701 261.400 C 45.705 262.280,45.787 262.593,45.883 262.095 C 45.979 261.598,45.975 260.878,45.875 260.495 C 45.775 260.113,45.696 260.520,45.701 261.400 M46.324 264.200 C 46.526 264.640,46.792 265.270,46.914 265.600 C 47.107 266.118,47.141 266.115,47.168 265.576 C 47.186 265.234,46.920 264.604,46.578 264.176 C 45.966 263.412,45.962 263.413,46.324 264.200 M380.085 272.013 C 379.818 272.440,379.607 273.017,379.616 273.295 C 379.625 273.573,379.909 273.289,380.247 272.665 C 380.950 271.368,380.818 270.838,380.085 272.013 M48.056 272.945 C 48.339 273.575,48.642 273.873,48.731 273.606 C 48.820 273.340,48.589 272.824,48.218 272.461 C 47.586 271.842,47.576 271.873,48.056 272.945 M49.213 279.420 C 49.206 279.651,49.366 280.011,49.569 280.220 C 49.772 280.429,50.015 281.140,50.109 281.800 L 50.280 283.000 50.340 281.776 C 50.373 281.104,50.136 280.204,49.813 279.776 C 49.490 279.349,49.220 279.189,49.213 279.420 M50.412 284.800 C 50.412 285.490,51.080 286.670,51.311 286.388 C 51.396 286.285,51.229 285.750,50.939 285.200 C 50.648 284.649,50.412 284.469,50.412 284.800 M52.013 290.651 C 52.039 291.360,53.200 292.607,53.200 291.925 C 53.200 291.580,52.930 291.074,52.600 290.800 C 52.270 290.526,52.006 290.459,52.013 290.651 M375.285 291.213 C 375.018 291.640,374.801 292.217,374.802 292.495 C 374.804 292.773,375.077 292.478,375.410 291.840 C 376.103 290.511,376.011 290.050,375.285 291.213 M53.600 295.447 C 53.600 295.667,53.864 296.196,54.187 296.624 C 54.510 297.051,54.775 297.220,54.775 297.000 C 54.775 296.780,54.510 296.251,54.187 295.824 C 53.864 295.396,53.600 295.227,53.600 295.447 M372.256 300.812 C 371.870 301.466,371.700 301.999,371.877 301.997 C 372.206 301.994,373.288 299.955,373.075 299.741 C 373.011 299.677,372.642 300.159,372.256 300.812 M55.213 300.224 C 55.206 300.456,55.464 300.996,55.787 301.424 C 56.110 301.851,56.380 302.009,56.387 301.776 C 56.394 301.544,56.136 301.004,55.813 300.576 C 55.490 300.149,55.220 299.991,55.213 300.224 M56.800 304.702 C 56.800 304.922,57.070 305.326,57.400 305.600 C 57.735 305.878,58.000 305.921,58.000 305.698 C 58.000 305.478,57.730 305.074,57.400 304.800 C 57.065 304.522,56.800 304.479,56.800 304.702 M369.021 309.424 C 368.652 309.988,368.406 310.601,368.475 310.786 C 368.544 310.971,368.911 310.510,369.292 309.762 C 370.109 308.153,369.968 307.978,369.021 309.424 M364.214 320.635 C 363.841 321.204,363.605 321.738,363.689 321.822 C 363.773 321.907,364.158 321.441,364.544 320.788 C 365.406 319.328,365.148 319.209,364.214 320.635 M64.400 322.289 C 64.400 322.521,64.771 323.136,65.224 323.656 L 66.047 324.600 65.345 323.400 C 64.420 321.821,64.400 321.797,64.400 322.289 M361.511 326.026 C 361.140 326.672,360.980 327.200,361.154 327.200 C 361.483 327.200,362.524 325.191,362.307 324.974 C 362.240 324.907,361.882 325.380,361.511 326.026 M69.822 332.800 C 70.249 333.645,70.601 333.985,70.712 333.658 C 70.812 333.360,70.494 332.730,70.005 332.258 L 69.115 331.400 69.822 332.800 M70.800 334.477 C 70.800 334.587,71.160 335.093,71.600 335.600 C 72.040 336.107,72.400 336.343,72.400 336.123 C 72.400 335.904,72.040 335.398,71.600 335.000 C 71.160 334.602,70.800 334.366,70.800 334.477 M74.362 340.329 C 74.605 340.784,75.001 341.277,75.242 341.426 C 75.556 341.620,75.554 341.462,75.238 340.871 C 74.995 340.416,74.599 339.923,74.358 339.774 C 74.044 339.580,74.046 339.738,74.362 340.329 M75.600 342.249 C 75.600 342.454,75.960 342.930,76.400 343.307 C 76.840 343.684,77.200 343.842,77.200 343.658 C 77.200 343.474,76.840 342.998,76.400 342.600 C 75.960 342.202,75.600 342.044,75.600 342.249 M77.560 345.000 C 78.234 346.305,78.788 347.028,78.785 346.600 C 78.783 346.380,78.414 345.750,77.964 345.200 C 77.421 344.536,77.285 344.469,77.560 345.000 M81.600 350.665 C 81.600 351.281,84.031 354.400,84.511 354.400 C 84.754 354.400,84.664 354.175,84.311 353.900 C 83.958 353.625,83.203 352.700,82.635 351.844 C 82.066 350.988,81.600 350.458,81.600 350.665 M88.000 358.853 C 88.000 358.979,88.472 359.604,89.048 360.242 C 92.300 363.836,93.525 365.105,94.033 365.402 C 94.345 365.584,93.443 364.488,92.029 362.967 C 90.614 361.445,89.129 359.845,88.729 359.411 C 88.328 358.977,88.000 358.726,88.000 358.853 M338.354 360.591 C 337.658 361.356,336.819 362.391,336.491 362.891 C 335.924 363.754,336.388 363.300,339.140 360.300 C 339.696 359.695,340.030 359.200,339.885 359.200 C 339.739 359.200,339.050 359.826,338.354 360.591 M329.178 370.300 L 327.800 371.800 329.300 370.422 C 330.125 369.663,330.800 368.988,330.800 368.922 C 330.800 368.616,330.462 368.904,329.178 370.300 M100.411 371.800 C 100.892 372.565,103.600 375.047,103.600 374.723 C 103.600 374.637,102.769 373.764,101.754 372.783 C 100.739 371.802,100.134 371.360,100.411 371.800 M324.988 374.013 C 324.584 374.460,323.674 375.184,322.966 375.621 C 322.258 376.058,321.579 376.679,321.455 377.000 C 321.332 377.321,322.259 376.751,323.516 375.733 C 324.772 374.715,325.860 373.729,325.933 373.541 C 326.160 372.962,325.758 373.162,324.988 374.013 M105.600 376.386 C 105.600 376.598,106.005 376.984,106.500 377.244 C 107.395 377.714,107.396 377.712,106.638 376.858 C 105.791 375.905,105.600 375.818,105.600 376.386 M109.143 379.173 C 110.102 380.094,110.961 380.772,111.053 380.680 C 111.145 380.588,110.361 379.835,109.310 379.006 L 107.400 377.499 109.143 379.173 M137.824 395.787 C 138.839 396.556,139.434 396.563,138.800 395.800 C 138.526 395.470,138.020 395.200,137.675 395.200 C 137.172 395.200,137.202 395.317,137.824 395.787 M285.024 397.413 C 284.596 397.736,284.427 398.000,284.647 398.000 C 284.867 398.000,285.396 397.736,285.824 397.413 C 286.251 397.090,286.420 396.825,286.200 396.825 C 285.980 396.825,285.451 397.090,285.024 397.413 M147.200 399.000 C 147.750 399.314,148.380 399.572,148.600 399.572 C 148.820 399.572,148.550 399.314,148.000 399.000 C 147.450 398.686,146.820 398.428,146.600 398.428 C 146.380 398.428,146.650 398.686,147.200 399.000 " stroke="none" fill="#4aa032" fill-rule="evenodd"></path><path id="path2" d="M142.900 27.076 C 143.285 27.176,143.915 27.176,144.300 27.076 C 144.685 26.975,144.370 26.893,143.600 26.893 C 142.830 26.893,142.515 26.975,142.900 27.076 M199.381 46.369 C 189.689 53.262,171.851 66.960,170.254 68.735 C 169.481 69.595,168.423 74.056,167.393 80.800 C 167.074 82.890,166.721 84.987,166.609 85.459 C 166.497 85.932,165.958 88.812,165.411 91.859 C 164.865 94.907,164.057 99.380,163.617 101.800 C 161.927 111.098,161.228 115.064,160.974 116.800 C 159.975 123.626,154.198 126.808,149.690 123.015 C 146.959 120.716,146.742 116.837,148.866 108.276 C 149.074 107.437,149.599 104.467,150.033 101.676 C 150.466 98.884,151.179 94.800,151.617 92.600 C 152.681 87.254,153.017 84.000,152.506 84.000 C 151.499 84.000,127.489 106.705,123.144 111.766 L 121.800 113.332 121.600 128.766 C 121.410 143.419,121.358 144.271,120.578 145.599 C 117.941 150.089,111.234 149.897,108.929 145.266 C 108.324 144.049,108.179 142.596,108.075 136.700 C 107.922 128.055,108.074 128.135,103.130 134.099 C 92.430 147.007,83.375 159.542,75.773 171.972 C 73.482 175.717,71.447 176.940,68.000 176.644 C 64.566 176.348,65.220 175.709,60.885 183.600 C 58.617 187.727,53.230 198.802,52.225 201.400 C 51.630 202.940,50.640 205.460,50.026 207.000 C 47.790 212.610,46.407 218.167,47.079 218.839 C 48.300 220.060,77.681 220.720,84.000 219.668 C 95.698 217.721,99.231 217.022,105.200 215.472 C 110.812 214.015,119.784 210.899,122.607 209.427 C 123.263 209.085,124.014 208.804,124.276 208.802 C 124.538 208.801,126.158 208.082,127.876 207.205 C 129.594 206.328,131.165 205.608,131.366 205.605 C 131.567 205.602,133.007 204.955,134.566 204.168 C 154.677 194.005,174.877 175.539,187.695 155.600 C 201.886 133.526,209.553 108.727,210.636 81.400 C 210.900 74.743,209.658 58.254,208.436 52.200 C 208.214 51.100,207.828 49.030,207.578 47.600 C 206.482 41.329,206.471 41.327,199.381 46.369 " stroke="none" fill="#70d65b" fill-rule="evenodd"></path><path id="path3" d="M212.511 21.700 C 211.522 22.979,211.477 23.294,212.352 22.826 C 212.818 22.576,213.200 22.108,213.200 21.786 C 213.200 21.069,213.017 21.046,212.511 21.700 M246.200 49.242 C 244.880 49.424,243.260 49.669,242.600 49.786 C 241.940 49.903,239.843 50.152,237.940 50.341 C 234.670 50.664,234.396 50.766,232.940 52.197 C 231.186 53.922,229.400 54.807,225.400 55.935 C 223.860 56.369,221.340 57.206,219.800 57.795 C 214.927 59.660,214.174 59.812,212.300 59.308 C 209.942 58.675,209.932 58.710,210.648 65.415 C 213.672 93.729,206.053 126.264,190.245 152.534 C 163.451 197.063,111.123 224.762,60.586 221.165 C 50.216 220.427,45.518 220.437,44.603 221.197 C 43.617 222.016,43.901 249.917,44.923 252.600 C 45.258 253.480,45.641 256.237,45.775 258.727 C 45.921 261.445,46.235 263.604,46.561 264.127 C 46.860 264.607,47.213 266.512,47.345 268.360 C 47.485 270.329,47.814 271.984,48.139 272.360 C 48.444 272.712,48.798 274.305,48.924 275.899 C 49.053 277.526,49.427 279.189,49.777 279.688 C 50.119 280.178,50.400 281.396,50.400 282.395 C 50.400 283.448,50.736 284.840,51.200 285.704 C 51.640 286.525,52.000 287.896,52.000 288.750 C 52.000 289.603,52.250 290.510,52.557 290.764 C 52.863 291.018,53.237 292.075,53.388 293.113 C 53.539 294.151,53.905 295.379,54.202 295.842 C 54.499 296.304,54.865 297.341,55.016 298.146 C 55.167 298.950,55.630 300.275,56.045 301.089 C 56.460 301.903,56.800 302.959,56.800 303.436 C 56.800 303.912,57.051 304.510,57.358 304.765 C 57.665 305.020,58.038 305.897,58.188 306.714 C 58.337 307.531,58.692 308.563,58.977 309.006 C 59.262 309.449,59.620 310.382,59.773 311.078 C 59.926 311.775,60.310 312.559,60.626 312.821 C 60.942 313.083,61.200 313.594,61.200 313.955 C 61.200 314.316,61.560 315.284,62.000 316.104 C 62.440 316.925,62.800 317.947,62.800 318.375 C 62.800 318.803,62.942 319.240,63.115 319.348 C 63.289 319.455,64.381 321.490,65.543 323.871 C 66.705 326.252,67.856 328.560,68.101 329.000 C 68.346 329.440,68.788 330.276,69.082 330.858 C 69.376 331.440,69.883 332.137,70.208 332.407 C 70.534 332.677,70.800 333.208,70.800 333.587 C 70.800 333.966,71.160 334.602,71.600 335.000 C 72.040 335.398,72.400 336.028,72.400 336.400 C 72.400 336.772,72.760 337.402,73.200 337.800 C 73.640 338.198,74.000 338.667,74.000 338.842 C 74.000 339.017,74.585 339.999,75.300 341.025 C 76.900 343.319,78.332 345.602,78.673 346.400 C 78.930 347.000,79.269 347.435,80.760 349.079 C 81.199 349.562,81.819 350.462,82.138 351.079 C 82.458 351.695,83.143 352.657,83.660 353.215 C 84.177 353.773,86.192 356.166,88.138 358.534 C 94.309 366.041,111.906 382.400,113.810 382.400 C 113.927 382.400,114.934 383.120,116.048 384.000 C 117.161 384.880,118.304 385.600,118.587 385.600 C 118.870 385.600,119.342 385.889,119.635 386.242 C 119.927 386.595,120.535 387.054,120.984 387.262 C 121.433 387.471,122.520 388.078,123.400 388.613 C 124.280 389.147,125.450 389.787,126.000 390.035 C 126.550 390.283,127.270 390.643,127.600 390.835 C 129.060 391.687,132.314 393.200,132.685 393.200 C 132.909 393.200,133.521 393.534,134.046 393.942 C 134.571 394.350,135.720 394.816,136.600 394.978 C 137.480 395.139,138.436 395.467,138.725 395.706 C 139.409 396.271,142.936 397.547,145.095 398.010 C 146.027 398.210,147.377 398.695,148.095 399.087 C 150.034 400.146,198.689 400.190,200.614 399.134 C 201.281 398.768,202.541 398.343,203.414 398.189 C 204.286 398.036,205.360 397.688,205.800 397.415 C 206.240 397.143,207.240 396.802,208.022 396.657 C 208.805 396.512,210.148 396.034,211.007 395.596 C 212.967 394.597,215.397 394.578,217.206 395.547 C 217.973 395.957,219.230 396.430,220.000 396.598 C 220.770 396.765,221.755 397.149,222.189 397.451 C 222.623 397.753,223.400 398.000,223.915 398.000 C 224.430 398.000,225.785 398.405,226.926 398.900 L 229.000 399.800 253.818 399.800 C 276.043 399.800,278.739 399.732,279.626 399.151 C 280.171 398.793,281.424 398.371,282.409 398.212 C 283.394 398.053,284.564 397.693,285.009 397.412 C 285.454 397.131,286.568 396.774,287.486 396.619 C 288.403 396.464,289.355 396.096,289.600 395.800 C 289.845 395.504,290.745 395.144,291.600 395.000 C 292.455 394.856,293.366 394.482,293.626 394.169 C 293.886 393.856,294.289 393.600,294.523 393.600 C 294.904 393.600,296.240 393.044,299.200 391.654 C 299.750 391.396,300.920 390.756,301.800 390.232 C 302.680 389.708,304.524 388.707,305.898 388.007 C 307.272 387.308,308.532 386.521,308.698 386.259 C 308.864 385.997,309.450 385.553,310.000 385.272 C 312.546 383.971,313.267 383.491,313.468 382.966 C 313.588 382.655,313.854 382.400,314.059 382.400 C 314.645 382.400,318.687 379.396,322.000 376.497 C 322.550 376.016,323.810 374.966,324.800 374.163 C 327.751 371.772,333.513 366.144,336.348 362.884 C 339.464 359.302,340.246 358.410,340.983 357.600 C 341.438 357.099,344.652 352.912,346.970 349.800 C 347.298 349.360,347.979 348.460,348.483 347.800 C 350.190 345.566,351.200 344.034,351.200 343.678 C 351.200 343.483,351.560 342.998,352.000 342.600 C 352.440 342.202,352.800 341.693,352.800 341.470 C 352.800 341.246,353.099 340.733,353.464 340.329 C 354.148 339.574,354.705 338.690,355.817 336.600 C 356.168 335.940,356.880 334.680,357.399 333.800 C 358.158 332.514,360.882 327.260,364.658 319.800 C 364.881 319.360,365.431 318.280,365.881 317.400 C 366.331 316.520,366.824 315.227,366.976 314.528 C 367.127 313.828,367.510 313.041,367.826 312.779 C 368.142 312.517,368.404 311.829,368.409 311.251 C 368.414 310.673,368.770 309.750,369.200 309.200 C 369.630 308.650,369.986 307.837,369.991 307.394 C 369.996 306.951,370.360 305.916,370.800 305.096 C 371.240 304.275,371.601 303.197,371.603 302.701 C 371.604 302.206,371.963 301.260,372.400 300.600 C 372.837 299.940,373.196 298.994,373.197 298.499 C 373.199 298.003,373.560 296.925,374.000 296.104 C 374.440 295.284,374.806 293.979,374.813 293.206 C 374.820 292.433,375.082 291.461,375.396 291.046 C 375.710 290.631,376.091 289.461,376.242 288.446 C 376.394 287.431,376.746 286.240,377.026 285.800 C 377.306 285.360,377.666 283.920,377.825 282.600 C 377.985 281.280,378.354 279.834,378.647 279.387 C 378.939 278.940,379.301 277.230,379.452 275.587 C 379.602 273.944,379.950 272.240,380.225 271.800 C 380.500 271.360,380.844 269.650,380.991 268.000 C 381.137 266.350,381.495 264.460,381.786 263.800 C 382.076 263.140,382.438 260.620,382.590 258.200 C 382.742 255.780,383.116 252.990,383.422 252.000 C 384.763 247.662,384.764 203.927,383.424 199.600 C 383.117 198.610,382.742 195.820,382.590 193.400 C 382.438 190.980,382.076 188.460,381.786 187.800 C 381.495 187.140,381.137 185.250,380.991 183.600 C 380.844 181.950,380.500 180.240,380.225 179.800 C 379.950 179.360,379.602 177.656,379.452 176.013 C 379.301 174.370,378.941 172.660,378.650 172.213 C 378.360 171.766,377.995 170.427,377.839 169.237 C 377.683 168.048,377.319 166.608,377.030 166.037 C 376.741 165.467,376.382 164.160,376.232 163.133 C 376.083 162.106,375.700 161.049,375.380 160.784 C 375.056 160.514,374.800 159.618,374.800 158.750 C 374.800 157.896,374.440 156.525,374.000 155.704 C 373.560 154.884,373.199 153.759,373.197 153.206 C 373.196 152.653,372.837 151.660,372.400 151.000 C 371.963 150.340,371.604 149.437,371.603 148.994 C 371.601 148.551,371.240 147.516,370.800 146.696 C 370.360 145.875,369.996 144.797,369.991 144.301 C 369.986 143.806,369.630 142.950,369.200 142.400 C 368.770 141.850,368.414 141.035,368.409 140.589 C 368.404 140.143,368.154 139.423,367.854 138.989 C 367.554 138.555,367.175 137.750,367.014 137.200 C 366.727 136.226,362.314 126.799,361.583 125.600 C 361.382 125.270,360.577 123.740,359.793 122.200 C 358.252 119.170,357.793 118.350,356.758 116.773 C 356.387 116.208,355.602 114.825,355.013 113.698 C 354.424 112.572,353.685 111.437,353.371 111.176 C 353.057 110.915,352.800 110.482,352.800 110.213 C 352.800 109.944,352.440 109.398,352.000 109.000 C 351.560 108.602,351.200 108.062,351.200 107.800 C 351.200 107.538,350.840 106.998,350.400 106.600 C 349.960 106.202,349.600 105.734,349.600 105.560 C 349.600 105.190,342.975 96.375,341.328 94.553 C 340.708 93.867,339.571 92.517,338.803 91.553 C 334.681 86.383,321.721 74.000,320.432 74.000 C 320.194 74.000,320.000 73.834,320.000 73.632 C 320.000 73.159,314.755 69.209,314.120 69.204 C 313.856 69.202,313.496 68.974,313.320 68.699 C 312.882 68.012,309.868 66.000,309.278 66.000 C 309.015 66.000,308.800 65.811,308.800 65.580 C 308.800 65.348,308.215 64.886,307.500 64.552 C 306.785 64.218,305.480 63.512,304.600 62.982 C 303.720 62.452,302.550 61.835,302.000 61.610 C 301.450 61.385,300.730 61.029,300.400 60.819 C 300.070 60.608,298.630 59.875,297.200 59.189 C 295.770 58.502,294.122 57.684,293.538 57.370 C 292.954 57.057,292.232 56.800,291.932 56.800 C 291.633 56.800,290.716 56.440,289.896 56.000 C 289.075 55.560,288.170 55.200,287.886 55.200 C 287.602 55.200,286.691 54.854,285.861 54.431 C 285.032 54.008,283.599 53.537,282.677 53.384 C 281.754 53.231,280.514 52.857,279.920 52.553 C 279.326 52.249,278.292 52.000,277.621 52.000 C 276.951 52.000,275.367 51.661,274.102 51.246 C 272.836 50.832,269.820 50.283,267.400 50.028 C 264.980 49.773,261.650 49.405,260.000 49.210 C 256.328 48.778,249.439 48.793,246.200 49.242 " stroke="none" fill="#654b87" fill-rule="evenodd"></path><path id="path4" d="M230.882 0.627 C 230.390 0.972,230.078 1.402,230.189 1.582 C 230.300 1.762,230.033 2.003,229.596 2.117 C 229.158 2.231,228.800 2.591,228.800 2.916 C 228.800 3.241,228.422 3.606,227.960 3.726 C 227.496 3.848,227.238 4.138,227.384 4.374 C 227.531 4.612,227.185 4.978,226.600 5.200 C 226.024 5.419,225.664 5.779,225.800 6.000 C 225.936 6.221,225.591 6.575,225.032 6.788 C 224.353 7.046,224.093 7.378,224.250 7.787 C 224.380 8.124,224.286 8.422,224.043 8.450 C 223.799 8.478,223.448 8.522,223.262 8.550 C 222.533 8.658,216.000 16.067,216.000 16.785 C 216.000 16.958,215.302 17.862,214.449 18.795 C 213.407 19.935,212.965 20.745,213.101 21.263 C 213.244 21.812,212.833 22.437,211.682 23.423 C 210.680 24.280,209.954 25.304,209.780 26.105 C 209.626 26.817,209.351 27.495,209.168 27.612 C 208.986 27.729,209.272 29.491,209.802 31.529 C 210.915 35.799,210.827 36.275,208.398 39.156 C 206.618 41.268,206.536 41.757,207.410 45.080 C 207.746 46.356,208.195 48.480,208.409 49.800 C 209.993 59.566,209.612 58.592,212.110 59.261 C 214.191 59.817,214.839 59.694,219.800 57.795 C 221.340 57.206,223.860 56.369,225.400 55.935 C 231.346 54.259,235.600 50.997,235.600 48.115 C 235.600 47.710,235.960 47.070,236.400 46.693 C 236.840 46.316,237.200 45.640,237.200 45.191 C 237.200 44.742,237.463 44.274,237.785 44.150 C 238.106 44.027,238.492 43.542,238.641 43.071 C 238.790 42.601,239.382 41.628,239.956 40.908 C 240.530 40.189,240.990 39.465,240.978 39.300 C 240.954 38.985,241.064 38.831,242.506 37.170 C 242.998 36.604,244.300 35.097,245.400 33.821 C 247.831 31.001,247.989 30.837,251.319 27.678 C 255.879 23.351,256.592 21.677,254.774 19.561 C 251.537 15.795,250.207 14.472,249.867 14.682 C 249.652 14.815,249.591 14.738,249.731 14.511 C 250.059 13.982,248.276 11.333,245.656 8.459 C 244.524 7.216,243.104 5.450,242.499 4.532 C 241.895 3.615,240.811 2.220,240.090 1.432 L 238.781 0.000 235.279 0.000 C 232.747 0.000,231.530 0.174,230.882 0.627 " stroke="none" fill="#ad7136" fill-rule="evenodd"></path><path id="path5" d="M151.800 26.021 C 152.655 26.221,152.229 26.304,150.315 26.307 C 148.301 26.312,147.456 26.487,146.933 27.010 C 146.485 27.458,146.182 27.545,146.085 27.254 C 145.918 26.754,144.800 26.620,144.800 27.100 C 144.800 27.265,143.360 27.391,141.600 27.380 C 139.840 27.369,138.400 27.525,138.400 27.727 C 138.400 27.928,138.048 28.001,137.619 27.889 C 137.189 27.777,136.514 27.922,136.119 28.211 C 135.713 28.508,134.920 28.643,134.300 28.519 C 133.674 28.395,133.200 28.476,133.200 28.709 C 133.200 28.934,132.570 29.088,131.800 29.052 C 131.030 29.016,130.397 29.169,130.394 29.393 C 130.391 29.617,130.232 29.555,130.042 29.255 C 129.823 28.909,129.642 28.868,129.548 29.143 C 129.467 29.382,128.950 29.659,128.400 29.759 C 127.850 29.859,127.310 29.975,127.200 30.016 C 127.090 30.058,126.674 30.058,126.276 30.017 C 125.878 29.975,125.301 30.150,124.994 30.405 C 124.686 30.660,124.247 30.753,124.018 30.611 C 123.788 30.469,123.600 30.554,123.600 30.800 C 123.600 31.046,123.440 31.149,123.245 31.028 C 123.050 30.907,122.675 31.069,122.410 31.387 C 122.094 31.768,121.532 31.886,120.765 31.733 C 120.031 31.586,119.600 31.666,119.600 31.950 C 119.600 32.198,119.465 32.364,119.300 32.321 C 118.786 32.185,117.200 32.837,117.200 33.183 C 117.200 33.364,116.583 33.585,115.828 33.673 C 115.073 33.761,114.544 33.690,114.652 33.516 C 114.759 33.342,114.666 33.200,114.443 33.200 C 114.221 33.200,113.881 33.483,113.688 33.829 C 113.490 34.182,112.560 34.560,111.568 34.691 C 110.596 34.819,109.239 35.350,108.552 35.870 C 107.746 36.480,107.051 36.718,106.587 36.540 C 106.060 36.338,105.955 36.403,106.190 36.784 C 106.402 37.127,106.331 37.244,105.981 37.127 C 105.689 37.030,105.106 37.294,104.686 37.714 C 104.209 38.191,103.565 38.410,102.973 38.297 C 102.451 38.197,102.119 38.270,102.236 38.458 C 102.352 38.646,102.189 38.800,101.873 38.800 C 101.557 38.800,101.064 39.082,100.779 39.426 C 100.441 39.832,99.922 39.967,99.296 39.810 C 98.744 39.671,98.431 39.727,98.563 39.940 C 98.936 40.543,96.997 41.577,95.988 41.313 C 95.440 41.169,95.172 41.230,95.317 41.466 C 95.697 42.081,94.289 43.046,93.104 42.983 C 92.513 42.951,92.124 43.077,92.239 43.263 C 92.353 43.448,92.186 43.600,91.866 43.600 C 91.547 43.600,91.175 43.889,91.039 44.242 C 90.882 44.652,90.547 44.788,90.109 44.620 C 89.732 44.476,89.548 44.481,89.699 44.632 C 90.044 44.977,88.272 46.400,87.498 46.400 C 87.181 46.400,86.507 46.760,86.000 47.200 C 84.938 48.121,84.645 48.210,85.009 47.500 C 85.149 47.225,84.800 47.505,84.232 48.123 C 83.645 48.761,82.999 49.123,82.737 48.961 C 82.470 48.796,82.384 48.851,82.534 49.093 C 82.675 49.322,82.388 49.640,81.896 49.801 C 81.403 49.961,80.865 50.139,80.700 50.196 C 80.535 50.253,80.249 50.323,80.064 50.350 C 79.880 50.377,79.515 50.868,79.255 51.439 C 78.983 52.035,78.556 52.392,78.253 52.276 C 77.962 52.164,77.476 52.416,77.174 52.836 C 76.871 53.256,76.297 53.600,75.899 53.600 C 75.501 53.600,75.074 53.863,74.950 54.185 C 74.827 54.506,74.426 54.865,74.059 54.981 C 73.693 55.097,73.214 55.599,72.996 56.096 C 72.778 56.593,72.330 57.000,72.000 57.000 C 71.670 57.000,70.980 57.450,70.468 58.000 C 69.955 58.550,69.653 58.730,69.797 58.400 C 69.968 58.010,69.859 58.044,69.486 58.500 C 69.170 58.885,68.701 59.200,68.442 59.200 C 68.184 59.200,67.611 59.814,67.168 60.564 C 66.725 61.315,66.101 62.029,65.782 62.152 C 65.462 62.274,65.200 62.610,65.200 62.896 C 65.200 63.183,64.525 63.773,63.700 64.207 C 62.875 64.641,61.965 65.312,61.677 65.698 C 61.390 66.084,60.895 66.400,60.577 66.400 C 60.260 66.400,60.000 66.593,60.000 66.829 C 60.000 67.468,58.942 68.404,58.583 68.081 C 58.412 67.926,58.402 68.027,58.562 68.304 C 58.741 68.615,58.360 69.222,57.565 69.891 C 55.559 71.578,54.004 73.347,54.002 73.943 C 54.001 74.241,53.774 74.399,53.498 74.293 C 52.972 74.091,51.901 74.968,52.248 75.315 C 52.475 75.541,50.768 77.347,50.182 77.500 C 49.972 77.555,49.795 77.735,49.790 77.900 C 49.769 78.500,48.296 80.400,47.852 80.400 C 47.439 80.400,46.903 81.377,46.259 83.300 C 46.130 83.685,45.652 84.000,45.195 84.000 C 44.724 84.000,44.416 84.223,44.482 84.515 C 44.547 84.799,44.060 85.593,43.400 86.280 C 41.709 88.041,41.221 88.688,41.428 88.895 C 41.527 88.994,41.165 89.553,40.623 90.137 C 40.081 90.722,39.729 91.200,39.839 91.200 C 39.950 91.200,39.582 91.802,39.020 92.538 C 38.459 93.274,38.000 94.163,38.000 94.515 C 38.000 94.867,37.595 95.438,37.100 95.785 C 36.605 96.132,36.245 96.502,36.300 96.608 C 36.610 97.204,36.307 97.976,35.685 98.173 C 35.292 98.298,34.942 98.781,34.906 99.247 C 34.871 99.713,34.461 100.362,33.994 100.689 C 33.479 101.050,33.240 101.528,33.386 101.907 C 33.529 102.280,33.198 102.976,32.560 103.641 C 31.973 104.255,31.596 105.012,31.719 105.332 C 31.841 105.651,31.549 106.334,31.071 106.848 C 30.592 107.363,30.185 107.968,30.167 108.192 C 30.121 108.765,29.183 110.747,28.174 112.400 C 27.705 113.170,27.368 114.115,27.425 114.500 C 27.482 114.885,27.355 115.200,27.141 115.200 C 26.927 115.200,26.847 115.353,26.963 115.539 C 27.078 115.726,26.835 116.241,26.422 116.684 C 26.009 117.127,25.618 118.009,25.552 118.645 C 25.487 119.280,25.086 120.198,24.662 120.684 C 24.092 121.337,23.949 121.928,24.113 122.944 C 24.293 124.051,24.150 124.496,23.379 125.219 C 22.597 125.954,22.458 126.402,22.617 127.670 C 22.761 128.816,22.654 129.281,22.206 129.453 C 21.873 129.581,21.600 129.936,21.600 130.243 C 21.600 130.549,21.441 130.800,21.247 130.800 C 21.053 130.800,20.863 131.565,20.826 132.500 C 20.722 135.059,20.695 135.200,20.310 135.200 C 20.113 135.200,20.071 135.391,20.216 135.625 C 20.360 135.859,20.213 136.354,19.889 136.725 C 19.510 137.159,19.335 138.078,19.397 139.300 C 19.450 140.345,19.327 141.200,19.123 141.200 C 18.920 141.200,18.852 141.361,18.974 141.558 C 19.096 141.755,18.950 142.010,18.649 142.126 C 18.336 142.246,18.151 142.776,18.216 143.368 C 18.279 143.935,18.159 144.400,17.950 144.400 C 17.729 144.400,17.652 145.515,17.766 147.070 C 17.929 149.300,17.842 149.844,17.240 150.370 C 16.843 150.717,16.579 151.360,16.653 151.800 C 16.955 153.612,16.900 155.468,16.521 156.210 C 16.291 156.660,16.162 159.365,16.221 162.500 C 16.278 165.525,16.186 168.000,16.017 168.000 C 15.516 168.000,15.501 174.692,16.001 175.000 C 16.306 175.189,16.372 177.158,16.216 181.436 C 16.070 185.459,16.132 187.600,16.395 187.600 C 16.633 187.600,16.744 188.501,16.666 189.800 C 16.593 191.010,16.621 191.912,16.728 191.806 C 17.220 191.313,17.798 193.656,17.781 196.074 C 17.770 197.544,17.920 198.650,18.113 198.530 C 18.307 198.410,18.414 198.647,18.351 199.056 C 18.205 200.011,18.723 202.000,19.118 202.000 C 19.285 202.000,19.368 202.960,19.304 204.134 C 19.208 205.865,19.373 206.543,20.172 207.721 C 20.946 208.861,21.117 209.523,20.964 210.787 C 20.844 211.781,20.933 212.400,21.195 212.400 C 21.735 212.400,22.598 214.314,22.754 215.857 C 22.779 216.109,23.079 216.422,23.421 216.553 C 23.827 216.708,23.942 216.630,23.755 216.327 C 23.597 216.072,23.942 216.209,24.522 216.632 C 25.101 217.054,25.581 217.546,25.587 217.724 C 25.594 217.902,25.788 217.931,26.018 217.789 C 26.247 217.647,26.657 217.715,26.928 217.940 C 27.199 218.165,27.956 218.280,28.610 218.195 C 29.884 218.030,32.104 218.708,31.816 219.174 C 31.720 219.329,32.218 219.396,32.921 219.325 C 33.958 219.219,34.049 219.263,33.400 219.561 C 32.839 219.819,33.286 219.883,34.891 219.774 C 36.891 219.640,37.239 219.726,37.628 220.453 C 37.976 221.102,38.327 221.235,39.221 221.056 C 39.853 220.929,40.473 220.995,40.600 221.200 C 40.991 221.833,43.741 221.512,44.836 220.706 C 45.810 219.990,46.182 219.971,51.036 220.402 C 70.864 222.161,87.875 220.876,105.000 216.327 C 109.942 215.014,118.440 212.141,121.956 210.595 C 123.702 209.828,125.254 209.200,125.407 209.200 C 125.560 209.200,128.771 207.689,132.542 205.843 C 170.211 187.404,199.232 149.773,208.000 108.000 C 210.641 95.415,211.858 77.773,210.813 67.200 C 210.541 64.450,210.241 61.390,210.147 60.400 C 210.052 59.410,209.710 57.160,209.387 55.400 C 209.063 53.640,208.615 51.041,208.390 49.624 C 208.166 48.208,207.879 46.948,207.753 46.824 C 207.472 46.547,207.903 50.031,208.420 52.200 C 209.563 57.002,210.902 74.655,210.636 81.400 C 209.556 108.718,201.886 133.525,187.695 155.600 C 176.644 172.790,160.680 188.380,142.400 199.833 C 139.025 201.947,132.051 205.596,131.366 205.605 C 131.165 205.608,129.594 206.328,127.876 207.205 C 126.158 208.082,124.538 208.801,124.276 208.802 C 124.014 208.804,123.263 209.085,122.607 209.427 C 119.784 210.899,110.812 214.015,105.200 215.472 C 99.231 217.022,95.698 217.721,84.000 219.668 C 77.681 220.720,48.300 220.060,47.079 218.839 C 46.407 218.167,47.790 212.610,50.026 207.000 C 50.640 205.460,51.630 202.940,52.225 201.400 C 53.230 198.802,58.617 187.727,60.885 183.600 C 65.220 175.709,64.566 176.348,68.000 176.644 C 71.447 176.940,73.482 175.717,75.773 171.972 C 83.375 159.542,92.430 147.007,103.130 134.099 C 108.074 128.135,107.922 128.055,108.075 136.700 C 108.179 142.596,108.324 144.049,108.929 145.266 C 111.234 149.897,117.941 150.089,120.578 145.599 C 121.358 144.271,121.410 143.419,121.600 128.766 L 121.800 113.332 123.144 111.766 C 127.489 106.705,151.499 84.000,152.506 84.000 C 153.017 84.000,152.681 87.254,151.617 92.600 C 151.179 94.800,150.466 98.884,150.033 101.676 C 149.599 104.467,149.074 107.437,148.866 108.276 C 146.742 116.837,146.959 120.716,149.690 123.015 C 154.198 126.808,159.975 123.626,160.974 116.800 C 161.228 115.064,161.927 111.098,163.617 101.800 C 164.057 99.380,164.865 94.907,165.411 91.859 C 165.958 88.812,166.497 85.932,166.609 85.459 C 166.721 84.987,167.074 82.890,167.393 80.800 C 168.423 74.056,169.481 69.595,170.254 68.735 C 173.222 65.435,204.416 42.271,205.596 42.491 C 205.928 42.552,206.522 43.502,206.916 44.601 C 207.310 45.701,207.529 46.060,207.404 45.400 C 207.278 44.740,207.067 43.435,206.935 42.500 C 206.735 41.077,206.550 40.800,205.800 40.800 C 204.949 40.800,197.354 45.862,190.886 50.741 C 189.239 51.984,187.421 53.353,186.846 53.785 C 168.707 67.397,167.853 68.285,167.004 74.400 C 166.867 75.390,166.399 78.180,165.963 80.600 C 165.528 83.020,164.815 86.980,164.380 89.400 C 163.944 91.820,163.396 94.700,163.163 95.800 C 162.930 96.900,162.494 99.420,162.194 101.400 C 159.481 119.300,158.326 122.564,154.529 123.073 C 149.574 123.738,148.035 120.195,149.608 111.742 C 150.608 106.366,151.684 100.469,152.808 94.200 C 153.281 91.560,153.925 88.024,154.238 86.342 C 155.614 78.951,153.469 80.190,136.200 96.766 C 127.885 104.747,121.127 111.802,120.564 113.087 C 120.112 114.118,120.000 117.309,119.999 129.087 C 119.997 146.509,119.689 147.600,114.782 147.600 C 110.647 147.600,109.844 145.784,109.565 135.800 C 109.295 126.149,109.457 127.200,108.240 127.200 C 105.614 127.200,87.692 150.503,75.614 169.623 C 72.159 175.092,70.205 176.121,66.014 174.677 C 61.601 173.157,61.875 170.063,67.174 161.600 C 68.482 159.510,70.112 156.900,70.795 155.800 C 71.478 154.700,73.195 152.180,74.609 150.200 C 76.023 148.220,77.849 145.610,78.667 144.400 C 79.485 143.190,80.758 141.480,81.496 140.600 C 82.234 139.720,84.972 136.300,87.580 133.000 C 90.188 129.700,93.600 125.482,95.161 123.627 C 99.629 118.318,99.457 118.223,87.556 119.418 C 78.905 120.286,75.600 118.796,75.600 114.028 C 75.600 108.574,77.176 107.934,94.400 106.400 C 99.570 105.939,104.880 105.392,106.200 105.184 C 107.520 104.976,109.305 104.805,110.167 104.803 C 111.677 104.800,112.100 104.438,121.767 94.875 C 127.285 89.417,133.690 83.257,136.000 81.186 C 140.935 76.762,142.254 75.294,141.748 74.788 C 141.402 74.442,129.223 75.473,123.200 76.357 C 111.683 78.048,108.041 76.954,107.703 71.700 C 107.328 65.854,110.598 64.750,134.631 62.606 C 137.947 62.310,141.727 61.881,143.031 61.654 C 144.334 61.426,147.650 61.029,150.400 60.771 C 160.534 59.822,160.425 59.862,166.904 54.694 C 172.828 49.970,175.597 47.844,179.791 44.797 C 181.156 43.806,182.913 42.456,183.696 41.797 C 184.479 41.139,186.044 39.970,187.174 39.200 C 188.303 38.430,190.201 37.080,191.390 36.200 C 192.580 35.320,194.283 34.070,195.176 33.423 C 196.841 32.217,197.456 30.400,196.200 30.400 C 195.247 30.400,195.048 30.348,194.200 29.875 C 193.195 29.314,193.176 29.310,190.976 29.250 C 189.724 29.216,189.241 29.057,189.434 28.745 C 189.636 28.419,189.304 28.366,188.269 28.561 C 187.327 28.737,186.435 28.636,185.711 28.271 C 185.100 27.962,184.350 27.798,184.044 27.907 C 183.739 28.015,183.592 27.936,183.718 27.732 C 183.852 27.516,182.787 27.368,181.174 27.380 C 179.648 27.391,178.400 27.265,178.400 27.100 C 178.400 26.935,178.040 26.800,177.600 26.800 C 177.160 26.800,176.800 26.986,176.800 27.214 C 176.800 27.476,176.468 27.446,175.900 27.133 C 174.805 26.531,174.187 26.389,172.500 26.350 C 171.785 26.334,171.200 26.178,171.200 26.004 C 171.200 25.831,166.565 25.700,160.900 25.714 C 155.235 25.728,151.140 25.866,151.800 26.021 M156.707 26.286 C 156.106 26.377,155.026 26.379,154.307 26.290 C 153.588 26.201,154.080 26.126,155.400 26.124 C 156.720 26.122,157.308 26.195,156.707 26.286 M167.500 26.287 C 166.895 26.378,165.905 26.378,165.300 26.287 C 164.695 26.195,165.190 26.120,166.400 26.120 C 167.610 26.120,168.105 26.195,167.500 26.287 M202.140 27.220 C 201.908 27.452,201.345 27.669,200.887 27.703 C 200.430 27.738,200.144 27.909,200.251 28.083 C 200.359 28.257,200.246 28.400,200.000 28.400 C 199.754 28.400,199.664 28.580,199.800 28.800 C 200.228 29.492,202.796 29.276,203.085 28.524 C 203.230 28.145,203.135 27.778,202.869 27.690 C 202.609 27.603,202.497 27.367,202.621 27.166 C 202.926 26.672,202.657 26.703,202.140 27.220 M204.600 27.200 C 205.701 27.673,206.092 27.673,205.800 27.200 C 205.664 26.980,205.158 26.813,204.676 26.828 C 203.831 26.855,203.829 26.869,204.600 27.200 M208.046 27.543 C 208.020 27.854,207.744 27.987,207.400 27.855 C 207.031 27.714,206.800 27.856,206.800 28.225 C 206.800 29.036,207.787 29.362,208.676 28.846 C 209.074 28.614,209.188 28.419,208.929 28.412 C 208.670 28.405,208.376 28.085,208.276 27.700 C 208.175 27.314,208.072 27.244,208.046 27.543 M197.783 29.116 C 197.898 29.232,197.810 29.547,197.586 29.816 C 197.027 30.490,198.316 30.967,199.051 30.358 C 199.861 29.686,199.724 29.317,198.586 29.099 C 198.029 28.993,197.667 29.000,197.783 29.116 " stroke="none" fill="#58b741" fill-rule="evenodd"></path><path id="path6" d="M142.900 27.076 C 143.285 27.176,143.915 27.176,144.300 27.076 C 144.685 26.975,144.370 26.893,143.600 26.893 C 142.830 26.893,142.515 26.975,142.900 27.076 M199.381 46.369 C 189.689 53.262,171.851 66.960,170.254 68.735 C 169.481 69.595,168.423 74.056,167.393 80.800 C 167.074 82.890,166.721 84.987,166.609 85.459 C 166.497 85.932,165.958 88.812,165.411 91.859 C 164.865 94.907,164.057 99.380,163.617 101.800 C 161.927 111.098,161.228 115.064,160.974 116.800 C 159.975 123.626,154.198 126.808,149.690 123.015 C 146.959 120.716,146.742 116.837,148.866 108.276 C 149.074 107.437,149.599 104.467,150.033 101.676 C 150.466 98.884,151.179 94.800,151.617 92.600 C 152.681 87.254,153.017 84.000,152.506 84.000 C 151.499 84.000,127.489 106.705,123.144 111.766 L 121.800 113.332 121.600 128.766 C 121.410 143.419,121.358 144.271,120.578 145.599 C 117.941 150.089,111.234 149.897,108.929 145.266 C 108.324 144.049,108.179 142.596,108.075 136.700 C 107.922 128.055,108.074 128.135,103.130 134.099 C 92.430 147.007,83.375 159.542,75.773 171.972 C 73.482 175.717,71.447 176.940,68.000 176.644 C 64.566 176.348,65.220 175.709,60.885 183.600 C 58.617 187.727,53.230 198.802,52.225 201.400 C 51.630 202.940,50.640 205.460,50.026 207.000 C 47.790 212.610,46.407 218.167,47.079 218.839 C 48.300 220.060,77.681 220.720,84.000 219.668 C 95.698 217.721,99.231 217.022,105.200 215.472 C 110.812 214.015,119.784 210.899,122.607 209.427 C 123.263 209.085,124.014 208.804,124.276 208.802 C 124.538 208.801,126.158 208.082,127.876 207.205 C 129.594 206.328,131.165 205.608,131.366 205.605 C 131.567 205.602,133.007 204.955,134.566 204.168 C 154.677 194.005,174.877 175.539,187.695 155.600 C 201.886 133.526,209.553 108.727,210.636 81.400 C 210.900 74.743,209.658 58.254,208.436 52.200 C 208.214 51.100,207.828 49.030,207.578 47.600 C 206.482 41.329,206.471 41.327,199.381 46.369 " stroke="none" fill="#70d65b" fill-rule="evenodd"></path></g></svg>