<?xml version="1.0" encoding="utf-8"?>
<!-- Generator: Adobe Illustrator 18.0.0, SVG Export Plug-In . SVG Version: 6.00 Build 0)  -->
<!DOCTYPE svg PUBLIC "-//W3C//DTD SVG 1.1//EN" "http://www.w3.org/Graphics/SVG/1.1/DTD/svg11.dtd">
<svg version="1.1" id="Layer_1" xmlns="http://www.w3.org/2000/svg" xmlns:xlink="http://www.w3.org/1999/xlink" x="0px" y="0px"
	 viewBox="0 0 64 64" enable-background="new 0 0 64 64" xml:space="preserve">
<path fill="#231F20" d="M49.7,35.9c-2.1-2.4-3.2-5.2-3.2-8.1v-0.5c0-6.3-4.2-11.6-10-12.9c0.9-2.8,3.5-8.3,9.3-10.5
	c1-0.4,1.5-1.5,1.2-2.6c-0.4-1-1.6-1.5-2.6-1.2c-4.9,1.9-8,5.5-9.8,8.8c-0.7-1.8-1.9-3.7-3.6-5.1C27.4,0.6,22.6,0.2,20,0.2
	c-0.8,0-1.3,0-1.4,0.1l-1.9,0.2l0.1,1.9c0,0.3,0.3,7.6,5.1,11.8c1.2,1.1,2.7,1.9,4.1,2.4c-3.3,2.4-5.4,6.2-5.4,10.5v0.7
	c0,2.9-1.2,5.7-3.3,8.1c-2.9,3.2-4.4,7.4-4.2,11.8c0.3,6.6,4.8,12.7,11.2,15c3,1.1,6.1,1.3,9.2,0.5c1.3,0.3,2.5,0.4,3.8,0.4
	c1.8,0,3.7-0.3,5.5-1c6.4-2.3,10.9-8.4,11.2-15C54,43.3,52.6,39.1,49.7,35.9z M21.1,4.2c1.9,0.1,5,0.6,7.2,2.5
	c2.2,1.9,3.1,4.9,3.4,6.8c-1.9-0.1-5-0.6-7.2-2.5C22.4,9.1,21.4,6.2,21.1,4.2z M41.3,58.8c-1.3,0.5-2.7,0.7-4.1,0.7
	c-1.1,0-2.2-0.1-3.2-0.4L33.4,59l-0.5,0.1c-2.5,0.7-5,0.6-7.3-0.3c-4.9-1.8-8.4-6.4-8.6-11.4c-0.1-3.3,1-6.5,3.2-8.9
	c2.8-3.1,4.3-6.9,4.3-10.8V27c0-4.9,4-9,9-9c0.5,0,1,0,1.6,0.1c4.2,0.7,7.4,4.7,7.4,9.2v0.5c0,3.8,1.5,7.6,4.2,10.7
	c2.2,2.5,3.3,5.6,3.1,8.9C49.6,52.4,46.2,57,41.3,58.8z"/>
</svg>
