<?xml version="1.0" encoding="utf-8"?>
<!-- Generator: Adobe Illustrator 18.0.0, SVG Export Plug-In . SVG Version: 6.00 Build 0)  -->
<!DOCTYPE svg PUBLIC "-//W3C//DTD SVG 1.1//EN" "http://www.w3.org/Graphics/SVG/1.1/DTD/svg11.dtd">
<svg version="1.1" id="Layer_1" xmlns="http://www.w3.org/2000/svg" xmlns:xlink="http://www.w3.org/1999/xlink" x="0px" y="0px"
	 viewBox="0 0 64 64" enable-background="new 0 0 64 64" xml:space="preserve">
<g>
	<g>
		<g>
			<path fill="#EDEDED" d="M32,0c17.7,0,32,14.3,32,32S49.7,64,32,64S0,49.7,0,32S14.4,0,32,0z"/>
		</g>
	</g>
	<g>
		<g>
			<g>
				<circle fill="#F96262" cx="22.7" cy="42.8" r="9.3"/>
			</g>
		</g>
		<g>
			<g>
				<circle fill="#F96262" cx="42.7" cy="40.7" r="9.3"/>
			</g>
		</g>
		<g>
			<g>
				<g>
					<path fill="#634B49" d="M22.7,35.6c-0.5,0-1-0.4-1-1c-0.5-17,9.5-24.2,9.9-24.5c0.3-0.2,0.8-0.2,1.1,0c0.3,0.2,0.5,0.6,0.4,1
						c0,0.1-2.3,13,7.3,21.6c0.4,0.4,0.4,1,0.1,1.4c-0.4,0.4-1,0.4-1.4,0.1c-7.8-7-8.4-16.2-8.2-20.7c-2.7,2.9-7.6,9.7-7.2,21.1
						C23.8,35.1,23.3,35.6,22.7,35.6C22.8,35.6,22.8,35.6,22.7,35.6z"/>
				</g>
			</g>
		</g>
	</g>
	<g>
		<g>
			<path fill="#39BC77" d="M43.8,22.9c0,0-6,0-9.4-3.6s-3-9.6-3-9.6s6,0,9.4,3.6S43.8,22.9,43.8,22.9z"/>
		</g>
	</g>
	<g>
		<g>
			<path fill="#92D855" d="M24.4,26.3c0,0-2.4-5.5-0.4-10.1s7.6-6.6,7.6-6.6S34,15.1,32,19.7S24.4,26.3,24.4,26.3z"/>
		</g>
	</g>
	<g>
		<g>
			<path fill="#FF9F9F" d="M22.7,37.1c-1.3,0-2.4-0.4-3.2-1.1c0.2,1.3,1.6,2.3,3.2,2.3c1.6,0,3-1,3.2-2.3
				C25.1,36.7,24,37.1,22.7,37.1z"/>
		</g>
	</g>
	<g>
		<g>
			<path fill="#FF9F9F" d="M40.9,35.6c-1.1,0.7-2.3,0.9-3.3,0.8c0.9,1,2.6,1.1,3.9,0.2c1.4-0.9,2-2.4,1.5-3.7
				C42.7,34,42,35,40.9,35.6z"/>
		</g>
	</g>
</g>
</svg>
