<?xml version="1.0" encoding="utf-8"?>
<!-- Generator: Adobe Illustrator 18.0.0, SVG Export Plug-In . SVG Version: 6.00 Build 0)  -->
<!DOCTYPE svg PUBLIC "-//W3C//DTD SVG 1.1//EN" "http://www.w3.org/Graphics/SVG/1.1/DTD/svg11.dtd">
<svg version="1.1" id="Layer_1" xmlns="http://www.w3.org/2000/svg" xmlns:xlink="http://www.w3.org/1999/xlink" x="0px" y="0px"
	 viewBox="0 0 64 64" enable-background="new 0 0 64 64" xml:space="preserve">
<g>
	<g>
		<g>
			<path fill="#ED5668" d="M32,0c17.7,0,32,14.3,32,32S49.7,64,32,64S0,49.7,0,32S14.4,0,32,0z"/>
		</g>
	</g>
	<g>
		<g>
			<path fill="#C3D659" d="M39.6,26.2v-0.4c0-4.4-3.1-8.4-7.5-9.2c-5.7-1-10.6,3.4-10.6,8.9v0.6c0,2.9-1.2,5.6-3.1,7.8
				c-2,2.2-3.2,5.3-3.1,8.5c0.2,4.9,3.5,9.2,8.1,10.9c2.5,0.9,4.9,0.9,7,0.3c2.2,0.6,4.5,0.6,7-0.3c4.6-1.7,7.9-6,8.1-10.9
				c0.1-3.3-1-6.3-3-8.5C40.8,31.8,39.6,29,39.6,26.2z"/>
		</g>
	</g>
	<g>
		<g>
			
				<ellipse transform="matrix(0.4141 0.9102 -0.9102 0.4141 59.6931 -12.139)" fill="#F4F47D" cx="39.3" cy="40.3" rx="4.5" ry="3.1"/>
		</g>
	</g>
	<g>
		<g>
			<ellipse fill="#AFC64F" cx="30.7" cy="19.5" rx="3" ry="1.5"/>
		</g>
	</g>
	<g>
		<g>
			<path fill="#68B51F" d="M48.7,15c0,0-3.3,5-8.3,5.8c-5,0.8-9.7-2.9-9.7-2.9s3.3-5,8.3-5.8S48.7,15,48.7,15z"/>
		</g>
	</g>
	<g>
		<g>
			<path fill="#8C5248" d="M30.7,20L30.7,20c-0.6,0-1.1-0.5-1.1-1.1c0,0-0.2-5.1-1-6.9c-0.8-1.8,2.3-2.8,3-1s0.1,8.1,0.1,8.1
				C31.7,19.6,31.3,20,30.7,20z"/>
		</g>
	</g>
</g>
</svg>
