<svg id="Layer_1" data-name="Layer 1" xmlns="http://www.w3.org/2000/svg" viewBox="0 0 500 500"><defs><style>.cls-1{fill:#7e64ab;}.cls-2{fill:#6e55a3;}.cls-3,.cls-7{fill:none;}.cls-3,.cls-6{stroke:#000;}.cls-3,.cls-6,.cls-7{stroke-linecap:round;stroke-linejoin:round;stroke-width:20px;}.cls-4{fill:#3bb777;}.cls-5{fill:#239957;}.cls-6,.cls-8{fill:#fff;}.cls-7{stroke:#fff;}</style></defs><title>mangosteen</title><circle class="cls-1" cx="318.45" cy="274.31" r="170.69"/><path class="cls-2" d="M358.08,108.43a180.11,180.11,0,0,1,81.58,150.81c0,94.74-73.07,172.25-165.91,179.64A170.19,170.19,0,0,0,489.14,274.31C489.14,193.7,433.2,126.32,358.08,108.43Z"/><circle class="cls-3" cx="318.45" cy="274.31" r="170.69"/><path class="cls-4" d="M294.9,149.06c-9,29.71-37.1,35.56-66.81,26.55s-49.81-29.49-40.79-59.2,57.49-48.93,87.2-39.92S303.91,119.34,294.9,149.06Z"/><path class="cls-4" d="M294.9,149.06c-9,29.71-37.1,35.56-66.81,26.55s-49.81-29.49-40.79-59.2,57.49-48.93,87.2-39.92S303.91,119.34,294.9,149.06Z"/><path class="cls-5" d="M238,142.83C214.3,135.62,197,121,195.46,100.32a55.45,55.45,0,0,0-8.16,16.09c-9,29.71,11.07,50.18,40.79,59.2s57.79,3.16,66.81-26.55a55.79,55.79,0,0,0,2.15-17.92C284.28,147.5,261.77,150,238,142.83Z"/><path class="cls-3" d="M294.9,149.06c-9,29.71-37.1,35.56-66.81,26.55s-49.81-29.49-40.79-59.2,57.49-48.93,87.2-39.92S303.91,119.34,294.9,149.06Z"/><path class="cls-4" d="M342,149.06c9,29.71,37.1,35.56,66.81,26.55s49.81-29.49,40.79-59.2-57.49-48.93-87.2-39.92S333,119.34,342,149.06Z"/><path class="cls-4" d="M342,149.06c9,29.71,37.1,35.56,66.81,26.55s49.81-29.49,40.79-59.2-57.49-48.93-87.2-39.92S333,119.34,342,149.06Z"/><path class="cls-5" d="M398.87,142.83c23.74-7.21,41.05-21.82,42.58-42.51a55.45,55.45,0,0,1,8.16,16.09c9,29.71-11.08,50.18-40.79,59.2S351,178.77,342,149.06a55.81,55.81,0,0,1-2.16-17.92C352.62,147.5,375.14,150,398.87,142.83Z"/><path class="cls-3" d="M342,149.06c9,29.71,37.1,35.56,66.81,26.55s49.81-29.49,40.79-59.2-57.49-48.93-87.2-39.92S333,119.34,342,149.06Z"/><path class="cls-3" d="M330.86,23c-7.83,25.5-15.65,65.44-3.65,101.43"/><path class="cls-4" d="M382.76,143.23c0,35.51-28.79,51.24-64.31,51.24s-64.3-15.73-64.3-51.24a64.31,64.31,0,0,1,128.61,0Z"/><path class="cls-4" d="M382.76,143.23c0,35.51-28.79,51.24-64.31,51.24s-64.3-15.73-64.3-51.24a64.31,64.31,0,0,1,128.61,0Z"/><path class="cls-5" d="M318.45,155.3c-28.36,0-52.17-10.25-60.71-32.39a63.65,63.65,0,0,0-3.59,20.32c0,35.51,28.79,51.24,64.3,51.24s64.31-15.73,64.31-51.24a63.39,63.39,0,0,0-3.6-20.32C370.62,145.05,346.82,155.3,318.45,155.3Z"/><path class="cls-3" d="M382.76,143.23c0,35.51-28.79,51.24-64.31,51.24s-64.3-15.73-64.3-51.24a64.31,64.31,0,0,1,128.61,0Z"/><path class="cls-1" d="M161.45,477A150.59,150.59,0,0,0,312,326.41H10.86A150.59,150.59,0,0,0,161.45,477Z"/><path class="cls-2" d="M274.92,326.41c0,76.87-57.63,140.17-132,149.33A149.74,149.74,0,0,0,312,326.41Z"/><path class="cls-6" d="M166.3,326.41s58.16-92.8-6.4-92.8C37,200.87,37.16,326.41,37.16,326.41"/><path class="cls-6" d="M153.49,326.41s-58.16-92.8,6.41-92.8c122.88-32.74,122.73,92.8,122.73,92.8"/><path class="cls-6" d="M220.87,326.41s0-104.2-64.57-104.2-64.57,104.2-64.57,104.2"/><path class="cls-3" d="M161.45,477A150.59,150.59,0,0,0,312,326.41H10.86A150.59,150.59,0,0,0,161.45,477Z"/><path class="cls-7" d="M63,386.79s9,22.78,30,36.9"/><circle class="cls-8" cx="49.3" cy="357.41" r="12.13"/></svg>