<?xml version="1.0" encoding="utf-8"?>
<!-- Generator: Adobe Illustrator 18.0.0, SVG Export Plug-In . SVG Version: 6.00 Build 0)  -->
<!DOCTYPE svg PUBLIC "-//W3C//DTD SVG 1.1//EN" "http://www.w3.org/Graphics/SVG/1.1/DTD/svg11.dtd">
<svg version="1.1" id="Layer_1" xmlns="http://www.w3.org/2000/svg" xmlns:xlink="http://www.w3.org/1999/xlink" x="0px" y="0px"
	 viewBox="0 0 64 64" enable-background="new 0 0 64 64" xml:space="preserve">
<g>
	<g>
		<path fill="#231F20" d="M47.8,28c-1.7,0-3.3,0.3-4.9,0.7C34,20,34,10.3,34.5,6H40c1.7,0,3-1.3,3-3s-1.3-3-3-3h-8c0,0,0,0,0,0H20
			c-1.7,0-3,1.3-3,3s1.3,3,3,3h3.4c-4.5,4.8-9.5,12.9-10.3,25.9C5.6,33.3,0,39.9,0,47.8C0,56.7,7.3,64,16.2,64s16.2-7.3,16.2-16.2
			c0-8-5.8-14.6-13.3-15.9c0.8-11.6,5.5-18.6,9.2-22.3c0.1,5.9,1.8,14.3,9.1,22.2c-2.1,1.7-3.8,4-4.8,6.6c1.6,2.8,2.5,6,2.5,9.4
			c0,1.9-0.3,3.8-0.8,5.6c2.9,4.3,7.8,7.1,13.4,7.1c8.9,0,16.2-7.3,16.2-16.2S56.7,28,47.8,28z"/>
	</g>
</g>
</svg>
