<svg id="svg" version="1.1" xmlns="http://www.w3.org/2000/svg" xmlns:xlink="http://www.w3.org/1999/xlink" width="400" height="400" viewBox="0, 0, 400,400"><g id="svgg"><path id="path0" d="M270.100 1.059 C 269.825 1.173,269.600 1.522,269.600 1.833 C 269.600 2.284,268.789 2.400,265.633 2.400 C 261.333 2.400,260.400 2.586,260.400 3.443 C 260.400 3.866,259.727 4.000,257.603 4.000 C 255.240 4.000,254.729 4.124,254.307 4.800 C 253.912 5.433,253.374 5.600,251.731 5.600 C 250.005 5.600,249.611 5.735,249.400 6.400 C 249.188 7.068,248.795 7.200,247.020 7.200 C 245.230 7.200,244.860 7.327,244.684 8.000 C 244.530 8.587,244.138 8.800,243.209 8.800 C 242.513 8.800,241.695 9.048,241.391 9.352 C 241.088 9.655,240.030 10.025,239.040 10.173 C 237.748 10.367,237.170 10.664,236.991 11.227 C 236.854 11.659,236.584 11.913,236.390 11.794 C 235.787 11.421,234.000 12.057,234.000 12.643 C 234.000 12.950,233.646 13.200,233.214 13.200 C 232.782 13.200,232.235 13.560,232.000 14.000 C 231.723 14.517,231.162 14.800,230.413 14.800 C 229.605 14.800,229.177 15.042,229.000 15.600 C 228.860 16.040,228.495 16.400,228.187 16.400 C 227.880 16.400,227.435 16.760,227.200 17.200 C 226.920 17.724,226.362 18.000,225.586 18.000 C 224.667 18.000,224.400 18.180,224.400 18.800 C 224.400 19.333,224.133 19.600,223.600 19.600 C 223.067 19.600,222.800 19.867,222.800 20.400 C 222.800 20.933,222.533 21.200,222.000 21.200 C 221.467 21.200,221.200 21.467,221.200 22.000 C 221.200 22.533,220.933 22.800,220.400 22.800 C 219.867 22.800,219.600 23.067,219.600 23.600 C 219.600 24.133,219.333 24.400,218.800 24.400 C 218.267 24.400,218.000 24.667,218.000 25.200 C 218.000 25.733,217.733 26.000,217.200 26.000 C 216.760 26.000,216.400 26.258,216.400 26.573 C 216.400 26.888,216.040 27.260,215.600 27.400 C 215.160 27.540,214.800 27.912,214.800 28.227 C 214.800 28.542,214.440 29.160,214.000 29.600 C 213.560 30.040,213.200 30.760,213.200 31.200 C 213.200 31.640,212.949 32.000,212.643 32.000 C 212.060 32.000,211.600 32.831,211.600 33.885 C 211.600 34.227,210.970 35.100,210.200 35.826 C 209.126 36.839,208.800 37.467,208.800 38.526 C 208.800 39.570,208.605 39.958,208.000 40.116 C 207.394 40.275,207.200 40.662,207.200 41.716 C 207.200 42.770,207.006 43.157,206.400 43.316 C 205.787 43.476,205.600 43.862,205.600 44.963 C 205.600 45.925,205.416 46.400,205.043 46.400 C 204.328 46.400,204.000 47.277,204.000 49.186 C 204.000 50.370,203.823 50.753,203.200 50.916 C 202.523 51.093,202.400 51.462,202.400 53.316 C 202.400 55.170,202.277 55.539,201.600 55.716 C 200.896 55.900,200.800 56.262,200.800 58.736 C 200.800 61.195,200.700 61.578,200.000 61.800 C 199.204 62.053,198.886 64.795,199.164 69.018 C 199.216 69.814,198.959 70.494,198.422 70.980 C 197.905 71.448,197.600 72.220,197.600 73.062 C 197.600 74.133,197.441 74.400,196.800 74.400 C 196.267 74.400,196.000 74.133,196.000 73.600 C 196.000 73.083,195.733 72.800,195.247 72.800 C 194.830 72.800,194.400 72.443,194.284 72.000 C 194.133 71.422,193.738 71.200,192.864 71.200 C 192.005 71.200,191.580 70.968,191.400 70.400 C 191.260 69.960,190.798 69.600,190.373 69.600 C 189.948 69.600,189.600 69.349,189.600 69.043 C 189.600 68.436,188.761 68.000,187.594 68.000 C 187.187 68.000,186.740 67.640,186.600 67.200 C 186.413 66.612,185.995 66.400,185.020 66.400 C 184.030 66.400,183.640 66.197,183.484 65.600 C 183.362 65.134,182.938 64.800,182.470 64.800 C 181.243 64.800,180.400 64.375,180.400 63.757 C 180.400 63.451,180.040 63.200,179.600 63.200 C 179.160 63.200,178.800 62.950,178.800 62.643 C 178.800 62.029,177.001 61.429,176.355 61.828 C 176.130 61.967,175.851 61.715,175.734 61.269 C 175.584 60.696,175.063 60.380,173.961 60.193 C 173.008 60.032,172.400 59.710,172.400 59.365 C 172.400 58.990,171.946 58.800,171.047 58.800 C 170.030 58.800,169.641 58.601,169.484 58.000 C 169.325 57.394,168.938 57.200,167.884 57.200 C 166.830 57.200,166.443 57.006,166.284 56.400 C 166.106 55.720,165.738 55.600,163.837 55.600 C 161.867 55.600,161.600 55.505,161.600 54.800 C 161.600 54.133,161.333 54.000,160.000 54.000 C 158.667 54.000,158.400 53.867,158.400 53.200 C 158.400 52.533,158.133 52.400,156.800 52.400 C 155.467 52.400,155.200 52.267,155.200 51.600 C 155.200 50.899,154.933 50.800,153.047 50.800 C 151.230 50.800,150.861 50.675,150.684 50.000 C 150.507 49.323,150.138 49.200,148.284 49.200 C 146.430 49.200,146.061 49.077,145.884 48.400 C 145.706 47.720,145.338 47.600,143.437 47.600 C 141.799 47.600,141.200 47.452,141.200 47.047 C 141.200 46.395,139.989 46.013,137.900 46.005 C 136.877 46.002,136.400 45.820,136.400 45.435 C 136.400 44.824,134.337 44.365,132.040 44.466 C 131.215 44.502,130.502 44.281,130.226 43.904 C 129.936 43.507,128.764 43.174,126.988 42.984 C 125.368 42.810,124.033 42.452,123.795 42.125 C 123.129 41.215,116.581 41.555,116.655 42.496 C 116.685 42.878,116.538 43.085,116.329 42.956 C 115.645 42.533,113.200 43.207,113.200 43.818 C 113.200 44.138,112.991 44.400,112.736 44.400 C 112.149 44.400,110.000 46.780,110.000 47.429 C 110.000 47.696,109.730 48.018,109.400 48.145 C 108.913 48.332,108.800 49.280,108.800 53.200 C 108.800 57.120,108.913 58.068,109.400 58.255 C 109.730 58.382,110.000 58.742,110.000 59.055 C 110.000 59.369,110.263 59.726,110.585 59.850 C 110.906 59.973,111.279 60.417,111.412 60.837 C 111.545 61.257,111.981 61.600,112.380 61.600 C 112.780 61.600,113.201 61.960,113.316 62.400 C 113.475 63.006,113.862 63.200,114.916 63.200 C 115.970 63.200,116.357 63.394,116.516 64.000 C 116.702 64.710,117.062 64.800,119.716 64.800 C 122.370 64.800,122.730 64.890,122.916 65.600 C 123.102 66.311,123.462 66.400,126.163 66.400 C 128.482 66.400,129.200 66.531,129.200 66.953 C 129.200 67.581,130.399 67.987,132.280 67.995 C 133.035 67.998,133.708 68.264,133.920 68.642 C 134.140 69.037,135.036 69.370,136.240 69.505 C 137.318 69.626,138.391 69.985,138.624 70.303 C 138.858 70.621,139.938 70.981,141.024 71.103 C 142.111 71.225,143.186 71.579,143.414 71.889 C 143.642 72.199,144.632 72.558,145.614 72.685 C 146.596 72.813,147.544 73.160,147.719 73.457 C 147.894 73.754,148.738 74.109,149.594 74.245 C 150.450 74.382,151.246 74.743,151.363 75.047 C 151.495 75.391,152.184 75.600,153.184 75.600 C 154.360 75.600,154.928 75.815,155.293 76.400 C 155.596 76.885,156.226 77.200,156.893 77.200 C 157.560 77.200,158.190 77.515,158.493 78.000 C 158.820 78.524,159.426 78.800,160.250 78.800 C 161.170 78.800,161.563 79.014,161.716 79.600 C 161.867 80.178,162.262 80.400,163.136 80.400 C 163.995 80.400,164.420 80.632,164.600 81.200 C 164.778 81.760,165.205 82.000,166.024 82.000 C 166.760 82.000,167.378 82.296,167.693 82.800 C 167.996 83.285,168.626 83.600,169.293 83.600 C 169.960 83.600,170.590 83.915,170.893 84.400 C 171.168 84.840,171.688 85.200,172.050 85.200 C 172.411 85.200,172.801 85.560,172.916 86.000 C 173.075 86.606,173.462 86.800,174.516 86.800 C 175.570 86.800,175.957 86.994,176.116 87.600 C 176.256 88.137,176.662 88.400,177.348 88.400 C 177.962 88.400,178.543 88.720,178.800 89.200 C 179.035 89.640,179.492 90.000,179.814 90.000 C 180.136 90.000,180.400 90.252,180.400 90.560 C 180.400 90.876,181.042 91.272,181.869 91.468 C 184.081 91.991,183.931 92.649,181.535 92.933 C 180.287 93.081,179.305 93.427,179.101 93.790 C 178.912 94.128,178.218 94.400,177.543 94.400 C 176.662 94.400,176.267 94.621,176.116 95.200 C 175.957 95.806,175.570 96.000,174.516 96.000 C 173.462 96.000,173.075 96.194,172.916 96.800 C 172.757 97.406,172.370 97.600,171.316 97.600 C 170.262 97.600,169.875 97.794,169.716 98.400 C 169.557 99.006,169.170 99.200,168.116 99.200 C 167.062 99.200,166.675 99.394,166.516 100.000 C 166.200 101.208,161.600 101.208,161.600 100.000 C 161.600 99.337,161.333 99.200,160.047 99.200 C 158.830 99.200,158.448 99.027,158.284 98.400 C 158.132 97.820,157.738 97.600,156.852 97.600 C 156.038 97.600,155.485 97.332,155.200 96.800 C 154.950 96.332,154.362 96.000,153.786 96.000 C 153.244 96.000,152.422 95.622,151.961 95.161 C 151.408 94.608,150.789 94.385,150.147 94.508 C 149.482 94.635,149.049 94.464,148.785 93.972 C 148.541 93.517,147.719 93.147,146.567 92.974 C 145.560 92.823,144.641 92.452,144.525 92.150 C 144.402 91.829,143.734 91.600,142.920 91.600 C 141.862 91.600,141.475 91.407,141.316 90.800 C 141.157 90.194,140.770 90.000,139.716 90.000 C 138.662 90.000,138.275 89.806,138.116 89.200 C 137.947 88.554,137.570 88.400,136.157 88.400 C 134.840 88.400,134.283 88.202,133.907 87.600 C 133.556 87.038,132.974 86.800,131.950 86.800 C 130.830 86.800,130.445 86.615,130.284 86.000 C 130.113 85.347,129.738 85.200,128.241 85.200 C 126.840 85.200,126.289 85.011,125.907 84.400 C 125.556 83.838,124.974 83.600,123.950 83.600 C 122.830 83.600,122.445 83.415,122.284 82.800 C 122.113 82.148,121.738 82.000,120.252 82.000 C 118.838 82.000,118.332 81.820,118.000 81.200 C 117.765 80.760,117.329 80.400,117.033 80.400 C 116.736 80.400,116.399 80.040,116.284 79.600 C 116.169 79.160,115.788 78.800,115.437 78.800 C 114.938 78.800,114.800 78.360,114.800 76.763 C 114.800 75.062,114.668 74.691,114.000 74.516 C 113.394 74.357,113.200 73.970,113.200 72.916 C 113.200 71.862,113.006 71.475,112.400 71.316 C 111.794 71.157,111.600 70.770,111.600 69.716 C 111.600 68.662,111.406 68.275,110.800 68.116 C 110.357 68.000,110.000 67.570,110.000 67.153 C 110.000 66.667,109.717 66.400,109.200 66.400 C 108.533 66.400,108.400 66.133,108.400 64.800 C 108.400 63.704,108.226 63.200,107.847 63.200 C 107.542 63.200,107.193 62.817,107.071 62.348 C 106.922 61.779,106.641 61.576,106.224 61.735 C 105.731 61.925,105.600 61.676,105.600 60.550 C 105.600 59.462,105.411 59.076,104.800 58.916 C 104.357 58.800,104.000 58.370,104.000 57.953 C 104.000 57.467,103.717 57.200,103.200 57.200 C 102.667 57.200,102.400 56.933,102.400 56.400 C 102.400 55.867,102.133 55.600,101.600 55.600 C 101.067 55.600,100.800 55.333,100.800 54.800 C 100.800 54.267,100.533 54.000,100.000 54.000 C 99.467 54.000,99.200 53.733,99.200 53.200 C 99.200 52.667,98.933 52.400,98.400 52.400 C 97.867 52.400,97.600 52.133,97.600 51.600 C 97.600 51.067,97.333 50.800,96.800 50.800 C 96.267 50.800,96.000 50.533,96.000 50.000 C 96.000 49.483,95.733 49.200,95.247 49.200 C 94.830 49.200,94.400 48.843,94.284 48.400 C 94.169 47.960,93.809 47.600,93.484 47.600 C 93.159 47.600,92.799 47.240,92.684 46.800 C 92.533 46.222,92.138 46.000,91.264 46.000 C 90.405 46.000,89.980 45.768,89.800 45.200 C 89.660 44.760,89.283 44.400,88.960 44.400 C 88.638 44.400,88.278 44.148,88.160 43.839 C 88.041 43.531,87.327 43.163,86.572 43.021 C 85.756 42.868,85.200 42.528,85.200 42.182 C 85.200 41.770,84.733 41.600,83.600 41.600 C 82.267 41.600,82.000 41.467,82.000 40.800 C 82.000 40.046,81.733 40.000,77.400 40.000 C 73.067 40.000,72.800 40.046,72.800 40.800 C 72.800 41.463,72.533 41.600,71.247 41.600 C 70.030 41.600,69.648 41.773,69.484 42.400 C 69.369 42.840,68.988 43.200,68.637 43.200 C 68.280 43.200,68.000 43.531,68.000 43.953 C 68.000 44.370,67.643 44.800,67.200 44.916 C 66.447 45.113,66.400 45.462,66.400 50.800 C 66.400 56.138,66.447 56.487,67.200 56.684 C 67.643 56.800,68.000 57.230,68.000 57.647 C 68.000 58.133,68.283 58.400,68.800 58.400 C 69.333 58.400,69.600 58.667,69.600 59.200 C 69.600 59.717,69.867 60.000,70.353 60.000 C 70.770 60.000,71.200 60.357,71.316 60.800 C 71.476 61.413,71.862 61.600,72.963 61.600 C 74.133 61.600,74.400 61.748,74.400 62.400 C 74.400 63.042,74.667 63.200,75.753 63.200 C 76.770 63.200,77.159 63.399,77.316 64.000 C 77.431 64.440,77.812 64.800,78.163 64.800 C 78.513 64.800,78.800 65.074,78.800 65.410 C 78.800 65.745,79.225 66.182,79.745 66.379 C 80.265 66.577,80.800 67.023,80.933 67.369 C 81.066 67.716,81.451 68.000,81.787 68.000 C 82.124 68.000,82.400 68.270,82.400 68.600 C 82.400 68.930,82.687 69.200,83.037 69.200 C 83.388 69.200,83.769 69.560,83.884 70.000 C 83.999 70.440,84.342 70.800,84.647 70.800 C 84.951 70.800,85.200 71.148,85.200 71.573 C 85.200 71.998,85.560 72.460,86.000 72.600 C 86.440 72.740,86.800 73.100,86.800 73.400 C 86.800 73.700,87.160 74.060,87.600 74.200 C 88.110 74.362,88.400 74.805,88.400 75.424 C 88.400 75.960,88.757 76.616,89.200 76.893 C 89.640 77.168,90.000 77.666,90.000 78.000 C 90.000 78.334,90.360 78.832,90.800 79.107 C 91.271 79.401,91.600 80.040,91.600 80.659 C 91.600 81.238,91.871 81.912,92.201 82.156 C 93.074 82.801,93.122 85.975,92.268 86.600 C 91.900 86.868,91.600 87.383,91.600 87.744 C 91.600 88.133,91.275 88.400,90.800 88.400 C 90.267 88.400,90.000 88.667,90.000 89.200 C 90.000 89.733,89.733 90.000,89.200 90.000 C 88.703 90.000,88.400 90.267,88.400 90.704 C 88.400 91.091,88.040 91.632,87.600 91.907 C 87.160 92.182,86.800 92.782,86.800 93.241 C 86.800 93.738,86.477 94.159,86.000 94.284 C 85.557 94.400,85.200 94.830,85.200 95.247 C 85.200 95.669,84.920 96.000,84.563 96.000 C 84.212 96.000,83.835 96.343,83.726 96.763 C 83.616 97.183,83.183 97.616,82.763 97.726 C 82.214 97.869,82.000 98.282,82.000 99.200 C 82.000 100.138,81.789 100.530,81.200 100.684 C 80.760 100.799,80.400 101.136,80.400 101.433 C 80.400 101.729,80.026 102.172,79.569 102.417 C 79.093 102.671,78.831 103.105,78.956 103.431 C 79.097 103.797,78.910 104.000,78.430 104.000 C 77.620 104.000,77.039 105.016,77.461 105.698 C 77.605 105.932,77.552 106.018,77.343 105.888 C 76.830 105.571,76.288 105.997,75.672 107.200 C 74.339 109.808,73.914 110.400,73.378 110.400 C 73.005 110.400,72.800 110.817,72.800 111.573 C 72.800 112.395,72.560 112.822,72.000 113.000 C 71.560 113.140,71.200 113.500,71.200 113.800 C 71.200 114.100,70.840 114.460,70.400 114.600 C 69.960 114.740,69.600 115.181,69.600 115.580 C 69.600 115.980,69.240 116.401,68.800 116.516 C 68.260 116.657,68.000 117.062,68.000 117.759 C 68.000 118.360,67.665 119.003,67.200 119.293 C 66.760 119.568,66.400 120.109,66.400 120.496 C 66.400 120.883,66.113 121.200,65.763 121.200 C 65.412 121.200,65.031 121.560,64.916 122.000 C 64.801 122.440,64.460 122.800,64.158 122.800 C 63.827 122.800,63.508 123.435,63.354 124.400 C 63.161 125.606,62.913 126.000,62.349 126.000 C 61.867 126.000,61.600 126.285,61.600 126.800 C 61.600 127.240,61.350 127.600,61.045 127.600 C 60.726 127.600,60.377 128.198,60.226 129.000 C 60.069 129.838,59.730 130.400,59.382 130.400 C 59.062 130.400,58.800 130.739,58.800 131.153 C 58.800 131.570,58.443 132.000,58.000 132.116 C 57.387 132.276,57.200 132.662,57.200 133.763 C 57.200 134.933,57.052 135.200,56.400 135.200 C 55.883 135.200,55.600 135.467,55.600 135.953 C 55.600 136.370,55.243 136.800,54.800 136.916 C 54.187 137.076,54.000 137.462,54.000 138.563 C 54.000 139.733,53.852 140.000,53.200 140.000 C 52.555 140.000,52.400 140.267,52.400 141.373 C 52.400 142.395,52.195 142.811,51.600 143.000 C 51.160 143.140,50.800 143.581,50.800 143.980 C 50.800 144.380,50.440 144.801,50.000 144.916 C 49.417 145.068,49.200 145.462,49.200 146.363 C 49.200 147.207,49.006 147.600,48.587 147.600 C 48.251 147.600,47.859 147.915,47.718 148.300 C 47.576 148.685,47.229 149.140,46.946 149.311 C 46.664 149.482,46.315 150.247,46.172 151.011 C 46.024 151.798,45.672 152.400,45.360 152.400 C 45.027 152.400,44.708 153.032,44.554 154.000 C 44.411 154.889,44.073 155.600,43.792 155.600 C 43.194 155.600,42.800 156.486,42.800 157.833 C 42.800 158.426,42.568 158.800,42.200 158.800 C 41.867 158.800,41.600 159.156,41.600 159.600 C 41.600 160.133,41.333 160.400,40.800 160.400 C 40.158 160.400,40.000 160.667,40.000 161.753 C 40.000 162.770,39.801 163.159,39.200 163.316 C 38.587 163.476,38.400 163.862,38.400 164.963 C 38.400 166.133,38.252 166.400,37.600 166.400 C 36.978 166.400,36.800 166.667,36.800 167.597 C 36.800 168.360,36.510 168.974,36.000 169.293 C 35.515 169.596,35.200 170.226,35.200 170.893 C 35.200 171.560,34.885 172.190,34.400 172.493 C 33.960 172.768,33.600 173.290,33.600 173.653 C 33.600 174.017,33.347 174.412,33.038 174.530 C 32.728 174.649,32.350 175.316,32.197 176.014 C 32.044 176.711,31.577 177.623,31.159 178.041 C 30.742 178.458,30.400 179.160,30.400 179.600 C 30.400 180.040,30.040 180.760,29.600 181.200 C 29.108 181.692,28.800 182.533,28.800 183.386 C 28.800 184.362,28.564 184.898,28.000 185.200 C 27.473 185.482,27.200 186.038,27.200 186.827 C 27.200 187.486,26.950 188.121,26.645 188.238 C 26.340 188.355,25.988 188.958,25.865 189.577 C 25.741 190.197,25.360 190.982,25.020 191.323 C 24.679 191.664,24.400 192.484,24.400 193.144 C 24.400 193.995,24.166 194.420,23.600 194.600 C 23.012 194.787,22.800 195.205,22.800 196.180 C 22.800 197.170,22.597 197.560,22.000 197.716 C 21.347 197.887,21.200 198.262,21.200 199.759 C 21.200 201.160,21.011 201.711,20.400 202.093 C 19.838 202.444,19.600 203.026,19.600 204.050 C 19.600 205.170,19.415 205.555,18.800 205.716 C 18.130 205.891,18.000 206.262,18.000 208.000 C 18.000 209.738,17.870 210.109,17.200 210.284 C 16.539 210.457,16.400 210.830,16.400 212.433 C 16.400 213.962,16.231 214.462,15.600 214.800 C 14.983 215.130,14.800 215.638,14.800 217.018 C 14.800 218.313,14.579 218.997,14.000 219.493 C 13.434 219.978,13.200 220.673,13.200 221.873 C 13.200 223.047,12.957 223.796,12.409 224.306 C 11.869 224.808,11.636 225.511,11.674 226.518 C 11.707 227.410,11.461 228.290,11.052 228.742 C 10.680 229.154,10.264 230.460,10.128 231.645 C 9.992 232.830,9.637 233.944,9.340 234.120 C 8.971 234.339,8.800 235.303,8.800 237.173 C 8.800 239.570,8.702 239.932,8.000 240.116 C 7.275 240.306,7.200 240.662,7.200 243.936 C 7.200 247.195,7.122 247.571,6.400 247.800 C 5.668 248.032,5.600 248.405,5.600 252.165 C 5.600 255.768,5.501 256.365,4.800 257.000 C 4.045 257.684,4.000 258.232,4.000 266.815 C 4.000 275.570,3.970 275.914,3.200 276.116 C 2.004 276.429,2.004 282.069,3.200 283.093 C 4.119 283.880,4.421 291.819,3.565 292.675 C 3.252 292.988,3.252 293.185,3.565 293.378 C 3.819 293.535,4.000 294.964,4.000 296.810 C 4.000 299.562,4.104 300.027,4.800 300.400 C 5.496 300.773,5.600 301.238,5.600 303.981 C 5.600 307.480,5.817 308.400,6.643 308.400 C 7.052 308.400,7.200 308.986,7.200 310.600 C 7.200 312.267,7.394 312.994,8.000 313.600 C 8.609 314.209,8.800 314.933,8.800 316.637 C 8.800 318.514,8.925 318.908,9.575 319.078 C 10.217 319.246,10.286 319.449,9.975 320.266 C 9.592 321.272,10.076 322.800,10.777 322.800 C 10.968 322.800,11.252 323.722,11.407 324.849 C 11.609 326.322,11.888 326.950,12.397 327.083 C 12.920 327.220,13.155 327.795,13.299 329.288 C 13.424 330.587,13.726 331.439,14.146 331.674 C 14.559 331.905,14.800 332.562,14.800 333.457 C 14.800 334.538,14.990 334.925,15.600 335.084 C 16.197 335.240,16.400 335.630,16.400 336.620 C 16.400 337.595,16.612 338.013,17.200 338.200 C 17.788 338.387,18.000 338.805,18.000 339.780 C 18.000 340.770,18.203 341.160,18.800 341.316 C 19.413 341.476,19.600 341.862,19.600 342.963 C 19.600 344.133,19.748 344.400,20.400 344.400 C 21.022 344.400,21.200 344.667,21.200 345.597 C 21.200 346.360,21.490 346.974,22.000 347.293 C 22.440 347.568,22.800 348.109,22.800 348.496 C 22.800 348.933,23.103 349.200,23.600 349.200 C 24.245 349.200,24.400 349.467,24.400 350.573 C 24.400 351.595,24.605 352.011,25.200 352.200 C 25.640 352.340,26.000 352.802,26.000 353.227 C 26.000 353.652,26.256 354.000,26.568 354.000 C 26.881 354.000,27.255 354.541,27.401 355.203 C 27.546 355.865,28.010 356.591,28.433 356.817 C 28.855 357.043,29.200 357.492,29.200 357.814 C 29.200 358.136,29.470 358.400,29.800 358.400 C 30.133 358.400,30.400 358.756,30.400 359.200 C 30.400 359.733,30.667 360.000,31.200 360.000 C 31.733 360.000,32.000 360.267,32.000 360.800 C 32.000 361.333,32.267 361.600,32.800 361.600 C 33.333 361.600,33.600 361.867,33.600 362.400 C 33.600 362.933,33.867 363.200,34.400 363.200 C 35.239 363.200,35.500 364.167,34.781 364.612 C 34.253 364.938,35.059 366.000,35.835 366.000 C 36.130 366.000,36.565 366.360,36.800 366.800 C 37.035 367.240,37.492 367.600,37.814 367.600 C 38.136 367.600,38.400 367.887,38.400 368.237 C 38.400 368.588,38.743 368.965,39.163 369.074 C 39.583 369.184,40.009 369.592,40.111 369.981 C 40.212 370.369,40.763 370.804,41.334 370.948 C 42.390 371.213,44.400 372.946,44.400 373.591 C 44.400 373.786,44.760 374.060,45.200 374.200 C 45.640 374.340,46.000 374.712,46.000 375.027 C 46.000 375.342,46.348 375.600,46.773 375.600 C 47.198 375.600,47.660 375.960,47.800 376.400 C 47.940 376.840,48.305 377.200,48.613 377.200 C 48.920 377.200,49.365 377.560,49.600 378.000 C 49.880 378.524,50.438 378.800,51.214 378.800 C 52.133 378.800,52.400 378.980,52.400 379.600 C 52.400 380.044,52.667 380.400,53.000 380.400 C 53.330 380.400,53.960 380.760,54.400 381.200 C 54.840 381.640,55.650 382.000,56.200 382.000 C 56.933 382.000,57.200 382.213,57.200 382.800 C 57.200 383.445,57.467 383.600,58.573 383.600 C 59.595 383.600,60.011 383.805,60.200 384.400 C 60.340 384.840,60.712 385.200,61.027 385.200 C 61.342 385.200,61.960 385.560,62.400 386.000 C 62.840 386.440,63.560 386.800,64.000 386.800 C 64.440 386.800,65.160 387.160,65.600 387.600 C 66.075 388.075,66.933 388.400,67.711 388.400 C 68.527 388.400,69.281 388.702,69.707 389.200 C 70.111 389.671,70.887 390.000,71.596 390.000 C 72.358 390.000,72.800 390.204,72.800 390.557 C 72.800 391.195,73.650 391.600,74.990 391.600 C 75.498 391.600,76.018 391.870,76.145 392.200 C 76.307 392.622,76.965 392.800,78.360 392.800 C 79.995 392.800,80.391 392.942,80.600 393.600 C 80.760 394.104,81.205 394.400,81.803 394.400 C 82.326 394.400,82.864 394.580,83.000 394.800 C 83.136 395.020,83.676 395.200,84.200 395.200 C 84.724 395.200,85.264 395.380,85.400 395.600 C 85.536 395.820,86.966 396.000,88.577 396.000 C 91.170 396.000,91.531 396.092,91.716 396.800 C 91.904 397.519,92.262 397.600,95.266 397.600 C 98.174 397.600,98.672 397.704,99.107 398.400 C 99.567 399.136,100.040 399.200,105.003 399.200 C 108.334 399.200,110.400 399.353,110.400 399.600 C 110.400 399.861,116.600 400.000,128.200 400.000 C 139.800 400.000,146.000 399.861,146.000 399.600 C 146.000 399.351,148.279 399.200,152.037 399.200 C 157.738 399.200,158.087 399.155,158.284 398.400 C 158.477 397.662,158.830 397.600,162.843 397.600 C 166.760 397.600,167.243 397.520,167.693 396.800 C 168.131 396.098,168.626 396.000,171.734 396.000 C 174.938 396.000,175.295 395.924,175.484 395.200 C 175.670 394.490,176.030 394.400,178.684 394.400 C 181.338 394.400,181.698 394.310,181.884 393.600 C 182.068 392.897,182.430 392.800,184.859 392.800 C 186.949 392.800,187.681 392.653,187.855 392.200 C 188.015 391.783,188.665 391.600,189.982 391.600 C 191.303 391.600,192.157 391.358,192.800 390.800 C 193.379 390.298,194.297 390.000,195.265 390.000 C 196.313 390.000,197.028 389.743,197.493 389.200 C 197.989 388.621,198.677 388.398,199.989 388.395 C 202.373 388.387,203.600 388.034,203.600 387.353 C 203.600 386.975,204.102 386.800,205.186 386.800 C 206.362 386.800,206.882 386.593,207.200 386.000 C 207.540 385.365,208.038 385.200,209.614 385.200 C 211.333 385.200,211.600 385.093,211.600 384.400 C 211.600 383.707,211.867 383.600,213.597 383.600 C 215.160 383.600,215.702 383.426,216.093 382.800 C 216.431 382.258,217.026 382.000,217.934 382.000 C 218.938 382.000,219.327 381.799,219.484 381.200 C 219.658 380.535,220.030 380.400,221.684 380.400 C 223.338 380.400,223.710 380.265,223.884 379.600 C 224.048 378.973,224.430 378.800,225.647 378.800 C 226.933 378.800,227.200 378.663,227.200 378.000 C 227.200 377.348,227.467 377.200,228.637 377.200 C 229.738 377.200,230.124 377.013,230.284 376.400 C 230.448 375.773,230.830 375.600,232.047 375.600 C 233.105 375.600,233.600 375.423,233.600 375.045 C 233.600 374.729,234.189 374.379,234.961 374.234 C 235.710 374.093,236.416 373.736,236.529 373.440 C 236.643 373.143,237.381 372.780,238.168 372.632 C 239.031 372.470,239.600 372.133,239.600 371.782 C 239.600 371.458,239.971 371.200,240.437 371.200 C 240.938 371.200,241.359 370.879,241.484 370.400 C 241.641 369.799,242.030 369.600,243.047 369.600 C 244.133 369.600,244.400 369.442,244.400 368.800 C 244.400 368.178,244.667 368.000,245.597 368.000 C 246.360 368.000,246.974 367.710,247.293 367.200 C 247.568 366.760,248.066 366.400,248.400 366.400 C 248.734 366.400,249.232 366.040,249.507 365.600 C 249.797 365.135,250.440 364.800,251.041 364.800 C 251.738 364.800,252.143 364.540,252.284 364.000 C 252.399 363.560,252.820 363.200,253.220 363.200 C 253.619 363.200,254.060 362.840,254.200 362.400 C 254.366 361.878,254.805 361.600,255.464 361.600 C 256.138 361.600,256.545 361.334,256.684 360.800 C 256.800 360.357,257.230 360.000,257.647 360.000 C 258.133 360.000,258.400 359.717,258.400 359.200 C 258.400 358.555,258.667 358.400,259.773 358.400 C 260.795 358.400,261.211 358.195,261.400 357.600 C 261.540 357.160,261.912 356.800,262.227 356.800 C 262.542 356.800,262.800 356.616,262.800 356.390 C 262.800 356.165,263.250 355.809,263.800 355.600 C 264.350 355.391,264.800 354.966,264.800 354.657 C 264.800 354.347,265.160 353.999,265.600 353.884 C 266.040 353.769,266.400 353.409,266.400 353.084 C 266.400 352.759,266.760 352.399,267.200 352.284 C 267.640 352.169,268.000 351.788,268.000 351.437 C 268.000 351.067,268.335 350.800,268.800 350.800 C 269.265 350.800,269.600 350.533,269.600 350.163 C 269.600 349.812,269.960 349.431,270.400 349.316 C 270.840 349.201,271.200 348.841,271.200 348.516 C 271.200 348.191,271.560 347.831,272.000 347.716 C 272.440 347.601,272.800 347.241,272.800 346.916 C 272.800 346.591,273.160 346.231,273.600 346.116 C 274.040 346.001,274.400 345.724,274.400 345.501 C 274.400 344.945,277.785 341.600,278.347 341.600 C 278.596 341.600,278.800 341.252,278.800 340.827 C 278.800 340.402,279.160 339.940,279.600 339.800 C 280.040 339.660,280.400 339.309,280.400 339.020 C 280.400 338.730,280.760 338.399,281.200 338.284 C 281.679 338.159,282.000 337.738,282.000 337.237 C 282.000 336.777,282.256 336.400,282.568 336.400 C 282.881 336.400,283.260 335.838,283.411 335.151 C 283.573 334.412,283.994 333.822,284.442 333.705 C 284.859 333.596,285.200 333.168,285.200 332.753 C 285.200 332.339,285.474 332.000,285.810 332.000 C 286.145 332.000,286.591 331.550,286.800 331.000 C 287.009 330.450,287.356 330.000,287.572 330.000 C 287.787 330.000,288.079 329.387,288.219 328.637 C 288.382 327.768,288.752 327.201,289.238 327.074 C 289.657 326.965,290.000 326.607,290.000 326.280 C 290.000 325.953,290.260 325.586,290.578 325.464 C 290.896 325.342,291.273 324.615,291.417 323.849 C 291.561 323.082,291.931 322.359,292.239 322.240 C 292.548 322.122,292.800 321.500,292.800 320.859 C 292.800 320.030,293.031 319.633,293.600 319.484 C 294.213 319.324,294.400 318.938,294.400 317.837 C 294.400 316.667,294.548 316.400,295.200 316.400 C 295.863 316.400,296.000 316.133,296.000 314.847 C 296.000 313.630,296.173 313.248,296.800 313.084 C 297.406 312.925,297.600 312.538,297.600 311.484 C 297.600 310.430,297.794 310.043,298.400 309.884 C 299.070 309.709,299.200 309.338,299.200 307.600 C 299.200 305.862,299.330 305.491,300.000 305.316 C 300.672 305.140,300.800 304.770,300.800 303.000 C 300.800 301.230,300.928 300.860,301.600 300.684 C 302.279 300.507,302.400 300.138,302.400 298.257 C 302.400 296.561,302.565 295.948,303.100 295.648 C 303.664 295.332,303.828 294.575,303.945 291.740 C 304.055 289.063,304.246 288.108,304.745 287.744 C 305.331 287.315,305.412 285.436,305.516 269.833 C 305.580 260.245,305.767 252.400,305.932 252.400 C 306.098 252.400,306.895 253.120,307.704 254.000 C 308.513 254.880,309.321 255.600,309.499 255.600 C 309.677 255.600,310.130 255.960,310.507 256.400 C 310.974 256.945,311.687 257.200,312.747 257.200 C 313.641 257.200,314.514 257.455,314.800 257.800 C 315.169 258.244,316.151 258.400,318.587 258.400 C 321.368 258.400,321.988 258.524,322.600 259.200 C 323.715 260.433,335.962 260.433,336.284 259.200 C 336.478 258.460,336.830 258.400,340.998 258.400 C 344.314 258.400,345.621 258.256,345.955 257.854 C 346.212 257.545,347.538 257.218,349.023 257.099 C 350.612 256.971,351.918 256.636,352.351 256.245 C 352.764 255.871,353.757 255.600,354.717 255.600 C 355.962 255.600,356.478 255.402,356.800 254.800 C 357.142 254.162,357.638 254.000,359.252 254.000 C 360.896 254.000,361.312 253.859,361.472 253.248 C 361.622 252.673,362.145 252.449,363.688 252.301 C 364.987 252.176,365.839 251.874,366.074 251.454 C 366.305 251.041,366.962 250.800,367.857 250.800 C 368.938 250.800,369.325 250.610,369.484 250.000 C 369.640 249.403,370.030 249.200,371.020 249.200 C 371.995 249.200,372.413 248.988,372.600 248.400 C 372.789 247.805,373.205 247.600,374.227 247.600 C 375.333 247.600,375.600 247.445,375.600 246.800 C 375.600 246.133,375.867 246.000,377.200 246.000 C 378.533 246.000,378.800 245.867,378.800 245.200 C 378.800 244.580,379.067 244.400,379.986 244.400 C 380.762 244.400,381.320 244.124,381.600 243.600 C 381.835 243.160,382.382 242.800,382.814 242.800 C 383.246 242.800,383.600 242.550,383.600 242.245 C 383.600 241.926,384.198 241.577,385.000 241.426 C 385.777 241.281,386.400 240.924,386.400 240.625 C 386.400 240.329,386.850 239.974,387.400 239.836 C 387.950 239.698,388.400 239.339,388.400 239.039 C 388.400 238.739,388.760 238.399,389.200 238.284 C 389.766 238.136,390.000 237.738,390.000 236.926 C 390.000 236.273,390.345 235.483,390.800 235.093 C 391.309 234.657,391.600 233.913,391.600 233.047 C 391.600 232.206,391.829 231.598,392.200 231.455 C 392.655 231.281,392.800 230.544,392.800 228.413 C 392.800 225.867,392.876 225.600,393.600 225.600 C 394.311 225.600,394.400 225.333,394.400 223.200 C 394.400 221.415,394.543 220.800,394.957 220.800 C 395.779 220.800,396.000 219.882,396.000 216.464 C 396.000 213.826,396.113 213.322,396.800 212.893 C 397.580 212.406,397.600 211.960,397.600 194.997 C 397.600 177.867,397.588 177.600,396.800 177.600 C 396.070 177.600,396.000 177.333,396.000 174.563 C 396.000 171.862,395.911 171.502,395.200 171.316 C 394.523 171.139,394.400 170.770,394.400 168.916 C 394.400 167.062,394.277 166.693,393.600 166.516 C 392.973 166.352,392.800 165.970,392.800 164.753 C 392.800 163.639,392.630 163.200,392.200 163.200 C 391.803 163.200,391.600 162.803,391.600 162.023 C 391.600 161.300,391.292 160.630,390.803 160.287 C 390.364 159.980,389.892 159.160,389.753 158.464 C 389.614 157.769,389.273 157.200,388.995 157.200 C 388.717 157.200,388.369 156.561,388.222 155.779 C 388.076 154.997,387.703 154.261,387.393 154.142 C 387.084 154.023,386.721 153.583,386.588 153.163 C 386.455 152.743,386.088 152.400,385.773 152.400 C 385.458 152.400,385.200 152.040,385.200 151.600 C 385.200 151.067,384.933 150.800,384.400 150.800 C 383.867 150.800,383.600 150.533,383.600 150.000 C 383.600 149.467,383.333 149.200,382.800 149.200 C 382.267 149.200,382.000 148.933,382.000 148.400 C 382.000 147.867,381.733 147.600,381.200 147.600 C 380.667 147.600,380.400 147.333,380.400 146.800 C 380.400 146.283,380.133 146.000,379.647 146.000 C 379.230 146.000,378.800 145.643,378.684 145.200 C 378.569 144.760,378.188 144.400,377.837 144.400 C 377.487 144.400,377.200 144.142,377.200 143.827 C 377.200 143.512,376.840 143.140,376.400 143.000 C 375.960 142.860,375.600 142.488,375.600 142.173 C 375.600 141.789,375.155 141.600,374.247 141.600 C 373.230 141.600,372.841 141.401,372.684 140.800 C 372.569 140.360,372.200 140.000,371.864 140.000 C 371.529 140.000,371.140 139.640,371.000 139.200 C 370.838 138.690,370.395 138.400,369.776 138.400 C 369.240 138.400,368.584 138.043,368.307 137.600 C 368.032 137.160,367.512 136.800,367.150 136.800 C 366.789 136.800,366.399 136.440,366.284 136.000 C 366.143 135.460,365.738 135.200,365.041 135.200 C 364.440 135.200,363.797 134.865,363.507 134.400 C 363.232 133.960,362.710 133.600,362.347 133.600 C 361.983 133.600,361.586 133.340,361.464 133.022 C 361.342 132.704,360.619 132.327,359.858 132.184 C 358.971 132.018,358.402 131.651,358.274 131.162 C 358.133 130.622,357.718 130.400,356.852 130.400 C 356.038 130.400,355.485 130.132,355.200 129.600 C 354.950 129.132,354.362 128.800,353.786 128.800 C 353.244 128.800,352.440 128.440,352.000 128.000 C 351.560 127.560,350.769 127.200,350.243 127.200 C 349.716 127.200,349.192 126.955,349.077 126.656 C 348.961 126.353,347.969 125.993,346.841 125.843 C 344.733 125.564,342.954 124.000,344.743 124.000 C 345.167 124.000,345.618 123.730,345.745 123.400 C 345.891 123.019,346.505 122.800,347.425 122.800 C 348.538 122.800,348.923 122.614,349.084 122.000 C 349.243 121.394,349.630 121.200,350.684 121.200 C 351.738 121.200,352.125 121.006,352.284 120.400 C 352.433 119.831,352.830 119.600,353.659 119.600 C 354.352 119.600,354.923 119.344,355.067 118.969 C 355.200 118.623,355.735 118.177,356.255 117.979 C 356.775 117.782,357.200 117.345,357.200 117.010 C 357.200 116.580,357.612 116.400,358.600 116.400 C 359.733 116.400,360.000 116.248,360.000 115.600 C 360.000 115.067,360.267 114.800,360.800 114.800 C 361.333 114.800,361.600 114.533,361.600 114.000 C 361.600 113.467,361.867 113.200,362.400 113.200 C 362.933 113.200,363.200 112.933,363.200 112.400 C 363.200 111.748,363.467 111.600,364.637 111.600 C 365.738 111.600,366.124 111.413,366.284 110.800 C 366.399 110.360,366.759 110.000,367.084 110.000 C 367.409 110.000,367.769 109.640,367.884 109.200 C 367.999 108.760,368.359 108.400,368.684 108.400 C 369.009 108.400,369.369 108.040,369.484 107.600 C 369.599 107.160,369.959 106.800,370.284 106.800 C 370.609 106.800,370.969 106.440,371.084 106.000 C 371.199 105.560,371.534 105.200,371.829 105.200 C 372.123 105.200,372.479 104.587,372.619 103.837 C 372.782 102.968,373.152 102.401,373.638 102.274 C 374.057 102.165,374.400 101.788,374.400 101.437 C 374.400 101.087,374.670 100.800,375.000 100.800 C 375.333 100.800,375.600 100.444,375.600 100.000 C 375.600 99.467,375.867 99.200,376.400 99.200 C 376.917 99.200,377.200 98.933,377.200 98.447 C 377.200 98.030,377.557 97.600,378.000 97.484 C 378.613 97.324,378.800 96.938,378.800 95.837 C 378.800 94.667,378.948 94.400,379.600 94.400 C 380.133 94.400,380.400 94.133,380.400 93.600 C 380.400 93.067,380.667 92.800,381.200 92.800 C 381.848 92.800,382.000 92.533,382.000 91.400 C 382.000 90.412,382.180 90.000,382.610 90.000 C 382.945 90.000,383.382 89.575,383.579 89.055 C 383.777 88.535,384.223 88.000,384.569 87.867 C 384.944 87.723,385.200 87.152,385.200 86.459 C 385.200 85.630,385.431 85.233,386.000 85.084 C 386.606 84.925,386.800 84.538,386.800 83.484 C 386.800 82.430,386.994 82.043,387.600 81.884 C 388.206 81.725,388.400 81.338,388.400 80.284 C 388.400 79.230,388.594 78.843,389.200 78.684 C 389.724 78.547,390.000 78.138,390.000 77.499 C 390.000 76.962,390.372 76.093,390.827 75.569 C 391.817 74.428,391.590 72.231,390.365 71.084 C 389.944 70.691,389.600 70.196,389.600 69.984 C 389.600 69.773,389.330 69.600,389.000 69.600 C 388.670 69.600,388.400 69.313,388.400 68.963 C 388.400 68.612,388.040 68.231,387.600 68.116 C 387.160 68.001,386.800 67.641,386.800 67.316 C 386.800 66.991,386.440 66.631,386.000 66.516 C 385.560 66.401,385.200 65.989,385.200 65.600 C 385.200 65.211,384.840 64.799,384.400 64.684 C 383.960 64.569,383.600 64.209,383.600 63.884 C 383.600 63.559,383.240 63.199,382.800 63.084 C 382.360 62.969,382.000 62.609,382.000 62.284 C 382.000 61.959,381.640 61.599,381.200 61.484 C 380.760 61.369,380.400 60.988,380.400 60.637 C 380.400 60.287,380.174 60.000,379.897 60.000 C 379.621 60.000,378.816 59.370,378.110 58.600 C 377.403 57.830,376.549 57.200,376.212 57.200 C 375.867 57.200,375.600 56.852,375.600 56.400 C 375.600 55.960,375.342 55.600,375.027 55.600 C 374.712 55.600,374.346 55.259,374.214 54.843 C 374.082 54.427,373.619 53.994,373.187 53.881 C 372.754 53.767,372.400 53.388,372.400 53.037 C 372.400 52.592,372.028 52.400,371.163 52.400 C 370.262 52.400,369.868 52.183,369.716 51.600 C 369.601 51.160,369.189 50.800,368.800 50.800 C 368.411 50.800,367.999 50.440,367.884 50.000 C 367.769 49.560,367.409 49.200,367.084 49.200 C 366.759 49.200,366.399 48.840,366.284 48.400 C 366.162 47.934,365.738 47.600,365.270 47.600 C 364.043 47.600,363.200 47.175,363.200 46.557 C 363.200 46.251,362.859 46.000,362.443 46.000 C 362.026 46.000,361.586 45.740,361.464 45.422 C 361.342 45.104,360.603 44.724,359.821 44.578 C 359.039 44.431,358.400 44.081,358.400 43.800 C 358.400 43.519,357.787 43.174,357.039 43.034 C 356.290 42.893,355.576 42.513,355.451 42.189 C 355.313 41.829,354.693 41.600,353.859 41.600 C 352.830 41.600,352.442 41.403,352.284 40.800 C 352.124 40.189,351.738 40.000,350.652 40.000 C 349.638 40.000,349.105 39.770,348.800 39.200 C 348.465 38.573,347.962 38.400,346.482 38.400 C 345.026 38.400,344.478 38.217,344.093 37.600 C 343.653 36.896,343.160 36.800,339.997 36.800 C 337.189 36.800,336.400 36.678,336.400 36.243 C 336.400 34.834,323.283 34.598,322.916 36.000 C 322.725 36.729,322.370 36.800,318.916 36.800 C 315.462 36.800,315.107 36.871,314.916 37.600 C 314.731 38.309,314.370 38.400,311.753 38.400 C 309.067 38.400,308.800 38.472,308.800 39.200 C 308.800 39.911,308.533 40.000,306.400 40.000 C 304.267 40.000,304.000 40.089,304.000 40.800 C 304.000 41.502,303.733 41.600,301.820 41.600 C 300.418 41.600,299.526 41.792,299.320 42.138 C 299.144 42.434,298.421 42.789,297.713 42.926 C 297.004 43.063,296.014 43.586,295.512 44.087 L 294.600 45.000 294.485 41.059 C 294.382 37.531,294.288 37.096,293.585 36.912 C 292.876 36.727,292.800 36.347,292.800 33.002 C 292.800 30.198,292.654 29.177,292.200 28.800 C 291.862 28.519,291.600 27.647,291.600 26.801 C 291.600 24.488,291.157 22.800,290.550 22.800 C 290.211 22.800,290.000 22.359,290.000 21.650 C 290.000 19.663,289.521 18.000,288.950 18.000 C 288.557 18.000,288.400 17.431,288.400 16.003 C 288.400 14.440,288.226 13.898,287.600 13.507 C 287.069 13.175,286.800 12.574,286.800 11.718 C 286.800 10.838,286.546 10.292,286.000 10.000 C 285.501 9.733,285.200 9.162,285.200 8.482 C 285.200 7.826,284.882 7.194,284.400 6.893 C 283.915 6.590,283.600 5.960,283.600 5.293 C 283.600 4.639,283.287 3.997,282.828 3.710 C 282.403 3.445,281.998 2.727,281.928 2.114 L 281.800 1.000 276.200 0.926 C 273.120 0.885,270.375 0.945,270.100 1.059 M268.983 24.096 C 269.725 25.156,271.204 29.897,272.448 35.200 C 273.234 38.554,273.345 40.175,273.389 49.000 C 273.447 60.424,273.740 61.674,277.160 65.075 C 282.495 70.380,288.559 70.880,296.311 66.651 C 298.450 65.485,301.370 64.028,302.800 63.414 C 304.230 62.800,306.005 62.033,306.745 61.709 C 312.626 59.134,324.429 56.400,329.668 56.400 C 332.744 56.400,339.329 57.705,341.534 58.752 C 351.123 63.304,356.695 67.001,363.855 73.562 C 367.391 76.802,367.402 76.765,360.323 85.853 C 345.574 104.788,331.158 109.471,305.121 103.785 C 288.603 100.178,276.947 116.389,286.752 129.331 C 290.282 133.990,294.456 135.821,302.302 136.153 C 308.574 136.419,318.953 138.180,323.800 139.801 C 324.680 140.095,326.480 140.634,327.800 140.998 C 340.454 144.491,360.379 155.664,367.286 163.141 C 369.547 165.588,372.000 168.867,372.000 169.441 C 372.000 169.604,372.233 170.021,372.519 170.369 C 373.844 171.981,376.066 178.952,376.992 184.400 C 379.041 196.460,375.555 221.504,371.327 225.098 C 368.717 227.316,350.120 236.000,347.979 236.000 C 347.761 236.000,346.282 236.351,344.692 236.780 C 336.693 238.938,328.648 239.379,321.729 238.039 C 319.568 237.620,317.038 237.155,316.106 237.005 C 313.608 236.602,310.819 237.656,308.914 239.722 C 306.297 242.560,304.400 243.423,304.400 241.776 C 304.400 241.431,304.006 241.200,303.419 241.200 C 302.292 241.200,301.106 239.002,300.183 235.200 C 296.018 218.044,288.448 203.180,274.800 185.357 C 264.391 171.763,242.348 151.041,227.200 140.609 C 225.990 139.776,224.684 138.819,224.297 138.482 C 223.911 138.146,223.239 137.675,222.805 137.436 C 222.371 137.196,219.447 135.269,216.308 133.154 C 213.168 131.039,209.062 128.339,207.182 127.154 C 202.823 124.407,202.701 124.332,199.600 122.473 C 198.170 121.616,195.806 120.179,194.347 119.281 C 192.888 118.383,190.908 117.272,189.947 116.811 C 186.187 115.010,185.823 113.581,188.924 112.790 C 189.846 112.555,191.050 112.191,191.600 111.981 C 194.068 111.040,200.614 109.896,205.075 109.628 C 216.834 108.920,223.003 100.915,220.202 90.000 C 218.947 85.111,218.731 82.996,218.932 77.600 C 219.184 70.868,221.172 61.243,223.058 57.629 C 223.353 57.063,223.596 56.358,223.598 56.062 C 223.599 55.766,223.854 55.046,224.165 54.462 C 224.475 53.878,225.218 52.410,225.815 51.200 C 233.145 36.340,243.025 28.953,261.600 24.448 C 267.567 23.000,268.194 22.970,268.983 24.096 M116.085 102.245 C 119.102 103.430,121.692 104.400,121.841 104.400 C 121.990 104.400,122.852 104.744,123.756 105.165 C 124.660 105.585,128.010 107.032,131.200 108.379 C 137.188 110.907,138.129 111.326,143.200 113.717 C 144.850 114.495,147.280 115.618,148.600 116.214 C 151.696 117.610,170.059 126.759,170.593 127.171 C 170.817 127.343,172.080 128.079,173.400 128.806 C 174.720 129.533,176.520 130.543,177.400 131.051 C 178.280 131.558,179.540 132.248,180.200 132.584 C 180.860 132.920,182.120 133.647,183.000 134.200 C 183.880 134.752,185.230 135.565,186.000 136.006 C 186.770 136.447,187.756 137.031,188.190 137.304 C 190.901 139.005,193.238 140.400,193.376 140.400 C 193.465 140.400,194.695 141.165,196.110 142.100 C 197.525 143.035,200.250 144.790,202.166 146.000 C 204.082 147.210,207.162 149.280,209.012 150.600 C 210.861 151.920,214.366 154.418,216.801 156.152 C 219.236 157.885,221.897 159.906,222.714 160.642 C 223.531 161.379,224.310 161.986,224.444 161.991 C 226.909 162.085,253.191 187.268,257.999 194.144 C 258.328 194.615,258.935 195.360,259.348 195.800 C 261.136 197.707,267.328 206.506,269.483 210.200 C 273.269 216.693,275.020 220.054,277.509 225.600 C 279.147 229.251,282.611 240.302,283.025 243.200 C 283.167 244.190,283.523 245.990,283.817 247.200 C 284.111 248.410,284.541 251.020,284.773 253.000 C 285.005 254.980,285.370 257.860,285.584 259.400 C 286.087 263.012,286.102 272.494,285.612 276.600 C 284.622 284.896,284.336 286.705,283.788 288.108 C 283.465 288.938,283.195 290.108,283.189 290.708 C 283.183 291.309,282.632 293.330,281.966 295.200 C 281.299 297.070,280.489 299.410,280.166 300.400 C 276.470 311.728,262.941 330.049,251.803 338.811 C 250.925 339.501,250.115 340.187,250.003 340.333 C 248.908 341.771,231.309 353.600,230.265 353.600 C 230.176 353.600,228.354 354.590,226.218 355.800 C 224.081 357.010,222.213 358.003,222.067 358.007 C 221.920 358.010,220.540 358.652,219.000 359.432 C 211.695 363.132,198.071 368.224,187.000 371.393 C 185.900 371.707,183.830 372.320,182.400 372.754 C 180.970 373.189,178.900 373.749,177.800 373.999 C 172.601 375.182,168.276 376.106,164.800 376.776 C 162.710 377.179,160.280 377.694,159.400 377.920 C 158.520 378.145,156.540 378.450,155.000 378.597 C 153.460 378.744,151.472 379.022,150.581 379.215 C 141.697 381.145,116.873 380.853,103.400 378.660 C 97.574 377.712,84.195 373.965,82.600 372.834 C 82.380 372.678,80.850 372.024,79.200 371.380 C 63.926 365.420,48.034 351.150,38.445 334.781 C 37.074 332.441,32.800 323.875,32.796 323.460 C 32.794 323.207,32.350 322.100,31.809 321.000 C 31.268 319.900,30.819 318.721,30.813 318.380 C 30.806 318.039,30.611 317.571,30.379 317.339 C 30.148 317.108,29.707 316.037,29.398 314.959 C 29.089 313.882,28.448 311.740,27.974 310.200 C 27.499 308.660,26.791 306.050,26.400 304.400 C 26.010 302.750,25.579 301.130,25.442 300.800 C 25.031 299.808,23.965 290.962,23.564 285.220 C 23.047 277.815,23.725 266.491,25.242 257.200 C 26.174 251.487,28.009 242.619,28.717 240.400 C 28.963 239.630,29.629 237.380,30.197 235.400 C 31.996 229.131,33.322 225.013,33.667 224.620 C 33.850 224.411,34.000 223.883,34.000 223.446 C 34.000 223.010,34.331 221.921,34.735 221.026 C 35.811 218.644,37.198 215.044,37.214 214.592 C 37.221 214.377,37.575 213.480,38.000 212.600 C 38.425 211.720,38.779 210.782,38.786 210.515 C 38.794 210.249,39.451 208.629,40.246 206.915 C 41.041 205.202,42.011 203.080,42.401 202.200 C 44.229 198.078,45.546 195.300,48.658 189.000 C 50.505 185.260,52.186 181.930,52.392 181.600 C 52.757 181.017,54.931 177.084,57.590 172.200 C 60.156 167.485,61.351 165.397,61.596 165.200 C 61.733 165.090,62.082 164.415,62.371 163.700 C 62.660 162.985,63.055 162.400,63.249 162.400 C 63.442 162.400,63.600 162.175,63.601 161.900 C 63.601 161.625,64.321 160.363,65.201 159.096 C 66.080 157.828,66.800 156.672,66.800 156.525 C 66.800 156.379,67.586 155.075,68.548 153.629 C 72.186 148.154,74.233 144.997,75.200 143.363 C 75.750 142.434,76.483 141.342,76.830 140.937 C 77.176 140.532,78.526 138.606,79.830 136.657 C 83.293 131.481,83.184 131.637,85.408 128.600 C 96.096 114.002,105.173 102.367,107.211 100.652 C 108.734 99.370,108.795 99.381,116.085 102.245 " stroke="none" fill="#34362e" fill-rule="evenodd"></path><path id="path1" d="M106.872 102.661 C 105.952 103.684,105.200 104.592,105.200 104.678 C 105.200 104.814,101.975 108.776,100.661 110.253 C 100.067 110.922,99.954 111.067,96.399 115.747 C 91.736 121.884,86.400 129.201,86.400 129.457 C 86.400 129.585,85.680 130.549,84.800 131.600 C 83.920 132.651,83.200 133.631,83.200 133.777 C 83.200 133.923,82.248 135.338,81.086 136.921 C 78.717 140.146,73.600 147.841,73.600 148.179 C 73.600 148.300,72.997 149.254,72.261 150.299 C 71.525 151.345,70.802 152.470,70.655 152.800 C 70.507 153.130,69.854 154.210,69.203 155.200 C 68.552 156.190,67.463 157.900,66.782 159.000 C 66.102 160.100,65.019 161.810,64.376 162.800 C 63.733 163.790,63.007 165.095,62.764 165.700 C 62.521 166.305,62.179 166.800,62.004 166.800 C 61.830 166.800,61.578 167.205,61.445 167.700 C 61.313 168.195,60.630 169.500,59.928 170.600 C 57.216 174.852,50.109 188.517,46.405 196.600 C 46.002 197.480,44.777 200.090,43.684 202.400 C 40.374 209.391,34.036 225.956,33.201 229.800 C 33.009 230.680,32.571 232.069,32.226 232.887 C 31.882 233.705,31.600 234.758,31.600 235.227 C 31.600 235.696,31.335 236.646,31.011 237.340 C 30.282 238.899,29.303 242.780,28.573 247.000 C 28.269 248.760,27.845 250.560,27.632 251.000 C 27.419 251.440,27.043 253.411,26.797 255.379 C 26.551 257.348,26.230 259.148,26.084 259.379 C 23.830 262.952,25.079 299.121,27.632 304.209 C 27.855 304.654,28.281 306.094,28.579 307.409 C 29.286 310.531,30.279 313.995,30.756 315.000 C 32.020 317.662,33.200 320.570,33.200 321.025 C 33.200 321.508,35.956 327.796,36.784 329.200 C 36.978 329.530,37.805 331.060,38.621 332.600 C 39.438 334.140,40.233 335.490,40.388 335.600 C 40.542 335.710,41.187 336.700,41.819 337.800 C 43.207 340.213,46.820 345.199,48.775 347.400 C 51.069 349.982,60.071 358.800,60.413 358.800 C 60.586 358.800,61.721 359.610,62.936 360.600 C 64.152 361.590,65.234 362.400,65.342 362.400 C 65.449 362.400,66.766 363.226,68.269 364.235 C 71.028 366.088,81.937 371.600,82.846 371.600 C 83.271 371.600,86.953 372.939,89.400 373.984 C 90.216 374.332,92.753 374.995,98.800 376.441 C 109.086 378.900,133.780 380.107,144.000 378.649 C 146.310 378.320,149.626 377.939,151.369 377.802 C 153.112 377.666,154.828 377.399,155.181 377.210 C 155.535 377.021,157.709 376.650,160.012 376.386 C 162.315 376.121,164.504 375.746,164.875 375.552 C 165.246 375.358,166.951 375.004,168.664 374.766 C 170.377 374.528,172.092 374.165,172.474 373.960 C 172.857 373.756,174.392 373.336,175.885 373.028 C 177.378 372.720,179.950 372.076,181.600 371.596 C 183.250 371.117,185.590 370.482,186.800 370.186 C 188.010 369.890,189.900 369.343,191.000 368.972 C 194.355 367.838,196.930 366.955,198.400 366.433 C 199.170 366.159,200.430 365.756,201.200 365.537 C 201.970 365.318,203.332 364.792,204.226 364.369 C 205.121 363.946,206.111 363.594,206.426 363.587 C 206.742 363.580,207.349 363.310,207.776 362.987 C 208.204 362.664,208.800 362.400,209.101 362.400 C 209.725 362.400,212.106 361.336,219.044 357.958 C 221.709 356.661,224.079 355.600,224.311 355.600 C 224.543 355.600,224.793 355.455,224.867 355.277 C 224.940 355.099,227.340 353.626,230.200 352.003 C 233.060 350.380,235.490 348.950,235.600 348.825 C 236.021 348.348,240.841 345.200,241.151 345.200 C 241.330 345.200,241.798 344.845,242.191 344.410 C 242.584 343.976,243.219 343.521,243.602 343.399 C 244.281 343.184,244.704 342.849,249.113 339.030 C 250.276 338.024,251.369 337.200,251.543 337.200 C 251.718 337.200,254.235 334.815,257.138 331.900 C 263.099 325.914,262.634 326.422,265.842 322.400 C 268.062 319.617,268.927 318.361,272.315 313.000 C 273.010 311.900,273.742 310.806,273.941 310.569 C 274.139 310.332,274.435 309.702,274.598 309.169 C 274.761 308.636,275.122 307.930,275.400 307.600 C 275.678 307.270,276.038 306.550,276.200 306.000 C 276.362 305.450,276.723 304.730,277.003 304.400 C 277.282 304.070,277.639 303.170,277.795 302.400 C 277.951 301.630,278.331 300.601,278.639 300.114 C 278.948 299.627,279.200 298.904,279.200 298.508 C 279.200 298.112,279.560 297.116,280.000 296.296 C 280.440 295.475,280.797 294.577,280.794 294.301 C 280.791 294.026,281.142 292.630,281.575 291.200 C 283.933 283.401,285.167 261.343,283.621 254.600 C 283.369 253.500,282.973 251.070,282.741 249.200 C 282.509 247.330,282.073 245.080,281.773 244.200 C 281.473 243.320,281.101 241.790,280.948 240.800 C 280.794 239.810,280.342 238.280,279.943 237.400 C 279.544 236.520,279.214 235.226,279.209 234.524 C 279.204 233.822,279.025 233.139,278.811 233.007 C 278.597 232.874,278.226 232.009,277.987 231.083 C 277.748 230.157,277.203 228.637,276.776 227.704 C 276.349 226.772,276.000 225.884,276.000 225.732 C 276.000 225.579,275.145 223.762,274.100 221.693 C 273.055 219.625,271.966 217.452,271.679 216.866 C 271.393 216.280,270.985 215.530,270.773 215.200 C 270.562 214.870,270.193 214.105,269.955 213.500 C 269.717 212.895,269.388 212.400,269.225 212.400 C 269.062 212.400,268.711 211.922,268.445 211.338 C 267.800 209.924,265.381 206.259,263.511 203.864 C 262.680 202.799,262.000 201.714,262.000 201.453 C 262.000 201.192,261.685 200.680,261.300 200.317 C 260.313 199.386,259.467 198.376,259.000 197.573 C 258.426 196.586,256.049 193.782,254.300 192.029 C 253.475 191.202,252.800 190.421,252.800 190.295 C 252.800 189.564,239.182 176.031,234.390 172.000 C 233.213 171.010,231.518 169.565,230.625 168.788 C 229.731 168.011,228.113 166.668,227.028 165.803 C 225.944 164.937,224.594 163.799,224.028 163.272 C 223.463 162.746,222.010 161.666,220.800 160.872 C 219.590 160.078,218.456 159.197,218.280 158.914 C 218.104 158.631,217.699 158.400,217.380 158.400 C 217.061 158.400,216.800 158.255,216.800 158.077 C 216.800 157.653,214.724 156.187,204.400 149.324 C 199.670 146.180,195.583 143.426,195.317 143.204 C 195.051 142.982,194.715 142.800,194.569 142.800 C 194.280 142.800,192.548 141.739,187.551 138.500 C 185.769 137.345,184.187 136.400,184.036 136.400 C 183.884 136.400,183.536 136.176,183.263 135.903 C 182.814 135.454,179.341 133.434,176.200 131.795 C 175.540 131.451,173.650 130.395,172.000 129.449 C 168.838 127.636,154.835 120.535,148.400 117.481 C 141.248 114.088,138.437 112.800,138.179 112.800 C 137.885 112.800,136.376 112.144,131.800 110.026 C 128.238 108.377,123.044 106.201,120.600 105.333 C 119.720 105.020,118.460 104.522,117.800 104.227 C 117.140 103.931,116.150 103.557,115.600 103.396 C 115.050 103.234,114.420 102.960,114.200 102.787 C 113.858 102.518,109.089 100.800,108.685 100.800 C 108.607 100.800,107.792 101.637,106.872 102.661 M79.594 162.215 C 79.597 162.884,79.229 164.144,78.775 165.015 C 78.127 166.260,77.925 167.500,77.831 170.800 C 77.766 173.110,77.522 175.720,77.288 176.600 C 77.055 177.480,76.738 179.190,76.585 180.400 C 76.432 181.610,76.030 183.139,75.692 183.798 C 75.308 184.548,75.049 186.268,75.000 188.398 C 74.950 190.607,74.679 192.348,74.229 193.365 C 73.768 194.404,73.621 195.385,73.790 196.286 C 74.132 198.112,73.609 203.134,73.014 203.729 C 72.700 204.043,72.547 205.644,72.568 208.403 C 72.587 210.867,72.310 214.133,71.898 216.314 C 71.489 218.476,71.300 220.685,71.446 221.599 C 71.584 222.463,71.567 223.491,71.408 223.885 C 71.151 224.520,70.886 232.187,70.684 244.800 C 70.647 247.110,70.668 252.330,70.730 256.400 C 70.791 260.470,70.843 264.250,70.843 264.800 C 70.847 267.746,71.126 270.845,71.563 272.800 C 71.834 274.010,72.111 277.295,72.179 280.100 C 72.266 283.679,72.466 285.398,72.851 285.862 C 73.237 286.328,73.405 287.781,73.417 290.762 C 73.431 294.182,73.584 295.270,74.209 296.400 C 74.783 297.439,74.994 298.642,75.024 301.067 C 75.053 303.373,75.258 304.630,75.724 305.341 C 76.087 305.895,76.576 307.125,76.811 308.074 C 77.988 312.834,79.192 319.181,79.196 320.644 C 79.199 321.732,79.538 322.786,80.198 323.759 C 80.747 324.568,81.408 326.073,81.668 327.104 C 81.927 328.135,82.377 329.433,82.667 329.989 C 82.958 330.545,83.197 331.360,83.200 331.800 C 83.203 332.240,83.456 333.080,83.762 333.667 C 84.068 334.254,84.446 335.514,84.603 336.467 C 84.759 337.420,85.497 339.214,86.243 340.452 C 86.990 341.691,87.600 342.884,87.600 343.104 C 87.600 343.495,88.892 346.573,90.428 349.844 C 90.853 350.748,91.200 352.020,91.200 352.672 C 91.200 353.436,91.554 354.164,92.200 354.725 C 92.750 355.203,93.200 355.931,93.200 356.342 C 93.200 356.752,93.632 357.725,94.160 358.503 C 94.688 359.281,95.240 360.295,95.386 360.756 C 95.533 361.218,95.872 361.821,96.139 362.098 C 97.801 363.812,98.728 366.413,97.671 366.396 C 95.865 366.367,87.117 362.262,85.836 360.843 C 85.417 360.377,84.347 359.801,83.460 359.562 C 80.705 358.821,72.706 353.193,72.217 351.653 C 72.081 351.225,71.267 350.594,70.408 350.250 C 68.111 349.331,61.689 342.961,61.352 341.269 C 61.188 340.443,60.767 339.812,60.244 339.606 C 58.402 338.884,52.930 331.711,51.923 328.699 C 51.685 327.985,51.196 327.040,50.837 326.600 C 48.061 323.192,44.800 315.971,44.800 313.230 C 44.800 312.602,44.457 311.665,44.038 311.147 C 43.530 310.521,43.388 309.996,43.613 309.576 C 43.839 309.154,43.562 308.176,42.775 306.617 C 42.129 305.335,41.597 303.998,41.594 303.644 C 41.591 303.290,41.312 302.208,40.975 301.239 C 40.638 300.271,40.311 298.381,40.249 297.039 C 40.187 295.698,39.814 293.880,39.419 293.000 C 38.856 291.742,38.676 290.116,38.582 285.400 C 38.515 282.100,38.295 278.960,38.093 278.422 C 37.850 277.777,37.893 276.887,38.219 275.804 C 38.617 274.481,38.611 273.865,38.186 272.630 C 37.829 271.593,37.779 270.782,38.029 270.123 C 38.233 269.586,38.400 268.018,38.400 266.638 C 38.400 265.257,38.672 263.244,39.004 262.164 C 39.407 260.854,39.524 259.495,39.356 258.084 C 39.183 256.636,39.295 255.436,39.709 254.284 C 41.011 250.665,41.639 248.278,41.431 247.737 C 41.137 246.970,41.970 243.144,42.593 242.400 C 42.869 242.070,43.212 240.606,43.354 239.147 C 43.735 235.236,46.887 225.295,47.865 224.920 C 48.159 224.807,48.400 224.263,48.400 223.712 C 48.400 223.160,48.731 222.054,49.136 221.254 C 51.045 217.478,51.353 216.643,51.420 215.065 C 51.459 214.133,51.786 212.801,52.146 212.105 C 52.506 211.409,52.800 210.567,52.800 210.234 C 52.800 209.901,53.135 209.449,53.543 209.230 C 54.025 208.972,54.374 208.198,54.534 207.027 C 54.670 206.034,55.686 203.420,56.791 201.218 C 57.896 199.016,58.800 196.981,58.800 196.696 C 58.800 196.411,59.340 195.587,60.000 194.864 C 60.672 194.129,61.200 193.105,61.200 192.537 C 61.200 191.980,61.450 191.046,61.755 190.462 C 62.060 189.878,62.519 188.950,62.775 188.400 C 64.167 185.413,67.257 180.406,68.054 179.847 C 68.477 179.551,69.549 177.529,70.435 175.354 C 72.818 169.508,73.908 167.428,75.371 165.939 C 76.094 165.202,76.794 164.028,76.927 163.330 C 77.461 160.521,79.581 159.635,79.594 162.215 " stroke="none" fill="#734c91" fill-rule="evenodd"></path><path id="path2" d="M266.000 23.466 C 256.527 24.953,244.044 30.220,237.438 35.519 C 232.397 39.563,229.881 42.958,225.815 51.200 C 225.218 52.410,224.475 53.878,224.165 54.462 C 223.854 55.046,223.599 55.766,223.598 56.062 C 223.596 56.358,223.353 57.063,223.058 57.629 C 221.172 61.243,219.184 70.868,218.932 77.600 C 218.731 82.996,218.947 85.111,220.202 90.000 C 223.003 100.915,216.834 108.920,205.075 109.628 C 200.614 109.896,194.068 111.040,191.600 111.981 C 191.050 112.191,189.846 112.555,188.924 112.790 C 185.823 113.581,186.187 115.010,189.947 116.811 C 190.908 117.272,192.888 118.383,194.347 119.281 C 195.806 120.179,198.170 121.616,199.600 122.473 C 202.701 124.332,202.823 124.407,207.182 127.154 C 209.062 128.339,213.168 131.039,216.308 133.154 C 219.447 135.269,222.371 137.196,222.805 137.436 C 223.239 137.675,223.911 138.146,224.297 138.482 C 224.684 138.819,225.990 139.776,227.200 140.609 C 242.348 151.041,264.391 171.763,274.800 185.357 C 288.448 203.180,296.018 218.044,300.183 235.200 C 301.106 239.002,302.292 241.200,303.419 241.200 C 304.006 241.200,304.400 241.431,304.400 241.776 C 304.400 243.423,306.297 242.560,308.914 239.722 C 310.819 237.656,313.608 236.602,316.106 237.005 C 317.038 237.155,319.568 237.620,321.729 238.039 C 328.648 239.379,336.693 238.938,344.692 236.780 C 346.282 236.351,347.761 236.000,347.979 236.000 C 350.120 236.000,368.717 227.316,371.327 225.098 C 375.555 221.504,379.041 196.460,376.992 184.400 C 376.066 178.952,373.844 171.981,372.519 170.369 C 372.233 170.021,372.000 169.604,372.000 169.441 C 372.000 168.867,369.547 165.588,367.286 163.141 C 360.379 155.664,340.454 144.491,327.800 140.998 C 326.480 140.634,324.680 140.095,323.800 139.801 C 318.953 138.180,308.574 136.419,302.302 136.153 C 294.456 135.821,290.282 133.990,286.752 129.331 C 276.947 116.389,288.603 100.178,305.121 103.785 C 331.158 109.471,345.574 104.788,360.323 85.853 C 367.402 76.765,367.391 76.802,363.855 73.562 C 356.695 67.001,351.123 63.304,341.534 58.752 C 339.329 57.705,332.744 56.400,329.668 56.400 C 324.429 56.400,312.626 59.134,306.745 61.709 C 306.005 62.033,304.230 62.800,302.800 63.414 C 301.370 64.028,298.450 65.485,296.311 66.651 C 288.559 70.880,282.495 70.380,277.160 65.075 C 273.740 61.674,273.447 60.424,273.389 49.000 C 273.345 40.175,273.234 38.554,272.448 35.200 C 271.204 29.897,269.725 25.156,268.983 24.096 C 268.368 23.219,268.030 23.147,266.000 23.466 " stroke="none" fill="#629d2c" fill-rule="evenodd"></path><path id="path3" d="M78.084 161.125 C 77.580 161.639,77.059 162.631,76.927 163.330 C 76.794 164.028,76.094 165.202,75.371 165.939 C 73.908 167.428,72.818 169.508,70.435 175.354 C 69.549 177.529,68.477 179.551,68.054 179.847 C 67.257 180.406,64.167 185.413,62.775 188.400 C 62.519 188.950,62.060 189.878,61.755 190.462 C 61.450 191.046,61.200 191.980,61.200 192.537 C 61.200 193.105,60.672 194.129,60.000 194.864 C 59.340 195.587,58.800 196.411,58.800 196.696 C 58.800 196.981,57.896 199.016,56.791 201.218 C 55.686 203.420,54.670 206.034,54.534 207.027 C 54.374 208.198,54.025 208.972,53.543 209.230 C 53.135 209.449,52.800 209.901,52.800 210.234 C 52.800 210.567,52.506 211.409,52.146 212.105 C 51.786 212.801,51.459 214.133,51.420 215.065 C 51.353 216.643,51.045 217.478,49.136 221.254 C 48.731 222.054,48.400 223.160,48.400 223.712 C 48.400 224.263,48.159 224.807,47.865 224.920 C 46.887 225.295,43.735 235.236,43.354 239.147 C 43.212 240.606,42.869 242.070,42.593 242.400 C 41.970 243.144,41.137 246.970,41.431 247.737 C 41.639 248.278,41.011 250.665,39.709 254.284 C 39.295 255.436,39.183 256.636,39.356 258.084 C 39.524 259.495,39.407 260.854,39.004 262.164 C 38.672 263.244,38.400 265.257,38.400 266.638 C 38.400 268.018,38.233 269.586,38.029 270.123 C 37.779 270.782,37.829 271.593,38.186 272.630 C 38.611 273.865,38.617 274.481,38.219 275.804 C 37.893 276.887,37.850 277.777,38.093 278.422 C 38.295 278.960,38.515 282.100,38.582 285.400 C 38.676 290.116,38.856 291.742,39.419 293.000 C 39.814 293.880,40.187 295.698,40.249 297.039 C 40.311 298.381,40.638 300.271,40.975 301.239 C 41.312 302.208,41.591 303.290,41.594 303.644 C 41.597 303.998,42.129 305.335,42.775 306.617 C 43.562 308.176,43.839 309.154,43.613 309.576 C 43.388 309.996,43.530 310.521,44.038 311.147 C 44.457 311.665,44.800 312.602,44.800 313.230 C 44.800 315.971,48.061 323.192,50.837 326.600 C 51.196 327.040,51.685 327.985,51.923 328.699 C 52.930 331.711,58.402 338.884,60.244 339.606 C 60.767 339.812,61.188 340.443,61.352 341.269 C 61.689 342.961,68.111 349.331,70.408 350.250 C 71.267 350.594,72.081 351.225,72.217 351.653 C 72.706 353.193,80.705 358.821,83.460 359.562 C 84.347 359.801,85.417 360.377,85.836 360.843 C 87.117 362.262,95.865 366.367,97.671 366.396 C 98.728 366.413,97.801 363.812,96.139 362.098 C 95.872 361.821,95.533 361.218,95.386 360.756 C 95.240 360.295,94.688 359.281,94.160 358.503 C 93.632 357.725,93.200 356.752,93.200 356.342 C 93.200 355.931,92.750 355.203,92.200 354.725 C 91.554 354.164,91.200 353.436,91.200 352.672 C 91.200 352.020,90.853 350.748,90.428 349.844 C 88.892 346.573,87.600 343.495,87.600 343.104 C 87.600 342.884,86.990 341.691,86.243 340.452 C 85.497 339.214,84.759 337.420,84.603 336.467 C 84.446 335.514,84.068 334.254,83.762 333.667 C 83.456 333.080,83.203 332.240,83.200 331.800 C 83.197 331.360,82.958 330.545,82.667 329.989 C 82.377 329.433,81.927 328.135,81.668 327.104 C 81.408 326.073,80.747 324.568,80.198 323.759 C 79.538 322.786,79.199 321.732,79.196 320.644 C 79.192 319.181,77.988 312.834,76.811 308.074 C 76.576 307.125,76.087 305.895,75.724 305.341 C 75.258 304.630,75.053 303.373,75.024 301.067 C 74.994 298.642,74.783 297.439,74.209 296.400 C 73.584 295.270,73.431 294.182,73.417 290.762 C 73.405 287.781,73.237 286.328,72.851 285.862 C 72.466 285.398,72.266 283.679,72.179 280.100 C 72.111 277.295,71.834 274.010,71.563 272.800 C 71.126 270.845,70.847 267.746,70.843 264.800 C 70.843 264.250,70.791 260.470,70.730 256.400 C 70.668 252.330,70.647 247.110,70.684 244.800 C 70.886 232.187,71.151 224.520,71.408 223.885 C 71.567 223.491,71.584 222.463,71.446 221.599 C 71.300 220.685,71.489 218.476,71.898 216.314 C 72.310 214.133,72.587 210.867,72.568 208.403 C 72.547 205.644,72.700 204.043,73.014 203.729 C 73.609 203.134,74.132 198.112,73.790 196.286 C 73.621 195.385,73.768 194.404,74.229 193.365 C 74.679 192.348,74.950 190.607,75.000 188.398 C 75.049 186.268,75.308 184.548,75.692 183.798 C 76.030 183.139,76.432 181.610,76.585 180.400 C 76.738 179.190,77.055 177.480,77.288 176.600 C 77.522 175.720,77.766 173.110,77.831 170.800 C 77.925 167.500,78.127 166.260,78.775 165.015 C 80.223 162.235,79.727 159.447,78.084 161.125 " stroke="none" fill="#7c5c9a" fill-rule="evenodd"></path><path id="path4" d="M107.211 100.652 C 105.173 102.367,96.096 114.002,85.408 128.600 C 83.184 131.637,83.293 131.481,79.830 136.657 C 78.526 138.606,77.176 140.532,76.830 140.937 C 76.483 141.342,75.750 142.434,75.200 143.363 C 74.233 144.997,72.186 148.154,68.548 153.629 C 67.586 155.075,66.800 156.379,66.800 156.525 C 66.800 156.672,66.080 157.828,65.201 159.096 C 64.321 160.363,63.601 161.625,63.601 161.900 C 63.600 162.175,63.442 162.400,63.249 162.400 C 63.055 162.400,62.660 162.985,62.371 163.700 C 62.082 164.415,61.733 165.090,61.596 165.200 C 61.351 165.397,60.156 167.485,57.590 172.200 C 54.931 177.084,52.757 181.017,52.392 181.600 C 52.186 181.930,50.505 185.260,48.658 189.000 C 45.546 195.300,44.229 198.078,42.401 202.200 C 42.011 203.080,41.041 205.202,40.246 206.915 C 39.451 208.629,38.794 210.249,38.786 210.515 C 38.779 210.782,38.425 211.720,38.000 212.600 C 37.575 213.480,37.221 214.377,37.214 214.592 C 37.198 215.044,35.811 218.644,34.735 221.026 C 34.331 221.921,34.000 223.010,34.000 223.446 C 34.000 223.883,33.850 224.411,33.667 224.620 C 33.322 225.013,31.996 229.131,30.197 235.400 C 29.629 237.380,28.963 239.630,28.717 240.400 C 28.009 242.619,26.174 251.487,25.242 257.200 C 23.725 266.491,23.047 277.815,23.564 285.220 C 23.965 290.962,25.031 299.808,25.442 300.800 C 25.579 301.130,26.010 302.750,26.400 304.400 C 26.791 306.050,27.499 308.660,27.974 310.200 C 28.448 311.740,29.089 313.882,29.398 314.959 C 29.707 316.037,30.148 317.108,30.379 317.339 C 30.611 317.571,30.806 318.039,30.813 318.380 C 30.819 318.721,31.268 319.900,31.809 321.000 C 32.350 322.100,32.794 323.207,32.796 323.460 C 32.800 323.875,37.074 332.441,38.445 334.781 C 48.034 351.150,63.926 365.420,79.200 371.380 C 80.850 372.024,82.380 372.678,82.600 372.834 C 84.195 373.965,97.574 377.712,103.400 378.660 C 116.873 380.853,141.697 381.145,150.581 379.215 C 151.472 379.022,153.460 378.744,155.000 378.597 C 156.540 378.450,158.520 378.145,159.400 377.920 C 160.280 377.694,162.710 377.179,164.800 376.776 C 168.276 376.106,172.601 375.182,177.800 373.999 C 178.900 373.749,180.970 373.189,182.400 372.754 C 183.830 372.320,185.900 371.707,187.000 371.393 C 198.071 368.224,211.695 363.132,219.000 359.432 C 220.540 358.652,221.920 358.010,222.067 358.007 C 222.213 358.003,224.081 357.010,226.218 355.800 C 228.354 354.590,230.176 353.600,230.265 353.600 C 231.309 353.600,248.908 341.771,250.003 340.333 C 250.115 340.187,250.925 339.501,251.803 338.811 C 262.941 330.049,276.470 311.728,280.166 300.400 C 280.489 299.410,281.299 297.070,281.966 295.200 C 282.632 293.330,283.183 291.309,283.189 290.708 C 283.195 290.108,283.465 288.938,283.788 288.108 C 284.336 286.705,284.622 284.896,285.612 276.600 C 286.102 272.494,286.087 263.012,285.584 259.400 C 285.370 257.860,285.005 254.980,284.773 253.000 C 284.541 251.020,284.111 248.410,283.817 247.200 C 283.523 245.990,283.167 244.190,283.025 243.200 C 282.611 240.302,279.147 229.251,277.509 225.600 C 275.020 220.054,273.269 216.693,269.483 210.200 C 267.328 206.506,261.136 197.707,259.348 195.800 C 258.935 195.360,258.328 194.615,257.999 194.144 C 253.191 187.268,226.909 162.085,224.444 161.991 C 224.310 161.986,223.531 161.379,222.714 160.642 C 221.897 159.906,219.236 157.885,216.801 156.152 C 214.366 154.418,210.861 151.920,209.012 150.600 C 207.162 149.280,204.082 147.210,202.166 146.000 C 200.250 144.790,197.525 143.035,196.110 142.100 C 194.695 141.165,193.465 140.400,193.376 140.400 C 193.238 140.400,190.901 139.005,188.190 137.304 C 187.756 137.031,186.770 136.447,186.000 136.006 C 185.230 135.565,183.880 134.752,183.000 134.200 C 182.120 133.647,180.860 132.920,180.200 132.584 C 179.540 132.248,178.280 131.558,177.400 131.051 C 176.520 130.543,174.720 129.533,173.400 128.806 C 172.080 128.079,170.817 127.343,170.593 127.171 C 170.059 126.759,151.696 117.610,148.600 116.214 C 147.280 115.618,144.850 114.495,143.200 113.717 C 138.129 111.326,137.188 110.907,131.200 108.379 C 128.010 107.032,124.660 105.585,123.756 105.165 C 122.852 104.744,121.990 104.400,121.841 104.400 C 121.692 104.400,119.102 103.430,116.085 102.245 C 108.795 99.381,108.734 99.370,107.211 100.652 M111.313 101.636 C 112.681 102.096,113.980 102.614,114.200 102.787 C 114.420 102.960,115.050 103.234,115.600 103.396 C 116.150 103.557,117.140 103.931,117.800 104.227 C 118.460 104.522,119.720 105.020,120.600 105.333 C 123.044 106.201,128.238 108.377,131.800 110.026 C 136.376 112.144,137.885 112.800,138.179 112.800 C 138.437 112.800,141.248 114.088,148.400 117.481 C 154.835 120.535,168.838 127.636,172.000 129.449 C 173.650 130.395,175.540 131.451,176.200 131.795 C 179.341 133.434,182.814 135.454,183.263 135.903 C 183.536 136.176,183.884 136.400,184.036 136.400 C 184.187 136.400,185.769 137.345,187.551 138.500 C 192.548 141.739,194.280 142.800,194.569 142.800 C 194.715 142.800,195.051 142.982,195.317 143.204 C 195.583 143.426,199.670 146.180,204.400 149.324 C 214.724 156.187,216.800 157.653,216.800 158.077 C 216.800 158.255,217.061 158.400,217.380 158.400 C 217.699 158.400,218.104 158.631,218.280 158.914 C 218.456 159.197,219.590 160.078,220.800 160.872 C 222.010 161.666,223.463 162.746,224.028 163.272 C 224.594 163.799,225.944 164.937,227.028 165.803 C 228.113 166.668,229.731 168.011,230.625 168.788 C 231.518 169.565,233.213 171.010,234.390 172.000 C 239.182 176.031,252.800 189.564,252.800 190.295 C 252.800 190.421,253.475 191.202,254.300 192.029 C 256.049 193.782,258.426 196.586,259.000 197.573 C 259.467 198.376,260.313 199.386,261.300 200.317 C 261.685 200.680,262.000 201.192,262.000 201.453 C 262.000 201.714,262.680 202.799,263.511 203.864 C 265.381 206.259,267.800 209.924,268.445 211.338 C 268.711 211.922,269.062 212.400,269.225 212.400 C 269.388 212.400,269.717 212.895,269.955 213.500 C 270.193 214.105,270.562 214.870,270.773 215.200 C 270.985 215.530,271.393 216.280,271.679 216.866 C 271.966 217.452,273.055 219.625,274.100 221.693 C 275.145 223.762,276.000 225.579,276.000 225.732 C 276.000 225.884,276.349 226.772,276.776 227.704 C 277.203 228.637,277.748 230.157,277.987 231.083 C 278.226 232.009,278.597 232.874,278.811 233.007 C 279.025 233.139,279.204 233.822,279.209 234.524 C 279.214 235.226,279.544 236.520,279.943 237.400 C 280.342 238.280,280.794 239.810,280.948 240.800 C 281.101 241.790,281.473 243.320,281.773 244.200 C 282.073 245.080,282.509 247.330,282.741 249.200 C 282.973 251.070,283.369 253.500,283.621 254.600 C 285.167 261.343,283.933 283.401,281.575 291.200 C 281.142 292.630,280.791 294.026,280.794 294.301 C 280.797 294.577,280.440 295.475,280.000 296.296 C 279.560 297.116,279.200 298.112,279.200 298.508 C 279.200 298.904,278.948 299.627,278.639 300.114 C 278.331 300.601,277.951 301.630,277.795 302.400 C 277.639 303.170,277.282 304.070,277.003 304.400 C 276.723 304.730,276.362 305.450,276.200 306.000 C 276.038 306.550,275.678 307.270,275.400 307.600 C 275.122 307.930,274.761 308.636,274.598 309.169 C 274.435 309.702,274.139 310.332,273.941 310.569 C 273.742 310.806,273.010 311.900,272.315 313.000 C 268.927 318.361,268.062 319.617,265.842 322.400 C 262.634 326.422,263.099 325.914,257.138 331.900 C 254.235 334.815,251.718 337.200,251.543 337.200 C 251.369 337.200,250.276 338.024,249.113 339.030 C 244.704 342.849,244.281 343.184,243.602 343.399 C 243.219 343.521,242.584 343.976,242.191 344.410 C 241.798 344.845,241.330 345.200,241.151 345.200 C 240.841 345.200,236.021 348.348,235.600 348.825 C 235.490 348.950,233.060 350.380,230.200 352.003 C 227.340 353.626,224.940 355.099,224.867 355.277 C 224.793 355.455,224.543 355.600,224.311 355.600 C 224.079 355.600,221.709 356.661,219.044 357.958 C 212.106 361.336,209.725 362.400,209.101 362.400 C 208.800 362.400,208.204 362.664,207.776 362.987 C 207.349 363.310,206.742 363.580,206.426 363.587 C 206.111 363.594,205.121 363.946,204.226 364.369 C 203.332 364.792,201.970 365.318,201.200 365.537 C 200.430 365.756,199.170 366.159,198.400 366.433 C 196.930 366.955,194.355 367.838,191.000 368.972 C 189.900 369.343,188.010 369.890,186.800 370.186 C 185.590 370.482,183.250 371.117,181.600 371.596 C 179.950 372.076,177.378 372.720,175.885 373.028 C 174.392 373.336,172.857 373.756,172.474 373.960 C 172.092 374.165,170.377 374.528,168.664 374.766 C 166.951 375.004,165.246 375.358,164.875 375.552 C 164.504 375.746,162.315 376.121,160.012 376.386 C 157.709 376.650,155.535 377.021,155.181 377.210 C 154.828 377.399,153.112 377.666,151.369 377.802 C 149.626 377.939,146.310 378.320,144.000 378.649 C 133.780 380.107,109.086 378.900,98.800 376.441 C 92.753 374.995,90.216 374.332,89.400 373.984 C 86.953 372.939,83.271 371.600,82.846 371.600 C 81.937 371.600,71.028 366.088,68.269 364.235 C 66.766 363.226,65.449 362.400,65.342 362.400 C 65.234 362.400,64.152 361.590,62.936 360.600 C 61.721 359.610,60.586 358.800,60.413 358.800 C 60.071 358.800,51.069 349.982,48.775 347.400 C 46.820 345.199,43.207 340.213,41.819 337.800 C 41.187 336.700,40.542 335.710,40.388 335.600 C 40.233 335.490,39.438 334.140,38.621 332.600 C 37.805 331.060,36.978 329.530,36.784 329.200 C 35.956 327.796,33.200 321.508,33.200 321.025 C 33.200 320.570,32.020 317.662,30.756 315.000 C 30.279 313.995,29.286 310.531,28.579 307.409 C 28.281 306.094,27.855 304.654,27.632 304.209 C 25.079 299.121,23.830 262.952,26.084 259.379 C 26.230 259.148,26.551 257.348,26.797 255.379 C 27.043 253.411,27.419 251.440,27.632 251.000 C 27.845 250.560,28.269 248.760,28.573 247.000 C 29.303 242.780,30.282 238.899,31.011 237.340 C 31.335 236.646,31.600 235.696,31.600 235.227 C 31.600 234.758,31.882 233.705,32.226 232.887 C 32.571 232.069,33.009 230.680,33.201 229.800 C 33.780 227.135,34.642 224.741,39.829 211.400 C 40.856 208.760,42.590 204.710,43.684 202.400 C 44.777 200.090,46.002 197.480,46.405 196.600 C 50.109 188.517,57.216 174.852,59.928 170.600 C 60.630 169.500,61.313 168.195,61.445 167.700 C 61.578 167.205,61.830 166.800,62.004 166.800 C 62.179 166.800,62.521 166.305,62.764 165.700 C 63.007 165.095,63.733 163.790,64.376 162.800 C 65.019 161.810,66.102 160.100,66.782 159.000 C 67.463 157.900,68.552 156.190,69.203 155.200 C 69.854 154.210,70.507 153.130,70.655 152.800 C 70.802 152.470,71.525 151.345,72.261 150.299 C 72.997 149.254,73.600 148.300,73.600 148.179 C 73.600 147.841,78.717 140.146,81.086 136.921 C 82.248 135.338,83.200 133.923,83.200 133.777 C 83.200 133.631,83.920 132.651,84.800 131.600 C 85.680 130.549,86.400 129.585,86.400 129.457 C 86.400 129.201,91.736 121.884,96.399 115.747 C 99.954 111.067,100.067 110.922,100.661 110.253 C 101.975 108.776,105.200 104.814,105.200 104.678 C 105.200 104.474,108.501 100.800,108.685 100.800 C 108.762 100.800,109.945 101.176,111.313 101.636 " stroke="none" fill="#574467" fill-rule="evenodd"></path></g></svg>