<?xml version="1.0" encoding="utf-8"?>
<!-- Generator: Adobe Illustrator 18.0.0, SVG Export Plug-In . SVG Version: 6.00 Build 0)  -->
<!DOCTYPE svg PUBLIC "-//W3C//DTD SVG 1.1//EN" "http://www.w3.org/Graphics/SVG/1.1/DTD/svg11.dtd">
<svg version="1.1" id="Layer_1" xmlns="http://www.w3.org/2000/svg" xmlns:xlink="http://www.w3.org/1999/xlink" x="0px" y="0px"
	 viewBox="0 0 64 64" enable-background="new 0 0 64 64" xml:space="preserve">
<path fill="#231F20" d="M48.8,29c-1.8,0-3.5,0.3-5.1,0.9C33.3,20.1,33.3,8.2,33.7,4H41c1.1,0,2-0.9,2-2s-0.9-2-2-2H21
	c-1.1,0-2,0.9-2,2s0.9,2,2,2h5.8c-4.3,4.7-10.5,14-11.3,29.6c-7.8,0.6-14,7.2-14,15.2C1.6,57.2,8.4,64,16.8,64S32,57.2,32,48.8
	c0-7.4-5.4-13.6-12.5-15c0.5-11,4-18.5,7-22.9c1.1-1.6,2.1-2.9,3.1-4c0,6,1.6,16.1,10.3,24.9c-3.8,2.8-6.4,7.3-6.4,12.4
	c0,8.4,6.8,15.2,15.2,15.2S64,52.6,64,44.2S57.2,29,48.8,29z M28,48.8C28,55,23,60,16.8,60S5.6,55,5.6,48.8s5-11.2,11.2-11.2
	S28,42.6,28,48.8z M48.8,55.4c-6.2,0-11.2-5-11.2-11.2S42.6,33,48.8,33S60,38,60,44.2S55,55.4,48.8,55.4z"/>
</svg>
