<?xml version="1.0" encoding="utf-8"?>
<!-- Generator: Adobe Illustrator 18.0.0, SVG Export Plug-In . SVG Version: 6.00 Build 0)  -->
<!DOCTYPE svg PUBLIC "-//W3C//DTD SVG 1.1//EN" "http://www.w3.org/Graphics/SVG/1.1/DTD/svg11.dtd">
<svg version="1.1" id="Layer_1" xmlns="http://www.w3.org/2000/svg" xmlns:xlink="http://www.w3.org/1999/xlink" x="0px" y="0px"
	 viewBox="0 0 64 64" enable-background="new 0 0 64 64" xml:space="preserve">
<g>
	<g>
		<g>
			<path fill="#F9D746" d="M32,0c17.7,0,32,14.3,32,32S49.7,64,32,64S0,49.7,0,32S14.4,0,32,0z"/>
		</g>
	</g>
	<g>
		<g>
			<circle fill="#F4824A" cx="32" cy="34" r="18"/>
		</g>
	</g>
	<g>
		<g>
			<ellipse fill="#EF6452" cx="32" cy="18.5" rx="4" ry="1.5"/>
		</g>
	</g>
	<g>
		<g>
			<path fill="#92D855" d="M50,14c0,0-3.3,5-8.3,5.8c-5,0.8-9.7-2.9-9.7-2.9s3.3-5,8.3-5.8S50,14,50,14z"/>
		</g>
	</g>
	<g>
		<g>
			
				<ellipse transform="matrix(0.6058 0.7956 -0.7956 0.6058 37.5917 -22.1137)" fill="#FFA05F" cx="41.1" cy="26.9" rx="4.5" ry="3.1"/>
		</g>
	</g>
	<g>
		<g>
			<path fill="#8C5248" d="M32.1,19L32.1,19c-0.6,0-1.1-0.5-1.1-1.1c0,0-0.2-5.1-1-6.9s2.3-2.8,3-1s0.1,8.1,0.1,8.1
				C33,18.6,32.6,19,32.1,19z"/>
		</g>
	</g>
</g>
</svg>
