<?xml version="1.0" encoding="utf-8"?>
<!-- Generator: Adobe Illustrator 18.0.0, SVG Export Plug-In . SVG Version: 6.00 Build 0)  -->
<!DOCTYPE svg PUBLIC "-//W3C//DTD SVG 1.1//EN" "http://www.w3.org/Graphics/SVG/1.1/DTD/svg11.dtd">
<svg version="1.1" id="Layer_1" xmlns="http://www.w3.org/2000/svg" xmlns:xlink="http://www.w3.org/1999/xlink" x="0px" y="0px"
	 viewBox="0 0 64 64" enable-background="new 0 0 64 64" xml:space="preserve">
<g>
	<g>
		<g>
			<path fill="#F9D746" d="M32,0c17.7,0,32,14.3,32,32S49.7,64,32,64S0,49.7,0,32S14.4,0,32,0z"/>
		</g>
	</g>
	<g>
		<g>
			<path fill="#F25151" d="M26.1,54c1,0,2-0.2,2.9-0.7c1.9-0.9,4.2-0.9,6.1,0c0.9,0.4,1.9,0.7,2.9,0.7c6.8,0,11.8-11.4,11.8-19.7
				c0-8.3-5-13.1-11.8-13.1c-1.4,0-2.7,0.2-3.9,0.6c-1.3,0.4-2.7,0.4-4.1,0c-1.2-0.4-2.5-0.6-3.9-0.6c-6.8,0-11.8,4.8-11.8,13.1
				C14.3,42.6,19.3,54,26.1,54z"/>
		</g>
	</g>
	<g>
		<g>
			<ellipse fill="#E04B4B" cx="31.3" cy="23.5" rx="4" ry="1.5"/>
		</g>
	</g>
	<g>
		<g>
			<path fill="#39BC77" d="M22.3,12.7c0,0,4.7,0.1,7.3,3s2.2,7.5,2.2,7.5s-4.7-0.1-7.3-3S22.3,12.7,22.3,12.7z"/>
		</g>
	</g>
	<g>
		<g>
			<path fill="#92D855" d="M41.6,9c0,0,1.2,5.9-1.8,9.9c-2.9,4.1-8.9,4.8-8.9,4.8s-1.2-5.9,1.8-9.9C35.6,9.7,41.6,9,41.6,9z"/>
		</g>
	</g>
	<g>
		<g>
			<ellipse transform="matrix(0.7071 0.7071 -0.7071 0.7071 32.4295 -21.2201)" fill="#FF8080" cx="41.8" cy="28.5" rx="4" ry="3"/>
		</g>
	</g>
</g>
</svg>
