<svg id="Layer_1" data-name="Layer 1" xmlns="http://www.w3.org/2000/svg" viewBox="0 0 500 500"><defs><style>.cls-1{fill:#3bb777;}.cls-2{fill:#239957;}.cls-3{fill:#e44461;}.cls-4,.cls-6,.cls-8{fill:none;}.cls-5{fill:#bc395b;}.cls-6{stroke:#fff;}.cls-6,.cls-8{stroke-linecap:round;stroke-linejoin:round;stroke-width:20px;}.cls-7{fill:#fff;}.cls-8{stroke:#000;}</style></defs><title>watermelon</title><path class="cls-1" d="M405.89,405.79c-109.09,109.1-286,109.1-395.07,0L405.89,10.72C515,119.81,515,296.69,405.89,405.79Z"/><path class="cls-2" d="M44.51,372.1C147.92,475.52,312.21,480.83,422,388.18c-5.09,6-10.4,11.93-16.08,17.61-109.09,109.1-286,109.1-395.07,0Z"/><path class="cls-3" d="M370.13,370c-89.34,89.34-234.2,89.34-323.54,0L370.13,46.48C459.47,135.83,459.48,280.68,370.13,370Z"/><path class="cls-4" d="M370.13,370c-89.34,89.34-234.2,89.34-323.54,0L370.13,46.48C459.47,135.83,459.48,280.68,370.13,370Z"/><path class="cls-5" d="M80.27,336.34c83.66,83.65,216,89,305.82,16a230.48,230.48,0,0,1-16,17.73c-89.34,89.34-234.2,89.34-323.54,0Z"/><path d="M275.87,292.56a11.87,11.87,0,0,0,16.79-16.79c-4.63-4.64-21.74-14.23-26.38-9.59S271.24,287.92,275.87,292.56Z"/><path d="M333.32,207a11.87,11.87,0,1,1-5.56,23.08c-6.38-1.53-23.49-11.12-21.95-17.49S326.94,205.47,333.32,207Z"/><path d="M340.26,161.05a11.87,11.87,0,0,0-7.38-22.57c-6.23,2-22.53,13-20.49,19.19S334,163.09,340.26,161.05Z"/><path d="M208.38,332a11.87,11.87,0,1,0,23.08-5.56C229.93,320,220.34,302.9,214,304.44S206.84,325.57,208.38,332Z"/><path d="M162.42,338.89a11.87,11.87,0,1,1-22.57-7.38c2-6.23,13-22.52,19.19-20.49S164.45,332.66,162.42,338.89Z"/><path class="cls-6" d="M379.51,132.94c8.24,19.47,13.53,41,13.51,61.45"/><circle class="cls-7" cx="363.91" cy="99.82" r="12.34"/><path class="cls-8" d="M405.89,405.79c-109.09,109.1-286,109.1-395.07,0L405.89,10.72C515,119.81,515,296.69,405.89,405.79Z"/><path class="cls-8" d="M370.13,370c-89.34,89.34-234.2,89.34-323.54,0L370.13,46.48C459.47,135.83,459.48,280.68,370.13,370Z"/></svg>